<?xml version="1.0" encoding="UTF-8"?>
<!DOCTYPE svg PUBLIC "-//W3C//DTD SVG 1.1//EN" "http://www.w3.org/Graphics/SVG/1.1/DTD/svg11.dtd">
<!-- Creator: CorelDRAW -->
<svg xmlns="http://www.w3.org/2000/svg" xml:space="preserve" width="23.0715mm" height="14.555mm" version="1.1" style="shape-rendering:geometricPrecision; text-rendering:geometricPrecision; image-rendering:optimizeQuality; fill-rule:evenodd; clip-rule:evenodd"
viewBox="0 0 290.98 183.57"
 xmlns:xlink="http://www.w3.org/1999/xlink"
 xmlns:xodm="http://www.corel.com/coreldraw/odm/2003">
 <defs>
  <style type="text/css">
   <![CDATA[
    .fil1 {fill:white}
    .fil0 {fill:white;fill-rule:nonzero}
   ]]>
  </style>
 </defs>
 <g id="Capa_x0020_1">
  <metadata id="CorelCorpID_0Corel-Layer"/>
  <g id="_105553241961952">
   <g>
    <path class="fil0" d="M93.72 81.84c-0.08,-9.57 7.81,-14.17 8.17,-14.4 -4.45,-6.47 -11.36,-7.37 -13.82,-7.47 -5.88,-0.58 -11.49,3.46 -14.47,3.46 -2.99,0 -7.58,-3.37 -12.47,-3.27 -6.41,0.09 -12.33,3.73 -15.63,9.47 -6.65,11.59 -1.69,28.7 4.8,38.07 3.18,4.59 6.95,9.74 11.93,9.56 4.79,-0.19 6.59,-3.1 12.37,-3.1 5.78,-0.01 7.41,3.09 12.46,3.01 5.15,-0.11 8.41,-4.68 11.57,-9.3 3.63,-5.31 5.13,-10.47 5.21,-10.73 -0.1,-0.07 -10.03,-3.85 -10.14,-15.3l0 0zm-10.94 -28.08c2.63,-3.19 4.41,-7.64 3.93,-12.06 -3.81,0.16 -8.41,2.54 -11.12,5.73 -2.46,2.83 -4.58,7.35 -3.99,11.69 4.24,0.33 8.55,-2.16 11.19,-5.35z"/>
    <path class="fil0" d="M136.43 86.2l0 25.96 -8.23 0 0 -64.09 21.83 0c5.26,-0.1 10.32,1.89 14.16,5.57 3.83,3.42 5.98,8.38 5.88,13.49 0.1,5.16 -2.04,10.12 -5.88,13.6 -3.83,3.63 -8.54,5.47 -14.11,5.47l-13.65 0zm0 -30.26l0 22.39 13.8 0c3.07,0.1 6.03,-1.12 8.13,-3.32 4.34,-4.19 4.4,-11.09 0.2,-15.44l-0.2 -0.2c-2.1,-2.25 -5.06,-3.48 -8.13,-3.37l-13.8 -0.05 0 0zm52.59 10.94c6.08,0 10.89,1.64 14.41,4.86 3.53,3.27 5.26,7.72 5.26,13.39l0 26.99 -7.87 0 0 -6.08 -0.36 0c-3.42,5.01 -7.92,7.51 -13.6,7.51 -4.8,0 -8.89,-1.43 -12.11,-4.29 -3.17,-2.66 -4.96,-6.59 -4.85,-10.73 0,-4.55 1.74,-8.13 5.16,-10.84 3.42,-2.71 8.02,-4.04 13.75,-4.04 4.91,0 8.89,0.92 12.06,2.66l0 -1.89c0,-2.81 -1.23,-5.47 -3.37,-7.26 -2.2,-1.94 -5.01,-3.02 -7.92,-3.02 -4.6,0 -8.23,1.94 -10.94,5.83l-7.26 -4.55c3.93,-5.67 9.81,-8.54 17.63,-8.54l0 0zm-10.63 31.84c0,2.15 1.02,4.14 2.71,5.37 1.84,1.43 4.09,2.2 6.39,2.15 3.48,0 6.8,-1.38 9.25,-3.83 2.71,-2.56 4.09,-5.57 4.09,-9.05 -2.56,-2.04 -6.13,-3.07 -10.73,-3.07 -3.32,0 -6.13,0.82 -8.38,2.4 -2.2,1.64 -3.32,3.63 -3.32,6.03zm75.49 -30.41l-27.5 63.17 -8.49 0 10.22 -22.08 -18.09 -41.04 8.94 0 13.03 31.48 0.2 0 12.73 -31.49 8.94 -0.05z"/>
   </g>
   <path class="fil1" d="M290.98 20.91c0,-13.98 -7.26,-20.91 -21.35,-20.91l-248.27 0c-7.05,0 -12.22,1.87 -15.63,5.72 -3.85,3.85 -5.72,8.81 -5.72,15.19l0 141.75c0,6.38 1.87,11.22 5.72,15.19 3.96,3.85 9.03,5.72 15.63,5.72l248.27 0c14.09,0 21.35,-7.04 21.35,-20.91l0 -141.75zm-21.35 -17.61c11.67,0 17.61,5.94 17.61,17.61l0 141.75c0,11.78 -5.94,17.61 -17.61,17.61l-248.27 0c-5.61,0 -9.9,-1.65 -13.1,-4.95 -3.3,-3.19 -4.95,-7.59 -4.95,-12.66l0 -141.75c0,-11.67 5.83,-17.61 18.05,-17.61l248.27 0z"/>
  </g>
 </g>
</svg>
