<?xml version="1.0" encoding="UTF-8"?>
<!DOCTYPE svg PUBLIC "-//W3C//DTD SVG 1.1//EN" "http://www.w3.org/Graphics/SVG/1.1/DTD/svg11.dtd">
<!-- Creator: CorelDRAW -->
<svg xmlns="http://www.w3.org/2000/svg" xml:space="preserve" width="23.0715mm" height="14.555mm" version="1.1" style="shape-rendering:geometricPrecision; text-rendering:geometricPrecision; image-rendering:optimizeQuality; fill-rule:evenodd; clip-rule:evenodd"
viewBox="0 0 411.55 259.64"
 xmlns:xlink="http://www.w3.org/1999/xlink"
 xmlns:xodm="http://www.corel.com/coreldraw/odm/2003">
 <defs>
  <style type="text/css">
   <![CDATA[
    .fil1 {fill:white}
    .fil0 {fill:white;fill-rule:nonzero}
   ]]>
  </style>
 </defs>
 <g id="Capa_x0020_1">
  <metadata id="CorelCorpID_0Corel-Layer"/>
  <g id="_105553238275616">
   <path class="fil0" d="M195.04 127.19l0 34.85 -11.05 0 0 -86.04 29.3 0c7.07,-0.14 13.86,2.54 19,7.48 5.15,4.6 8.03,11.25 7.89,18.11 0.14,6.93 -2.74,13.59 -7.89,18.25 -5.15,4.87 -11.46,7.34 -18.94,7.34l-18.32 0zm0 -40.62l0 30.05 18.52 0c4.12,0.14 8.09,-1.51 10.91,-4.46 5.83,-5.63 5.9,-14.89 0.27,-20.72l-0.27 -0.27c-2.81,-3.02 -6.79,-4.67 -10.91,-4.53l-18.52 -0.07 0 0zm70.6 14.68c8.16,0 14.61,2.2 19.35,6.52 4.73,4.39 7.07,10.36 7.07,17.98l0 36.23 -10.57 0 0 -8.16 -0.48 0c-4.6,6.72 -10.64,10.09 -18.25,10.09 -6.45,0 -11.94,-1.92 -16.26,-5.76 -4.25,-3.57 -6.66,-8.85 -6.52,-14.41 0,-6.11 2.33,-10.91 6.93,-14.55 4.6,-3.64 10.77,-5.42 18.46,-5.42 6.59,0 11.94,1.23 16.19,3.57l0 -2.54c0,-3.77 -1.65,-7.34 -4.53,-9.74 -2.95,-2.61 -6.72,-4.05 -10.63,-4.05 -6.18,0 -11.05,2.61 -14.68,7.82l-9.74 -6.11c5.28,-7.62 13.17,-11.46 23.67,-11.46l0 0zm-14.27 42.74c0,2.88 1.37,5.56 3.64,7.2 2.47,1.92 5.49,2.95 8.58,2.88 4.67,0 9.13,-1.85 12.42,-5.15 3.64,-3.43 5.49,-7.48 5.49,-12.14 -3.43,-2.75 -8.23,-4.12 -14.41,-4.12 -4.46,0 -8.23,1.1 -11.25,3.23 -2.95,2.2 -4.46,4.87 -4.46,8.09zm101.34 -40.82l-36.91 84.8 -11.39 0 13.72 -29.64 -24.29 -55.1 12.01 0 17.5 42.27 0.27 0 17.08 -42.27 12.01 -0.07z"/>
   <g>
    <path class="fil0" d="M150.37 119.64c0,-3.36 -0.27,-6.72 -0.82,-10.02l-46.59 0 0 19.01 26.69 0c-1.1,6.11 -4.66,11.59 -9.88,15.03l0 12.35 15.92 0c9.33,-8.58 14.68,-21.27 14.68,-36.37z"/>
    <path class="fil0" d="M102.96 167.95c13.31,0 24.56,-4.39 32.73,-11.94l-15.92 -12.35c-4.46,3.02 -10.15,4.73 -16.81,4.73 -12.9,0 -23.81,-8.71 -27.72,-20.38l-16.4 0 0 12.76c8.37,16.6 25.46,27.17 44.12,27.17z"/>
    <path class="fil0" d="M75.25 128.02c-2.06,-6.11 -2.06,-12.76 0,-18.94l0 -12.69 -16.4 0c-3.48,6.86 -5.3,14.47 -5.3,22.16 0,7.7 1.82,15.3 5.3,22.16l16.4 -12.69 0 0z"/>
    <path class="fil0" d="M102.96 88.7c7.07,-0.14 13.86,2.54 18.94,7.41l14.07 -14.07c-8.92,-8.44 -20.72,-13.04 -33,-12.9 -18.66,0 -35.75,10.57 -44.12,27.24l16.4 12.76c3.91,-11.73 14.82,-20.45 27.72,-20.45z"/>
   </g>
   <path class="fil1" d="M411.55 29.58c0,-19.77 -10.27,-29.58 -30.2,-29.58l-351.16 0c-9.96,0 -17.28,2.65 -22.1,8.09 -5.45,5.45 -8.1,12.45 -8.1,21.48l0 200.48c0,9.03 2.65,15.88 8.1,21.48 5.6,5.45 12.77,8.09 22.1,8.09l351.16 0c19.93,0 30.2,-9.96 30.2,-29.58l0 -200.48zm-30.2 -24.9c16.5,0 24.91,8.4 24.91,24.9l0 200.48c0,16.66 -8.41,24.9 -24.91,24.9l-351.16 0c-7.94,0 -14.01,-2.33 -18.52,-7 -4.67,-4.51 -7,-10.74 -7,-17.9l0 -200.48c0,-16.5 8.25,-24.9 25.53,-24.9l351.16 0z"/>
  </g>
 </g>
</svg>
