<?xml version="1.0" encoding="UTF-8"?>
<!DOCTYPE svg PUBLIC "-//W3C//DTD SVG 1.1//EN" "http://www.w3.org/Graphics/SVG/1.1/DTD/svg11.dtd">
<!-- Creator: CorelDRAW -->
<svg xmlns="http://www.w3.org/2000/svg" xml:space="preserve" width="23.0715mm" height="14.555mm" version="1.1" style="shape-rendering:geometricPrecision; text-rendering:geometricPrecision; image-rendering:optimizeQuality; fill-rule:evenodd; clip-rule:evenodd"
viewBox="0 0 225.72 142.4"
 xmlns:xlink="http://www.w3.org/1999/xlink"
 xmlns:xodm="http://www.corel.com/coreldraw/odm/2003">
 <defs>
  <style type="text/css">
   <![CDATA[
    .fil0 {fill:white}
   ]]>
  </style>
 </defs>
 <g id="Capa_x0020_1">
  <metadata id="CorelCorpID_0Corel-Layer"/>
  <g id="_105553242018592">
   <path class="fil0" d="M53.62 50c5.2,0 9.99,2.82 9.33,9.84 -0.79,8.35 -5.27,12.97 -12.32,12.99l-6.17 0c-0.89,0 -1.32,0.72 -1.55,2.21l-1.19 7.58c-0.18,1.15 -0.77,1.71 -1.63,1.71l-5.74 0c-0.91,0 -1.23,-0.59 -1.03,-1.89l4.73 -30.38c0.23,-1.49 0.8,-2.05 1.82,-2.05l13.73 0 0.01 0zm-9.34 16.27l4.67 0c2.92,-0.11 4.86,-2.13 5.06,-5.78 0.12,-2.25 -1.4,-3.87 -3.82,-3.86l-4.4 0.02 -1.51 9.62 0 0zm34.27 15.73c0.53,-0.48 1.06,-0.72 0.98,-0.14l-0.19 1.41c-0.1,0.73 0.19,1.13 0.88,1.13l5.1 0c0.86,0 1.28,-0.35 1.49,-1.67l3.14 -19.71c0.16,-0.99 -0.08,-1.47 -0.83,-1.47l-5.61 0c-0.5,0 -0.75,0.28 -0.88,1.05l-0.21 1.21c-0.11,0.63 -0.4,0.74 -0.67,0.11 -0.95,-2.25 -3.38,-3.26 -6.76,-3.18 -7.86,0.16 -13.16,6.13 -13.73,13.78 -0.44,5.92 3.8,10.56 9.39,10.56 4.05,0 5.87,-1.19 7.91,-3.06l0 0 -0.02 -0.01zm-4.27 -3.03c-3.38,0 -5.74,-2.7 -5.25,-6.01 0.49,-3.31 3.65,-6.01 7.04,-6.01 3.38,0 5.74,2.7 5.25,6.01 -0.49,3.31 -3.65,6.01 -7.04,6.01l0 0zm25.64 -17.49l-5.17 0c-1.07,0 -1.5,0.79 -1.16,1.77l6.42 18.79 -6.29 8.94c-0.53,0.75 -0.12,1.43 0.62,1.43l5.81 0c0.07,0.01 0.14,0.01 0.2,0.01 0.62,0 1.2,-0.33 1.52,-0.86l19.73 -28.3c0.61,-0.87 0.32,-1.79 -0.68,-1.79l-5.5 0c-0.94,0 -1.32,0.37 -1.86,1.16l-8.23 11.93 -3.68 -11.95c-0.21,-0.72 -0.75,-1.12 -1.74,-1.12l-0 0z"/>
   <path class="fil0" d="M142.13 50c5.2,0 9.99,2.82 9.33,9.84 -0.79,8.35 -5.27,12.97 -12.32,12.99l-6.16 0c-0.89,0 -1.32,0.72 -1.55,2.21l-1.19 7.58c-0.18,1.15 -0.77,1.71 -1.63,1.71l-5.74 0c-0.91,0 -1.23,-0.59 -1.03,-1.89l4.74 -30.39c0.23,-1.49 0.8,-2.05 1.82,-2.05l13.73 0 0 0.01zm-9.34 16.27l4.67 0c2.92,-0.11 4.86,-2.13 5.06,-5.78 0.12,-2.25 -1.4,-3.87 -3.82,-3.86l-4.4 0.02 -1.51 9.62 0 0zm34.27 15.73c0.53,-0.48 1.06,-0.72 0.98,-0.14l-0.19 1.41c-0.1,0.73 0.19,1.13 0.88,1.13l5.1 0c0.86,0 1.28,-0.35 1.49,-1.67l3.14 -19.71c0.16,-0.99 -0.08,-1.47 -0.83,-1.47l-5.6 0c-0.5,0 -0.75,0.28 -0.88,1.05l-0.21 1.21c-0.11,0.63 -0.4,0.74 -0.67,0.11 -0.95,-2.25 -3.38,-3.26 -6.76,-3.18 -7.86,0.16 -13.16,6.13 -13.73,13.78 -0.44,5.92 3.8,10.56 9.39,10.56 4.05,0 5.87,-1.19 7.91,-3.06l0 0 -0.02 -0.01zm-4.27 -3.03c-3.38,0 -5.74,-2.7 -5.25,-6.01 0.49,-3.31 3.65,-6.01 7.04,-6.01 3.38,0 5.74,2.7 5.25,6.01 -0.49,3.31 -3.65,6.01 -7.04,6.01l0 0zm23.51 5.46l-5.88 0c-0.01,0 -0.02,0 -0.03,0 -0.38,0 -0.7,-0.31 -0.7,-0.7 0,-0.03 0,-0.07 0.01,-0.1l5.17 -32.74c0.1,-0.46 0.51,-0.79 0.98,-0.79l5.88 0c0.01,-0 0.02,-0 0.03,-0 0.38,0 0.7,0.31 0.7,0.7 0,0.03 -0,0.07 -0.01,0.1l-5.17 32.74c-0.1,0.46 -0.5,0.8 -0.98,0.8l0 -0.01z"/>
  </g>
  <path class="fil0" d="M225.72 16.22c0,-10.84 -5.63,-16.22 -16.56,-16.22l-192.6 0c-5.47,0 -9.48,1.45 -12.12,4.44 -2.99,2.99 -4.44,6.83 -4.44,11.78l0 109.96c0,4.95 1.45,8.71 4.44,11.78 3.07,2.99 7,4.44 12.12,4.44l192.6 0c10.93,0 16.56,-5.46 16.56,-16.22l0 -109.96zm-16.56 -13.66c9.05,0 13.66,4.61 13.66,13.66l0 109.96c0,9.13 -4.61,13.66 -13.66,13.66l-192.6 0c-4.35,0 -7.68,-1.28 -10.16,-3.84 -2.56,-2.48 -3.84,-5.89 -3.84,-9.82l0 -109.96c0,-9.05 4.53,-13.66 14,-13.66l192.6 0z"/>
 </g>
</svg>
