<?xml version="1.0" encoding="UTF-8"?>
<!DOCTYPE svg PUBLIC "-//W3C//DTD SVG 1.1//EN" "http://www.w3.org/Graphics/SVG/1.1/DTD/svg11.dtd">
<!-- Creator: CorelDRAW -->
<svg xmlns="http://www.w3.org/2000/svg" xml:space="preserve" width="12.5864mm" height="5.7288mm" version="1.1" style="shape-rendering:geometricPrecision; text-rendering:geometricPrecision; image-rendering:optimizeQuality; fill-rule:evenodd; clip-rule:evenodd"
viewBox="0 0 61.34 27.92"
 xmlns:xlink="http://www.w3.org/1999/xlink"
 xmlns:xodm="http://www.corel.com/coreldraw/odm/2003">
 <defs>
  <style type="text/css">
   <![CDATA[
    .fil2 {fill:white;fill-rule:nonzero}
    .fil1 {fill:url(#id0)}
    .fil0 {fill:url(#id1)}
   ]]>
  </style>
  <linearGradient id="id0" gradientUnits="userSpaceOnUse" x1="1.71" y1="13.94" x2="53.29" y2="13.94">
   <stop offset="0" style="stop-opacity:1; stop-color:#45AC3D"/>
   <stop offset="0.0392157" style="stop-opacity:1; stop-color:#45AC3D"/>
   <stop offset="0.988235" style="stop-opacity:1; stop-color:#83BF63"/>
   <stop offset="1" style="stop-opacity:1; stop-color:#83BF63"/>
  </linearGradient>
  <linearGradient id="id1" gradientUnits="userSpaceOnUse" xlink:href="#id0" x1="51.48" y1="13.96" x2="59.48" y2="13.96">
  </linearGradient>
 </defs>
 <g id="Capa_x0020_1">
  <metadata id="CorelCorpID_0Corel-Layer"/>
  <path class="fil0" d="M54.45 27.87c9.2,-7.01 9.2,-20.85 0,-27.86l-0 -0 0.36 0 0.52 -0 -2.96 0 -0.52 0 -0.36 0 0 0c9.2,7.01 9.2,20.85 0,27.86l2.24 0.05 -1.25 -0 1.98 -0.05 0 0z"/>
  <path class="fil1" d="M49.52 2.86c-2.43,-1.85 -5.39,-2.85 -8.45,-2.85l-27.14 0c-3.05,0 -6.02,1 -8.45,2.85 -7.31,5.58 -7.31,16.58 0,22.16 2.43,1.85 5.39,2.85 8.45,2.85l27.14 0c3.05,0 6.02,-1 8.45,-2.85 7.31,-5.58 7.31,-16.58 0,-22.16z"/>
  <path class="fil2" d="M22.83 20.29l0.29 0.18c1.28,0.8 2.76,1.23 4.26,1.23 4.44,0 8.04,-3.61 8.04,-8.04 0,-4.44 -3.61,-8.04 -8.04,-8.04 -4.44,0 -8.04,3.61 -8.04,8.04 0,1.8 0.59,3.51 1.71,4.94l0.2 0.25 -0.41 2.13 2.01 -0.69zm4.54 2.81c-1.65,0 -3.28,-0.44 -4.71,-1.27l-3.68 1.27 0.76 -3.9c-1.19,-1.63 -1.81,-3.54 -1.81,-5.55 0,-5.21 4.24,-9.45 9.45,-9.45 5.21,0 9.45,4.24 9.45,9.45 0,5.21 -4.24,9.45 -9.45,9.45z"/>
  <path class="fil2" d="M22.61 10.02c0,0 0.55,-0.97 1.01,-1.02 0.45,-0.06 1.03,-0.06 1.19,0.24 0.16,0.3 0.86,2.01 0.86,2.01 0,0 0.12,0.3 -0.06,0.58 -0.18,0.29 -0.6,0.7 -0.6,0.7 0,0 -0.23,0.3 0,0.61 0.23,0.31 0.59,0.89 1.33,1.63 0.74,0.74 2.16,1.27 2.16,1.27 0,0 0.2,0.03 0.33,-0.1 0.13,-0.13 0.83,-1.01 0.83,-1.01 0,0 0.23,-0.29 0.6,-0.12 0.37,0.17 1.99,0.98 1.99,0.98 0,0 0.19,0.07 0.19,0.36 0,0.29 -0.12,0.99 -0.35,1.22 -0.24,0.24 -0.93,0.97 -1.97,0.97 -1.04,0 -3.52,-0.85 -4.84,-2.17 -1.32,-1.32 -2.49,-2.66 -2.77,-3.88 -0.28,-1.22 -0.24,-1.77 0.1,-2.27z"/>
 </g>
</svg>
