<?xml version="1.0" encoding="UTF-8"?>
<!DOCTYPE svg PUBLIC "-//W3C//DTD SVG 1.1//EN" "http://www.w3.org/Graphics/SVG/1.1/DTD/svg11.dtd">
<!-- Creator: CorelDRAW -->
<svg xmlns="http://www.w3.org/2000/svg" xml:space="preserve" width="50.5482mm" height="9.2713mm" version="1.1" style="shape-rendering:geometricPrecision; text-rendering:geometricPrecision; image-rendering:optimizeQuality; fill-rule:evenodd; clip-rule:evenodd"
viewBox="0 0 992.07 181.96"
 xmlns:xlink="http://www.w3.org/1999/xlink"
 xmlns:xodm="http://www.corel.com/coreldraw/odm/2003">
 <defs>
  <style type="text/css">
   <![CDATA[
    .fil0 {fill:#00A0E4;fill-rule:nonzero}
    .fil1 {fill:white;fill-rule:nonzero}
   ]]>
  </style>
 </defs>
 <g id="Capa_x0020_1">
  <metadata id="CorelCorpID_0Corel-Layer"/>
  <path class="fil0" d="M85.87 181.96c-16.31,0 -31.09,-3.48 -44.13,-10.22 -13.04,-6.74 -23.26,-16.3 -30.65,-28.48 -7.39,-11.96 -11.09,-25.65 -11.09,-40.87 0,-15.22 3.7,-28.91 11.09,-41.09 7.39,-11.96 17.61,-21.52 30.65,-28.26 13.04,-6.74 27.83,-10.22 44.13,-10.22 16.3,0 31.09,3.48 44.13,10.22 13.04,6.74 23.26,16.31 30.65,28.26 7.39,12.17 11.09,25.87 11.09,41.09 0,15.22 -3.7,28.91 -11.09,40.87 -7.39,12.17 -17.61,21.74 -30.65,28.48 -13.05,6.74 -27.83,10.22 -44.13,10.22zm0 -41.52c6.3,0 12.17,-1.52 17.39,-4.78 5,-3.04 9.13,-7.39 12.17,-13.26 3.04,-5.65 4.57,-12.39 4.57,-20 0,-7.61 -1.52,-14.35 -4.57,-20.22 -3.04,-5.65 -7.17,-10 -12.17,-13.26 -5.22,-3.04 -11.09,-4.57 -17.39,-4.57 -6.31,0 -12.17,1.52 -17.17,4.57 -5.22,3.26 -9.35,7.61 -12.39,13.26 -3.04,5.87 -4.57,12.61 -4.57,20.22 0,7.61 1.52,14.35 4.57,20 3.04,5.87 7.18,10.22 12.39,13.26 5,3.26 10.87,4.78 17.17,4.78z"/>
  <path id="_1" class="fil0" d="M624.92 26.31c14.13,0 26.31,2.39 36.74,6.96 10.44,4.57 18.48,11.3 24.13,20 5.65,8.69 8.48,18.91 8.48,30.43 0,11.52 -2.83,21.74 -8.48,30.44 -5.65,8.69 -13.7,15.43 -24.13,20 -10.43,4.57 -22.61,6.96 -36.74,6.96l-21.96 0 0 37.39 -51.3 0 0 -152.18 73.26 0zm-3.26 75.22c6.96,0 12.17,-1.52 15.65,-4.78 3.48,-3.04 5.22,-7.39 5.22,-13.04 0,-5.65 -1.74,-10 -5.22,-13.26 -3.48,-3.04 -8.69,-4.57 -15.65,-4.57l-18.7 0 0 35.65 18.7 0z"/>
  <path id="_2" class="fil1" d="M239.07 57.39c14.57,0 26.52,4.35 35.44,13.26 8.91,8.91 13.26,22.17 13.26,40l0 67.83 -49.13 0 0 -59.35c0,-13.7 -4.78,-20.43 -14.57,-20.43 -5.43,0 -10,1.96 -13.26,5.65 -3.48,3.91 -5.22,10 -5.22,18.26l0 55.87 -49.13 0 0 -118.92 46.74 0 0 11.74c4.57,-4.57 10,-8.04 16.09,-10.43 6.09,-2.39 12.61,-3.48 19.78,-3.48z"/>
  <path id="_3" class="fil1" d="M276.62 59.57l49.13 0 0 118.92 -49.13 0 0 -118.92zm24.57 -9.57c-8.91,0 -15.87,-2.39 -21.3,-7.17 -5.43,-4.57 -8.26,-10.65 -8.26,-17.83 0,-7.18 2.83,-13.26 8.26,-18.04 5.43,-4.57 12.39,-6.96 21.3,-6.96 8.91,0 16.09,2.17 21.52,6.74 5.43,4.57 8.04,10.22 8.04,17.39 0,7.61 -2.61,13.7 -8.04,18.48 -5.43,5 -12.61,7.39 -21.52,7.39z"/>
  <path id="_4" class="fil1" d="M377.86 180.66c-13.26,0 -25,-2.61 -35.44,-8.04 -10.65,-5.22 -18.91,-12.61 -24.78,-21.96 -5.87,-9.35 -8.91,-19.78 -8.91,-31.74 0,-11.96 3.04,-22.61 8.91,-31.96 5.87,-9.35 14.13,-16.52 24.78,-21.74 10.44,-5.22 22.18,-7.83 35.44,-7.83 13.26,0 25.22,2.61 35.87,7.83 10.44,5.22 18.7,12.39 24.57,21.74 5.87,9.35 8.7,20 8.7,31.96 0,11.96 -2.83,22.39 -8.7,31.74 -5.87,9.35 -14.13,16.74 -24.57,21.96 -10.65,5.43 -22.61,8.04 -35.87,8.04zm0 -38.26c5.65,0 10.22,-2.17 13.92,-6.31 3.7,-4.13 5.43,-9.78 5.43,-17.17 0,-7.39 -1.74,-13.05 -5.43,-17.17 -3.7,-4.13 -8.26,-6.09 -13.92,-6.09 -5.65,0 -10.22,1.96 -13.91,6.09 -3.7,4.13 -5.43,9.78 -5.43,17.17 0,7.39 1.74,13.04 5.43,17.17 3.7,4.13 8.26,6.31 13.91,6.31z"/>
  <path id="_5" class="fil1" d="M512.59 57.39c14.57,0 26.52,4.35 35.44,13.26 8.91,8.91 13.26,22.17 13.26,40l0 67.83 -49.13 0 0 -59.35c0,-13.7 -4.78,-20.43 -14.57,-20.43 -5.43,0 -10,1.96 -13.26,5.65 -3.48,3.91 -5.22,10 -5.22,18.26l0 55.87 -49.13 0 0 -118.92 46.74 0 0 11.74c4.57,-4.57 10,-8.04 16.09,-10.43 6.09,-2.39 12.61,-3.48 19.78,-3.48z"/>
  <path id="_6" class="fil1" d="M725.95 72.39c8.69,-10 21.52,-15 38.48,-15l0 43.48c-3.91,-0.65 -7.61,-0.87 -10.87,-0.87 -16.74,0 -25.22,8.48 -25.22,25.65l0 52.83 -49.13 0 0 -118.92 46.74 0 0 12.83z"/>
  <path id="_7" class="fil1" d="M745.89 59.57l49.13 0 0 118.92 -49.13 0 0 -118.92zm24.57 -9.57c-8.91,0 -15.87,-2.39 -21.3,-7.17 -5.43,-4.57 -8.26,-10.65 -8.26,-17.83 0,-7.18 2.83,-13.26 8.26,-18.04 5.43,-4.57 12.39,-6.96 21.3,-6.96 8.91,0 16.09,2.17 21.52,6.74 5.43,4.57 8.04,10.22 8.04,17.39 0,7.61 -2.61,13.7 -8.04,18.48 -5.43,5 -12.61,7.39 -21.52,7.39z"/>
  <path id="_8" class="fil1" d="M866.91 57.39c14.57,0 26.52,4.35 35.44,13.26 8.91,8.91 13.26,22.17 13.26,40l0 67.83 -49.13 0 0 -59.35c0,-13.7 -4.78,-20.43 -14.57,-20.43 -5.43,0 -10,1.96 -13.26,5.65 -3.48,3.91 -5.22,10 -5.22,18.26l0 55.87 -49.13 0 0 -118.92 46.74 0 0 11.74c4.57,-4.57 10,-8.04 16.09,-10.43 6.09,-2.39 12.61,-3.48 19.78,-3.48z"/>
  <path id="_9" class="fil1" d="M992.07 174.35c-7.39,4.13 -17.39,6.31 -30.22,6.31 -16.74,0 -29.56,-4.13 -38.48,-12.17 -8.91,-8.04 -13.48,-20 -13.48,-36.09l0 -30.43 -16.31 0 0 -35.87 16.31 0 0 -33.26 49.13 0 0 33.26 24.35 0 0 35.87 -24.35 0 0 30c0,3.7 0.87,6.52 2.83,8.48 1.96,1.96 4.35,3.04 7.39,3.04 4.13,0 7.83,-1.09 11.09,-3.26l11.74 34.13z"/>
 </g>
</svg>
