<?xml version="1.0" encoding="UTF-8"?>
<!DOCTYPE svg PUBLIC "-//W3C//DTD SVG 1.1//EN" "http://www.w3.org/Graphics/SVG/1.1/DTD/svg11.dtd">
<!-- Creator: CorelDRAW -->
<svg xmlns="http://www.w3.org/2000/svg" xml:space="preserve" width="67.7506mm" height="9.4753mm" version="1.1" style="shape-rendering:geometricPrecision; text-rendering:geometricPrecision; image-rendering:optimizeQuality; fill-rule:evenodd; clip-rule:evenodd"
viewBox="0 0 1256.77 175.77"
 xmlns:xlink="http://www.w3.org/1999/xlink"
 xmlns:xodm="http://www.corel.com/coreldraw/odm/2003">
 <defs>
  <style type="text/css">
   <![CDATA[
    .fil0 {fill:#00A0E4;fill-rule:nonzero}
    .fil1 {fill:white;fill-rule:nonzero}
   ]]>
  </style>
 </defs>
 <g id="Capa_x0020_1">
  <metadata id="CorelCorpID_0Corel-Layer"/>
  <path class="fil0" d="M84.25 175.77c-16.06,0 -30.36,-3.52 -43.12,-10.34 -12.98,-6.82 -22.88,-16.5 -30.14,-28.6 -7.26,-12.1 -11,-25.52 -11,-40.7 0,-15.18 3.74,-28.82 11,-40.92 7.26,-12.1 17.16,-21.56 30.14,-28.38 12.76,-6.82 27.06,-10.34 43.12,-10.34 16.06,0 30.36,3.52 43.12,10.34 12.76,6.82 22.88,16.28 30.14,28.38 7.26,12.1 11,25.74 11,40.92 0,15.18 -3.74,28.6 -11,40.7 -7.26,12.1 -17.38,21.78 -30.14,28.6 -12.76,6.82 -27.06,10.34 -43.12,10.34zm0 -30.36c9.02,0 17.38,-2.2 24.64,-6.38 7.26,-4.18 13.2,-9.9 17.38,-17.38 4.18,-7.48 6.16,-16.06 6.16,-25.52 0,-9.46 -1.98,-18.04 -6.16,-25.52 -4.18,-7.48 -10.12,-13.42 -17.38,-17.6 -7.26,-4.18 -15.62,-6.16 -24.64,-6.16 -9.02,0 -17.38,1.98 -24.64,6.16 -7.26,4.18 -12.98,10.12 -17.16,17.6 -4.18,7.48 -6.38,16.06 -6.38,25.52 0,9.46 2.2,18.04 6.38,25.52 4.18,7.48 9.9,13.2 17.16,17.38 7.26,4.18 15.62,6.38 24.64,6.38z"/>
  <path id="_1" class="fil0" d="M776.32 19.14c13.64,0 25.52,2.2 35.64,6.82 9.9,4.62 17.6,11 23.1,19.36 5.5,8.36 8.14,18.26 8.14,29.7 0,11.22 -2.64,21.12 -8.14,29.48 -5.5,8.58 -13.2,14.96 -23.1,19.36 -10.12,4.62 -22,6.82 -35.64,6.82l-31.02 0 0 42.46 -35.64 0 0 -153.99 66.66 0zm-1.98 82.49c10.78,0 18.92,-2.42 24.42,-7.04 5.5,-4.62 8.36,-11 8.36,-19.58 0,-8.58 -2.86,-15.4 -8.36,-20.02 -5.5,-4.62 -13.64,-6.82 -24.42,-6.82l-29.04 0 0 53.46 29.04 0z"/>
  <path id="_2" class="fil1" d="M264.86 53.02c14.74,0 26.62,4.4 35.64,13.2 9.02,8.8 13.42,21.78 13.42,39.16l0 67.76 -34.32 0 0 -62.48c0,-9.46 -1.98,-16.5 -6.16,-21.12 -4.18,-4.62 -10.12,-6.82 -17.82,-6.82 -8.58,0 -15.62,2.64 -20.68,7.92 -5.06,5.5 -7.7,13.42 -7.7,23.98l0 58.52 -34.32 0 0 -118.35 32.78 0 0 13.86c4.62,-5.06 10.12,-8.8 16.94,-11.66 6.82,-2.64 14.08,-3.96 22.22,-3.96z"/>
  <path id="_3" class="fil1" d="M344.93 54.78l34.32 0 0 118.35 -34.32 0 0 -118.35zm17.16 -16.5c-6.38,0 -11.44,-1.76 -15.4,-5.5 -3.96,-3.74 -5.94,-8.14 -5.94,-13.64 0,-5.5 1.98,-9.9 5.94,-13.64 3.96,-3.74 9.02,-5.5 15.4,-5.5 6.38,0 11.44,1.76 15.4,5.28 3.96,3.52 5.94,7.92 5.94,13.2 0,5.72 -1.98,10.34 -5.94,14.08 -3.96,3.74 -9.02,5.72 -15.4,5.72z"/>
  <path id="_4" class="fil1" d="M467.47 174.89c-12.54,0 -23.54,-2.64 -33.44,-7.92 -9.9,-5.06 -17.82,-12.32 -23.32,-21.56 -5.5,-9.24 -8.36,-19.8 -8.36,-31.46 0,-11.66 2.86,-22.22 8.36,-31.46 5.5,-9.24 13.42,-16.5 23.32,-21.78 9.9,-5.06 20.9,-7.7 33.44,-7.7 12.54,0 23.54,2.64 33.44,7.7 9.9,5.28 17.6,12.54 23.1,21.78 5.5,9.24 8.36,19.8 8.36,31.46 0,11.66 -2.86,22.22 -8.36,31.46 -5.5,9.24 -13.2,16.5 -23.1,21.56 -9.9,5.28 -20.9,7.92 -33.44,7.92zm0 -28.16c8.8,0 16.06,-3.08 21.78,-9.02 5.5,-5.94 8.36,-13.86 8.36,-23.76 0,-9.9 -2.86,-18.04 -8.36,-23.98 -5.72,-5.94 -12.98,-8.8 -21.78,-8.8 -8.8,0 -16.06,2.86 -21.78,8.8 -5.72,5.94 -8.58,14.08 -8.58,23.98 0,9.9 2.86,17.82 8.58,23.76 5.72,5.94 12.98,9.02 21.78,9.02z"/>
  <path id="_5" class="fil1" d="M627.17 53.02c14.74,0 26.62,4.4 35.64,13.2 9.02,8.8 13.42,21.78 13.42,39.16l0 67.76 -34.32 0 0 -62.48c0,-9.46 -1.98,-16.5 -6.16,-21.12 -4.18,-4.62 -10.12,-6.82 -17.82,-6.82 -8.58,0 -15.62,2.64 -20.68,7.92 -5.06,5.5 -7.7,13.42 -7.7,23.98l0 58.52 -34.32 0 0 -118.35 32.78 0 0 13.86c4.62,-5.06 10.12,-8.8 16.94,-11.66 6.82,-2.64 14.08,-3.96 22.22,-3.96z"/>
  <path id="_6" class="fil1" d="M901.05 70.39c4.18,-5.72 9.68,-10.12 16.72,-12.98 6.82,-2.86 14.96,-4.4 23.98,-4.4l0 31.68c-3.74,-0.22 -6.38,-0.44 -7.7,-0.44 -9.9,0 -17.6,2.64 -23.1,8.14 -5.5,5.5 -8.36,13.86 -8.36,24.86l0 55.88 -34.32 0 0 -118.35 32.78 0 0 15.62z"/>
  <path id="_7" class="fil1" d="M962.21 54.78l34.32 0 0 118.35 -34.32 0 0 -118.35zm17.16 -16.5c-6.38,0 -11.44,-1.76 -15.4,-5.5 -3.96,-3.74 -5.94,-8.14 -5.94,-13.64 0,-5.5 1.98,-9.9 5.94,-13.64 3.96,-3.74 9.02,-5.5 15.4,-5.5 6.38,0 11.44,1.76 15.4,5.28 3.96,3.52 5.94,7.92 5.94,13.2 0,5.72 -1.98,10.34 -5.94,14.08 -3.96,3.74 -9.02,5.72 -15.4,5.72z"/>
  <path id="_8" class="fil1" d="M1100.36 53.02c14.74,0 26.62,4.4 35.64,13.2 9.02,8.8 13.42,21.78 13.42,39.16l0 67.76 -34.32 0 0 -62.48c0,-9.46 -1.98,-16.5 -6.16,-21.12 -4.18,-4.62 -10.12,-6.82 -17.82,-6.82 -8.58,0 -15.62,2.64 -20.68,7.92 -5.06,5.5 -7.7,13.42 -7.7,23.98l0 58.52 -34.32 0 0 -118.35 32.78 0 0 13.86c4.62,-5.06 10.12,-8.8 16.94,-11.66 6.82,-2.64 14.08,-3.96 22.22,-3.96z"/>
  <path id="_9" class="fil1" d="M1256.77 167.41c-3.3,2.42 -7.48,4.4 -12.32,5.5 -5.06,1.32 -10.12,1.98 -15.62,1.98 -14.08,0 -24.86,-3.52 -32.56,-10.78 -7.7,-7.26 -11.66,-17.82 -11.66,-31.68l0 -48.62 -18.26 0 0 -26.4 18.26 0 0 -28.82 34.32 0 0 28.82 29.48 0 0 26.4 -29.48 0 0 48.18c0,5.06 1.32,8.8 3.96,11.44 2.42,2.86 6.16,4.18 10.78,4.18 5.5,0 10.12,-1.54 13.86,-4.4l9.24 24.2z"/>
 </g>
</svg>
