<?xml version="1.0" encoding="UTF-8"?>
<!DOCTYPE svg PUBLIC "-//W3C//DTD SVG 1.1//EN" "http://www.w3.org/Graphics/SVG/1.1/DTD/svg11.dtd">
<!-- Creator: CorelDRAW -->
<svg xmlns="http://www.w3.org/2000/svg" xml:space="preserve" width="32.4976mm" height="5.9605mm" version="1.1" style="shape-rendering:geometricPrecision; text-rendering:geometricPrecision; image-rendering:optimizeQuality; fill-rule:evenodd; clip-rule:evenodd"
viewBox="0 0 340.45 62.44"
 xmlns:xlink="http://www.w3.org/1999/xlink"
 xmlns:xodm="http://www.corel.com/coreldraw/odm/2003">
 <defs>
  <style type="text/css">
   <![CDATA[
    .fil0 {fill:#00A0E4;fill-rule:nonzero}
    .fil1 {fill:black;fill-rule:nonzero}
   ]]>
  </style>
 </defs>
 <g id="Capa_x0020_1">
  <metadata id="CorelCorpID_0Corel-Layer"/>
  <path class="fil0" d="M29.47 62.44c-5.6,0 -10.67,-1.19 -15.14,-3.51 -4.48,-2.31 -7.98,-5.6 -10.52,-9.77 -2.54,-4.1 -3.8,-8.8 -3.8,-14.03 0,-5.22 1.27,-9.92 3.8,-14.1 2.54,-4.1 6.04,-7.39 10.52,-9.7 4.48,-2.31 9.55,-3.51 15.14,-3.51 5.6,0 10.67,1.19 15.15,3.51 4.48,2.31 7.98,5.59 10.52,9.7 2.54,4.18 3.8,8.88 3.8,14.1 0,5.22 -1.27,9.92 -3.8,14.03 -2.54,4.18 -6.04,7.46 -10.52,9.77 -4.48,2.31 -9.55,3.51 -15.15,3.51zm0 -14.25c2.16,0 4.18,-0.52 5.97,-1.64 1.72,-1.04 3.13,-2.54 4.18,-4.55 1.04,-1.94 1.57,-4.25 1.57,-6.86 0,-2.61 -0.52,-4.92 -1.57,-6.94 -1.04,-1.94 -2.46,-3.43 -4.18,-4.55 -1.79,-1.04 -3.8,-1.57 -5.97,-1.57 -2.16,0 -4.18,0.52 -5.89,1.57 -1.79,1.12 -3.21,2.61 -4.25,4.55 -1.04,2.01 -1.57,4.33 -1.57,6.94 0,2.61 0.52,4.92 1.57,6.86 1.04,2.01 2.46,3.51 4.25,4.55 1.72,1.12 3.73,1.64 5.89,1.64z"/>
  <path id="_1" class="fil0" d="M214.45 9.03c4.85,0 9.03,0.82 12.61,2.39 3.58,1.57 6.34,3.88 8.28,6.86 1.94,2.98 2.91,6.49 2.91,10.44 0,3.95 -0.97,7.46 -2.91,10.44 -1.94,2.98 -4.7,5.3 -8.28,6.86 -3.58,1.57 -7.76,2.39 -12.61,2.39l-7.54 0 0 12.83 -17.61 0 0 -52.22 25.14 0zm-1.12 25.81c2.39,0 4.18,-0.52 5.37,-1.64 1.19,-1.04 1.79,-2.54 1.79,-4.48 0,-1.94 -0.6,-3.43 -1.79,-4.55 -1.19,-1.04 -2.98,-1.57 -5.37,-1.57l-6.42 0 0 12.24 6.42 0z"/>
  <path id="_2" class="fil1" d="M82.04 19.7c5,0 9.1,1.49 12.16,4.55 3.06,3.06 4.55,7.61 4.55,13.73l0 23.28 -16.86 0 0 -20.37c0,-4.7 -1.64,-7.01 -5,-7.01 -1.86,0 -3.43,0.67 -4.55,1.94 -1.19,1.34 -1.79,3.43 -1.79,6.27l0 19.17 -16.86 0 0 -40.81 16.04 0 0 4.03c1.57,-1.57 3.43,-2.76 5.52,-3.58 2.09,-0.82 4.33,-1.19 6.79,-1.19z"/>
  <path id="_3" class="fil1" d="M94.93 20.44l16.86 0 0 40.81 -16.86 0 0 -40.81zm8.43 -3.28c-3.06,0 -5.45,-0.82 -7.31,-2.46 -1.86,-1.57 -2.83,-3.66 -2.83,-6.12 0,-2.46 0.97,-4.55 2.83,-6.19 1.86,-1.57 4.25,-2.39 7.31,-2.39 3.06,0 5.52,0.75 7.39,2.31 1.86,1.57 2.76,3.51 2.76,5.97 0,2.61 -0.9,4.7 -2.76,6.34 -1.87,1.72 -4.33,2.54 -7.39,2.54z"/>
  <path id="_4" class="fil1" d="M129.67 62c-4.55,0 -8.58,-0.89 -12.16,-2.76 -3.66,-1.79 -6.49,-4.33 -8.5,-7.53 -2.01,-3.21 -3.06,-6.79 -3.06,-10.89 0,-4.1 1.04,-7.76 3.06,-10.97 2.01,-3.21 4.85,-5.67 8.5,-7.46 3.58,-1.79 7.61,-2.69 12.16,-2.69 4.55,0 8.65,0.9 12.31,2.69 3.58,1.79 6.42,4.25 8.43,7.46 2.01,3.21 2.98,6.86 2.98,10.97 0,4.1 -0.97,7.68 -2.98,10.89 -2.01,3.21 -4.85,5.74 -8.43,7.53 -3.66,1.87 -7.76,2.76 -12.31,2.76zm0 -13.13c1.94,0 3.51,-0.75 4.78,-2.16 1.27,-1.42 1.86,-3.36 1.86,-5.89 0,-2.54 -0.6,-4.48 -1.86,-5.89 -1.27,-1.42 -2.83,-2.09 -4.78,-2.09 -1.94,0 -3.51,0.67 -4.77,2.09 -1.27,1.42 -1.87,3.36 -1.87,5.89 0,2.54 0.6,4.48 1.87,5.89 1.27,1.42 2.83,2.16 4.77,2.16z"/>
  <path id="_5" class="fil1" d="M175.91 19.7c5,0 9.1,1.49 12.16,4.55 3.06,3.06 4.55,7.61 4.55,13.73l0 23.28 -16.86 0 0 -20.37c0,-4.7 -1.64,-7.01 -5,-7.01 -1.86,0 -3.43,0.67 -4.55,1.94 -1.19,1.34 -1.79,3.43 -1.79,6.27l0 19.17 -16.86 0 0 -40.81 16.04 0 0 4.03c1.57,-1.57 3.43,-2.76 5.52,-3.58 2.09,-0.82 4.33,-1.19 6.79,-1.19z"/>
  <path id="_6" class="fil1" d="M249.12 24.84c2.98,-3.43 7.39,-5.15 13.21,-5.15l0 14.92c-1.34,-0.22 -2.61,-0.3 -3.73,-0.3 -5.74,0 -8.65,2.91 -8.65,8.8l0 18.13 -16.86 0 0 -40.81 16.04 0 0 4.4z"/>
  <path id="_7" class="fil1" d="M255.97 20.44l16.86 0 0 40.81 -16.86 0 0 -40.81zm8.43 -3.28c-3.06,0 -5.45,-0.82 -7.31,-2.46 -1.86,-1.57 -2.83,-3.66 -2.83,-6.12 0,-2.46 0.97,-4.55 2.83,-6.19 1.86,-1.57 4.25,-2.39 7.31,-2.39 3.06,0 5.52,0.75 7.39,2.31 1.86,1.57 2.76,3.51 2.76,5.97 0,2.61 -0.9,4.7 -2.76,6.34 -1.87,1.72 -4.33,2.54 -7.39,2.54z"/>
  <path id="_8" class="fil1" d="M297.5 19.7c5,0 9.1,1.49 12.16,4.55 3.06,3.06 4.55,7.61 4.55,13.73l0 23.28 -16.86 0 0 -20.37c0,-4.7 -1.64,-7.01 -5,-7.01 -1.86,0 -3.43,0.67 -4.55,1.94 -1.19,1.34 -1.79,3.43 -1.79,6.27l0 19.17 -16.86 0 0 -40.81 16.04 0 0 4.03c1.57,-1.57 3.43,-2.76 5.52,-3.58 2.09,-0.82 4.33,-1.19 6.79,-1.19z"/>
  <path id="_9" class="fil1" d="M340.45 59.83c-2.54,1.42 -5.97,2.16 -10.37,2.16 -5.75,0 -10.15,-1.42 -13.21,-4.18 -3.06,-2.76 -4.63,-6.86 -4.63,-12.38l0 -10.44 -5.6 0 0 -12.31 5.6 0 0 -11.41 16.86 0 0 11.41 8.36 0 0 12.31 -8.36 0 0 10.29c0,1.27 0.3,2.24 0.97,2.91 0.67,0.67 1.49,1.04 2.54,1.04 1.42,0 2.69,-0.37 3.8,-1.12l4.03 11.71z"/>
 </g>
</svg>
