<?xml version="1.0" encoding="UTF-8"?>
<!DOCTYPE svg PUBLIC "-//W3C//DTD SVG 1.1//EN" "http://www.w3.org/Graphics/SVG/1.1/DTD/svg11.dtd">
<!-- Creator: CorelDRAW -->
<svg xmlns="http://www.w3.org/2000/svg" xml:space="preserve" width="23.0715mm" height="14.555mm" version="1.1" style="shape-rendering:geometricPrecision; text-rendering:geometricPrecision; image-rendering:optimizeQuality; fill-rule:evenodd; clip-rule:evenodd"
viewBox="0 0 154.72 97.61"
 xmlns:xlink="http://www.w3.org/1999/xlink"
 xmlns:xodm="http://www.corel.com/coreldraw/odm/2003">
 <defs>
  <style type="text/css">
   <![CDATA[
    .fil0 {fill:black}
    .fil1 {fill:white}
   ]]>
  </style>
 </defs>
 <g id="Capa_x0020_1">
  <metadata id="CorelCorpID_0Corel-Layer"/>
  <polygon class="fil0" points="65.84,56.65 86.26,56.65 86.26,19.96 65.84,19.96 "/>
  <g>
   <path class="fil1" d="M67.14 38.31c0,-7.44 3.49,-14.07 8.91,-18.35 -4.09,-3.23 -9.17,-4.99 -14.38,-4.99 -0.01,0 -0.02,0 -0.03,0 -12.89,0 -23.34,10.45 -23.34,23.33 0,12.89 10.45,23.33 23.33,23.33 5.44,0 10.45,-1.86 14.42,-4.99 -5.43,-4.27 -8.91,-10.9 -8.91,-18.34l0 -0zm0 0l0 0 0 0z"/>
  </g>
  <path class="fil1" d="M113.8 38.31c0,12.89 -10.45,23.33 -23.33,23.33 -0.01,-0 -0.02,-0 -0.04,-0 -5.22,0 -10.29,-1.76 -14.38,-4.99 5.43,-4.27 8.91,-10.9 8.91,-18.35 0,-7.44 -3.49,-14.07 -8.91,-18.35 4.09,-3.23 9.17,-4.99 14.38,-4.99 0.01,0 0.03,0 0.04,0 12.89,0 23.33,10.45 23.33,23.33l-0 -0z"/>
  <path class="fil1" d="M44.54 82.43l0 -5.3c0,-1.99 -1.27,-3.33 -3.31,-3.35 -1.08,-0.02 -2.19,0.32 -2.96,1.5 -0.58,-0.93 -1.5,-1.5 -2.78,-1.5 -0.9,0 -1.78,0.26 -2.47,1.25l0 -1.04 -1.83 0 0 8.44 1.85 0 0 -4.68c0,-1.46 0.81,-2.24 2.06,-2.24 1.22,0 1.83,0.79 1.83,2.22l0 4.7 1.85 0 0 -4.68c0,-1.46 0.85,-2.24 2.06,-2.24 1.25,0 1.85,0.79 1.85,2.22l0 4.7 1.85 0zm27.37 -8.44l-2.99 0 0 -2.56 -1.85 0 0 2.56 -1.71 -0 0 1.68 1.71 0 0 3.85c0,1.96 0.76,3.12 2.92,3.12 0.79,0 1.71,-0.25 2.29,-0.65l-0.53 -1.57c-0.55,0.32 -1.14,0.47 -1.62,0.47 -0.92,0 -1.21,-0.56 -1.21,-1.41l0 -3.81 2.99 0 0 -1.67 0 -0zm15.62 -0.21c-1.06,0 -1.74,0.49 -2.22,1.23l0 -1.02 -1.81 -0 0 8.44 1.83 0 0 -4.73c0,-1.4 0.6,-2.17 1.8,-2.17 0.37,0 0.76,0.05 1.14,0.21l0.57 -1.73c-0.42,-0.15 -0.86,-0.23 -1.3,-0.23l0 0zm-23.62 0.88c-0.88,-0.58 -2.09,-0.88 -3.43,-0.88 -2.13,0 -3.5,1.02 -3.5,2.7 0,1.38 1.02,2.22 2.9,2.49l0.86 0.12c1,0.14 1.48,0.41 1.48,0.88 0,0.65 -0.67,1.02 -1.92,1.02 -1.27,0 -2.18,-0.41 -2.8,-0.88l-0.86 1.43c1,0.74 2.27,1.1 3.65,1.1 2.43,0 3.84,-1.15 3.84,-2.75 0,-1.48 -1.11,-2.26 -2.94,-2.52l-0.86 -0.12c-0.79,-0.11 -1.43,-0.26 -1.43,-0.83 0,-0.62 0.6,-0.99 1.6,-0.99 1.08,0 2.11,0.41 2.62,0.72l0.79 -1.48 -0 -0zm49.07 -0.88c-1.06,0 -1.74,0.49 -2.22,1.23l0 -1.02 -1.81 -0 0 8.44 1.83 0 0 -4.73c0,-1.4 0.6,-2.17 1.8,-2.17 0.37,0 0.76,0.05 1.15,0.21l0.56 -1.73c-0.42,-0.15 -0.86,-0.23 -1.3,-0.23l0 0zm-23.6 4.43c0,2.56 1.78,4.43 4.49,4.43 1.27,0 2.12,-0.28 3.03,-1l-0.88 -1.48c-0.69,0.5 -1.41,0.76 -2.2,0.76 -1.46,-0.02 -2.53,-1.08 -2.53,-2.7 0,-1.62 1.07,-2.68 2.53,-2.7 0.79,0 1.52,0.26 2.2,0.76l0.88 -1.48c-0.92,-0.72 -1.76,-1.01 -3.03,-1.01 -2.71,0 -4.49,1.87 -4.49,4.43l-0 0zm17.16 0l0 -4.22 -1.83 0 0 1.02c-0.58,-0.76 -1.46,-1.24 -2.66,-1.24 -2.36,0 -4.21,1.85 -4.21,4.43 0,2.58 1.85,4.43 4.21,4.43 1.2,0 2.08,-0.48 2.66,-1.24l0 1.02 1.83 0 0 -4.22zm-6.82 0c0,-1.48 0.97,-2.7 2.55,-2.7 1.51,0 2.53,1.16 2.53,2.7 0,1.54 -1.02,2.7 -2.53,2.7 -1.58,0 -2.55,-1.22 -2.55,-2.7zm-22.11 -4.43c-2.47,0 -4.19,1.8 -4.19,4.43 0,2.68 1.8,4.43 4.32,4.43 1.27,0 2.43,-0.32 3.45,-1.18l-0.9 -1.36c-0.69,0.56 -1.56,0.87 -2.45,0.88 -1.18,0 -2.25,-0.55 -2.52,-2.07l6.25 0c0.02,-0.23 0.04,-0.46 0.04,-0.7 -0.02,-2.63 -1.64,-4.43 -4,-4.43l-0 0zm-0.03 1.64c1.18,0 1.94,0.74 2.13,2.05l-4.37 0c0.19,-1.22 0.93,-2.05 2.24,-2.05zm45.95 2.79l0 -7.61 -1.83 0 0 4.41c-0.58,-0.76 -1.46,-1.23 -2.66,-1.23 -2.36,0 -4.21,1.85 -4.21,4.43 0,2.58 1.85,4.43 4.21,4.43 1.2,0 2.08,-0.48 2.66,-1.23l0 1.02 1.83 0 0 -4.22 0 0zm-6.82 0c0,-1.48 0.97,-2.7 2.55,-2.7 1.51,0 2.54,1.16 2.54,2.7 0,1.54 -1.02,2.7 -2.54,2.7 -1.59,0 -2.55,-1.22 -2.55,-2.7zm-61.86 0l0 -4.22 -1.83 0 0 1.02c-0.58,-0.76 -1.46,-1.24 -2.66,-1.24 -2.36,0 -4.21,1.85 -4.21,4.43 0,2.58 1.85,4.43 4.21,4.43 1.2,0 2.08,-0.48 2.66,-1.24l0 1.02 1.83 0 0 -4.22zm-6.82 0c0,-1.48 0.97,-2.7 2.55,-2.7 1.52,0 2.54,1.16 2.54,2.7 0,1.54 -1.02,2.7 -2.54,2.7 -1.58,0 -2.55,-1.22 -2.55,-2.7z"/>
  <path class="fil1" d="M154.72 11.12c0,-7.43 -3.86,-11.12 -11.35,-11.12l-132.02 0c-3.75,0 -6.5,1 -8.31,3.04 -2.05,2.05 -3.04,4.68 -3.04,8.08l0 75.37c0,3.39 1,5.97 3.04,8.08 2.11,2.05 4.8,3.04 8.31,3.04l132.02 0c7.49,0 11.35,-3.75 11.35,-11.12l0 -75.37zm-11.35 -9.36c6.2,0 9.36,3.16 9.36,9.36l0 75.37c0,6.26 -3.16,9.36 -9.36,9.36l-132.02 0c-2.98,0 -5.27,-0.88 -6.96,-2.63 -1.76,-1.7 -2.63,-4.04 -2.63,-6.73l0 -75.37c0,-6.2 3.1,-9.36 9.6,-9.36l132.02 0z"/>
 </g>
</svg>
