<?xml version="1.0" encoding="UTF-8"?>
<!DOCTYPE svg PUBLIC "-//W3C//DTD SVG 1.1//EN" "http://www.w3.org/Graphics/SVG/1.1/DTD/svg11.dtd">
<!-- Creator: CorelDRAW -->
<svg xmlns="http://www.w3.org/2000/svg" xml:space="preserve" width="23.0715mm" height="14.555mm" version="1.1" style="shape-rendering:geometricPrecision; text-rendering:geometricPrecision; image-rendering:optimizeQuality; fill-rule:evenodd; clip-rule:evenodd"
viewBox="0 0 183.65 115.86"
 xmlns:xlink="http://www.w3.org/1999/xlink"
 xmlns:xodm="http://www.corel.com/coreldraw/odm/2003">
 <defs>
  <style type="text/css">
   <![CDATA[
    .fil0 {fill:white}
   ]]>
  </style>
 </defs>
 <g id="Capa_x0020_1">
  <metadata id="CorelCorpID_0Corel-Layer"/>
  <g id="_105553176917792">
   <path class="fil0" d="M183.65 13.2c0,-8.82 -4.58,-13.2 -13.48,-13.2l-156.7 0c-4.45,0 -7.71,1.18 -9.86,3.61 -2.43,2.43 -3.61,5.56 -3.61,9.59l0 89.46c0,4.03 1.18,7.08 3.61,9.59 2.5,2.43 5.7,3.61 9.86,3.61l156.7 0c8.89,0 13.48,-4.45 13.48,-13.2l0 -89.46zm-13.48 -11.11c7.36,0 11.11,3.75 11.11,11.11l0 89.46c0,7.43 -3.75,11.11 -11.11,11.11l-156.7 0c-3.54,0 -6.25,-1.04 -8.27,-3.13 -2.08,-2.01 -3.13,-4.79 -3.13,-7.99l0 -89.46c0,-7.36 3.68,-11.11 11.39,-11.11l156.7 0z"/>
   <path class="fil0" d="M14.73 7.22c-2.99,0 -4.86,0.49 -5.9,1.53 -0.9,1.18 -1.32,3.12 -1.32,5.97l0 19.38 168.65 0 0 -19.38c0,-5.07 -2.5,-7.5 -7.5,-7.5l-153.92 0z"/>
   <path class="fil0" d="M7.5 100.85c0,5.14 2.43,7.78 7.22,7.78l153.92 0c5,0 7.5,-2.64 7.5,-7.78l0 -19.38 -168.65 0 0 19.38z"/>
   <path class="fil0" d="M63.35 42.37c0,0.9 -0.14,1.6 -0.49,2.08l-12.15 21.18 -0.76 -25.84 -19.45 0 6.53 3.13c1.88,1.18 2.85,2.71 2.85,4.65l1.81 27.44 9.52 0 22.78 -35.22 -11.67 0c0.7,0.63 1.04,1.6 1.04,2.57z"/>
   <path class="fil0" d="M141.98 40.84l0.76 -1.04 -11.88 0c0.42,0.42 0.55,0.63 0.55,0.76 -0.14,0.56 -0.42,0.9 -0.55,1.32l-17.3 31.54c-0.42,0.56 -0.83,1.04 -1.32,1.6l9.79 0 -0.49 -1.04c0,-0.9 0.49,-2.57 1.53,-4.93l2.08 -3.89 10.07 0c0.42,3.26 0.69,5.97 0.83,7.99l-0.83 1.88 12.16 0 -1.81 -2.64 -3.61 -31.53zm-7.23 19.38l-7.22 0 6.18 -11.88 1.04 11.88z"/>
   <path class="fil0" d="M104.74 37.99c-3.75,0 -6.95,1.04 -9.79,3.13 -3.13,1.81 -4.65,4.1 -4.65,6.95 0,3.26 1.11,6.11 3.33,8.26l6.74 4.65c2.43,1.74 3.61,3.26 3.61,4.65 0,1.32 -0.63,2.5 -1.81,3.4 -1.18,0.9 -2.5,1.32 -4.17,1.32 -2.43,0 -6.6,-1.74 -12.36,-4.93l0 6.46c4.51,2.71 8.89,4.1 13.13,4.1 4.03,0 7.43,-1.11 10.35,-3.61 3.13,-2.29 4.65,-5 4.65,-7.99 0,-2.5 -1.11,-4.79 -3.61,-7.22l-6.46 -4.65c-2.15,-1.74 -3.33,-3.26 -3.33,-4.44 0,-2.71 1.6,-4.1 4.86,-4.1 2.22,0 5.49,1.25 9.86,3.89l1.32 -6.74c-3.68,-2.08 -7.5,-3.13 -11.67,-3.13z"/>
   <path class="fil0" d="M78.91 75.02c-0.14,-1.46 -0.42,-2.78 -0.56,-4.17l8.82 -28.48 2.08 -2.57 -12.71 0c0.14,0.63 0.28,1.46 0.42,2.08 0,0.63 0,1.39 -0.14,2.08l-8.82 28.2 -1.81 2.85 12.71 0z"/>
  </g>
 </g>
</svg>
