<?xml version="1.0" encoding="UTF-8"?>
<!DOCTYPE svg PUBLIC "-//W3C//DTD SVG 1.1//EN" "http://www.w3.org/Graphics/SVG/1.1/DTD/svg11.dtd">
<!-- Creator: CorelDRAW -->
<svg xmlns="http://www.w3.org/2000/svg" xml:space="preserve" width="96.8449mm" height="17.763mm" version="1.1" style="shape-rendering:geometricPrecision; text-rendering:geometricPrecision; image-rendering:optimizeQuality; fill-rule:evenodd; clip-rule:evenodd"
viewBox="0 0 989.73 181.53"
 xmlns:xlink="http://www.w3.org/1999/xlink"
 xmlns:xodm="http://www.corel.com/coreldraw/odm/2003">
 <defs>
  <style type="text/css">
   <![CDATA[
    .fil1 {fill:#2B2B2A;fill-rule:nonzero}
    .fil0 {fill:#00A0E4;fill-rule:nonzero}
   ]]>
  </style>
 </defs>
 <g id="Capa_x0020_1">
  <metadata id="CorelCorpID_0Corel-Layer"/>
  <path class="fil0" d="M85.67 181.53c-16.27,0 -31.01,-3.47 -44.03,-10.19 -13.01,-6.72 -23.21,-16.27 -30.58,-28.41 -7.37,-11.93 -11.06,-25.59 -11.06,-40.77 0,-15.18 3.69,-28.85 11.06,-40.99 7.37,-11.93 17.57,-21.47 30.58,-28.2 13.01,-6.72 27.76,-10.19 44.03,-10.19 16.27,0 31.01,3.47 44.03,10.19 13.01,6.72 23.21,16.27 30.58,28.2 7.37,12.15 11.06,25.81 11.06,40.99 0,15.18 -3.69,28.85 -11.06,40.77 -7.37,12.15 -17.57,21.69 -30.58,28.41 -13.01,6.72 -27.76,10.19 -44.03,10.19zm0 -41.43c6.29,0 12.15,-1.52 17.35,-4.77 4.99,-3.04 9.11,-7.37 12.15,-13.23 3.04,-5.64 4.55,-12.36 4.55,-19.95 0,-7.59 -1.52,-14.31 -4.55,-20.17 -3.04,-5.64 -7.16,-9.98 -12.15,-13.23 -5.2,-3.04 -11.06,-4.55 -17.35,-4.55 -6.29,0 -12.15,1.52 -17.13,4.55 -5.21,3.25 -9.33,7.59 -12.36,13.23 -3.04,5.86 -4.55,12.58 -4.55,20.17 0,7.59 1.52,14.31 4.55,19.95 3.04,5.86 7.16,10.19 12.36,13.23 4.99,3.25 10.84,4.77 17.13,4.77z"/>
  <path id="_1" class="fil0" d="M623.44 26.24c14.1,0 26.24,2.39 36.65,6.94 10.41,4.55 18.44,11.28 24.07,19.95 5.64,8.68 8.46,18.87 8.46,30.36 0,11.5 -2.82,21.69 -8.46,30.36 -5.64,8.68 -13.66,15.4 -24.07,19.95 -10.41,4.55 -22.56,6.94 -36.65,6.94l-21.9 0 0 37.3 -51.18 0 0 -151.82 73.09 0zm-3.25 75.04c6.94,0 12.15,-1.52 15.62,-4.77 3.47,-3.04 5.2,-7.37 5.2,-13.01 0,-5.64 -1.73,-9.98 -5.2,-13.23 -3.47,-3.04 -8.68,-4.55 -15.62,-4.55l-18.65 0 0 35.57 18.65 0z"/>
  <path id="_2" class="fil1" d="M238.51 57.26c14.53,0 26.46,4.34 35.35,13.23 8.89,8.89 13.23,22.12 13.23,39.91l0 67.67 -49.02 0 0 -59.21c0,-13.66 -4.77,-20.39 -14.53,-20.39 -5.42,0 -9.98,1.95 -13.23,5.64 -3.47,3.9 -5.21,9.98 -5.21,18.22l0 55.74 -49.02 0 0 -118.64 46.63 0 0 11.71c4.55,-4.55 9.98,-8.03 16.05,-10.41 6.07,-2.39 12.58,-3.47 19.74,-3.47z"/>
  <path id="_3" class="fil1" d="M275.97 59.43l49.02 0 0 118.64 -49.02 0 0 -118.64zm24.51 -9.54c-8.89,0 -15.83,-2.39 -21.25,-7.16 -5.42,-4.55 -8.24,-10.63 -8.24,-17.78 0,-7.16 2.82,-13.23 8.24,-18 5.42,-4.55 12.36,-6.94 21.25,-6.94 8.89,0 16.05,2.17 21.47,6.72 5.42,4.55 8.02,10.19 8.02,17.35 0,7.59 -2.6,13.66 -8.02,18.44 -5.42,4.99 -12.58,7.37 -21.47,7.37z"/>
  <path id="_4" class="fil1" d="M376.97 180.23c-13.23,0 -24.94,-2.6 -35.35,-8.02 -10.63,-5.2 -18.87,-12.58 -24.72,-21.9 -5.86,-9.33 -8.89,-19.74 -8.89,-31.67 0,-11.93 3.04,-22.56 8.89,-31.88 5.86,-9.33 14.1,-16.48 24.72,-21.69 10.41,-5.2 22.12,-7.81 35.35,-7.81 13.23,0 25.16,2.6 35.79,7.81 10.41,5.21 18.65,12.36 24.51,21.69 5.86,9.33 8.68,19.95 8.68,31.88 0,11.93 -2.82,22.34 -8.68,31.67 -5.86,9.33 -14.1,16.7 -24.51,21.9 -10.63,5.42 -22.56,8.02 -35.79,8.02zm0 -38.17c5.64,0 10.19,-2.17 13.88,-6.29 3.69,-4.12 5.42,-9.76 5.42,-17.13 0,-7.37 -1.74,-13.01 -5.42,-17.13 -3.69,-4.12 -8.24,-6.07 -13.88,-6.07 -5.64,0 -10.19,1.95 -13.88,6.07 -3.69,4.12 -5.42,9.76 -5.42,17.13 0,7.37 1.73,13.01 5.42,17.13 3.69,4.12 8.24,6.29 13.88,6.29z"/>
  <path id="_5" class="fil1" d="M511.38 57.26c14.53,0 26.46,4.34 35.35,13.23 8.89,8.89 13.23,22.12 13.23,39.91l0 67.67 -49.02 0 0 -59.21c0,-13.66 -4.77,-20.39 -14.53,-20.39 -5.42,0 -9.98,1.95 -13.23,5.64 -3.47,3.9 -5.21,9.98 -5.21,18.22l0 55.74 -49.02 0 0 -118.64 46.63 0 0 11.71c4.55,-4.55 9.98,-8.03 16.05,-10.41 6.07,-2.39 12.58,-3.47 19.74,-3.47z"/>
  <path id="_6" class="fil1" d="M724.23 72.22c8.68,-9.98 21.47,-14.97 38.39,-14.97l0 43.38c-3.9,-0.65 -7.59,-0.87 -10.84,-0.87 -16.7,0 -25.16,8.46 -25.16,25.59l0 52.7 -49.02 0 0 -118.64 46.63 0 0 12.8z"/>
  <path id="_7" class="fil1" d="M744.12 59.43l49.02 0 0 118.64 -49.02 0 0 -118.64zm24.51 -9.54c-8.89,0 -15.83,-2.39 -21.25,-7.16 -5.42,-4.55 -8.24,-10.63 -8.24,-17.78 0,-7.16 2.82,-13.23 8.24,-18 5.42,-4.55 12.36,-6.94 21.25,-6.94 8.89,0 16.05,2.17 21.47,6.72 5.42,4.55 8.02,10.19 8.02,17.35 0,7.59 -2.6,13.66 -8.02,18.44 -5.42,4.99 -12.58,7.37 -21.47,7.37z"/>
  <path id="_8" class="fil1" d="M864.86 57.26c14.53,0 26.46,4.34 35.35,13.23 8.89,8.89 13.23,22.12 13.23,39.91l0 67.67 -49.02 0 0 -59.21c0,-13.66 -4.77,-20.39 -14.53,-20.39 -5.42,0 -9.98,1.95 -13.23,5.64 -3.47,3.9 -5.21,9.98 -5.21,18.22l0 55.74 -49.02 0 0 -118.64 46.63 0 0 11.71c4.55,-4.55 9.98,-8.03 16.05,-10.41 6.07,-2.39 12.58,-3.47 19.74,-3.47z"/>
  <path id="_9" class="fil1" d="M989.73 173.94c-7.37,4.12 -17.35,6.29 -30.15,6.29 -16.7,0 -29.5,-4.12 -38.39,-12.15 -8.89,-8.02 -13.45,-19.95 -13.45,-36l0 -30.36 -16.27 0 0 -35.79 16.27 0 0 -33.18 49.02 0 0 33.18 24.29 0 0 35.79 -24.29 0 0 29.93c0,3.69 0.87,6.51 2.82,8.46 1.95,1.95 4.34,3.04 7.37,3.04 4.12,0 7.81,-1.08 11.06,-3.25l11.71 34.05z"/>
 </g>
</svg>
