<?xml version="1.0" encoding="iso-8859-1"?>
<!-- Generator: Adobe Illustrator 16.0.0, SVG Export Plug-In . SVG Version: 6.00 Build 0)  -->
<!DOCTYPE svg PUBLIC "-//W3C//DTD SVG 1.1//EN" "http://www.w3.org/Graphics/SVG/1.1/DTD/svg11.dtd" [
	<!ENTITY ns_flows "http://ns.adobe.com/Flows/1.0/">
	<!ENTITY ns_extend "http://ns.adobe.com/Extensibility/1.0/">
	<!ENTITY ns_ai "http://ns.adobe.com/AdobeIllustrator/10.0/">
	<!ENTITY ns_graphs "http://ns.adobe.com/Graphs/1.0/">
]>
<svg xmlns:x="http://ns.adobe.com/Extensibility/1.0/" xmlns:i="http://ns.adobe.com/AdobeIllustrator/10.0/" xmlns:graph="http://ns.adobe.com/Graphs/1.0/" xmlns="http://www.w3.org/2000/svg" xmlns:xlink="http://www.w3.org/1999/xlink" xmlns:a="http://ns.adobe.com/AdobeSVGViewerExtensions/3.0/" version="1.1" x="0px" y="0px" width="226.771px" height="45px" viewBox="0 0 226.771 45" enable-background="new 0 0 226.771 45" xml:space="preserve">
<g id="web" display="none">
</g>
<g id="CERDITO_AZUL" display="none">
</g>
<g id="CERDITO_AZUL_copia_2" display="none">
</g>
<g id="Capa_17" display="none">
</g>
<g id="LOGO_BLANCO" display="none">
</g>
<g id="LOGO_NEGRO" display="none">
</g>
<g id="slogan" display="none">
</g>
<g id="_x30_2-CERBUNA__UNI" display="none">
</g>
<g id="_x30_3-ACTUR" display="none">
</g>
<g id="_x30_5-CENTRO_RINS" display="none">
</g>
<g id="_x30_6-MONCLOA_MADRID" display="none">
</g>
<g id="_x30_8-GALAXIA" display="none">
</g>
<g id="_x31_1-ALCALA" display="none">
</g>
<g id="_x31_2-BARCELONA_PEDRAL" display="none">
</g>
<g id="_x31_3-SEVILLA" display="none">
</g>
<g id="PALETA" display="none">
</g>
<g id="logo_clc" display="none">
</g>
<g id="logo_clc_copia" display="none">
</g>
<g id="online">
	<g>
		<g>
			<g>
				<g>
					<g>
						<path fill="#466EB5" d="M21.862,44.13h-0.156l-0.146-0.055c-1.919-0.731-2.869-1.646-3.34-2.4        c-1.005,0.629-2.723,1.287-5.066,0.676l-0.445-0.116l-0.145-0.438c-0.721-2.176,0.705-4.701,1.405-5.933        c-3.415-3.293-4.521-7.46-3.287-12.391l0.025-0.082c0.965-2.682,2.946-4.647,5.886-5.84l0.639,1.571        c-2.461,0.998-4.114,2.615-4.918,4.804c-1.616,6.539,1.824,9.772,2.957,10.837c0.339,0.319,0.585,0.55,0.574,0.972        c-0.006,0.272-0.118,0.469-0.388,0.945c-0.479,0.84-1.54,2.7-1.38,4.139c2.521,0.433,3.883-1.079,3.897-1.095l1.565-1.784        l-0.081,2.373c0-0.001,0-0.001,0-0.001c0.003,0,0.124,1.146,2.533,2.112c0.014-0.004,0.021-0.007,0.021-0.007        c0.01-0.007,0.251-0.19,0.316-1.745l0.126-2.946l1.457,2.562c0.179,0.313,0.78,0.535,1.258,0.643        c0.109-0.343,0.224-0.855,0.203-1.302c-0.039-0.844,0.068-1.308,0.371-1.601l0.277-0.267l0.622,0.028l0.129,0.081l0,0        c0.006,0,0.619,0.262,1.872,0.025l1.107-0.209l-0.106,1.121c-0.129,1.365,0.266,2.735,0.527,3.465        c0.736-0.132,2.098-0.607,3.045-2.303l0.586-1.047l0.792,0.903c0.555,0.635,1.699,0.966,3.482,1.005        c0.103-1.413,0.73-3.046,1.707-3.211c0.05-0.008,0.271-0.039,0.524,0.05c0.399,0.013,0.734,0.327,1.02,0.593        c0.566,0.531,1.581,1.479,2.986,1.624c0.426-0.868,0.218-2.643-0.023-3.517c-0.039-0.125-0.284-0.588-0.445-0.895        c-0.743-1.406-1.234-2.335-0.343-2.836l0.161-0.089c0.433-0.419,1.524-2.089,2.347-3.509l0.118-0.203l0.206-0.115        c0.856-0.474,1.812-1.315,1.812-1.765c-0.062-1.097-0.534-1.802-0.671-1.983c-0.266-0.225-1.088-0.971-1.743-2.107        c-0.565-0.983-0.915-1.279-0.92-1.282l-1.362-0.979l1.619-0.498c0.095-0.032,2.342-0.819,2.451-3.383        c-0.374-0.798-0.433-1.744-0.429-2.534c-1.007,0.643-2.495,1.32-4.153,1.32c-1.384,0-2.342,0.379-2.848,1.127        c-0.34,0.503-0.361,1.02-0.361,1.025l0.001,1.103l-3.204-0.852l0.265-0.845c0.01-0.034,0.283-1.006-0.35-1.85        c-0.722-0.96-2.386-1.468-4.812-1.468c-0.525,0-1.176-0.121-1.849-0.539c-0.03,0.262-0.084,0.521-0.172,0.769l-0.099,0.199        c-0.323,0.472-0.403,0.994-0.436,1.346c-0.029,0.327,0.147,0.737,0.279,1.035c0.151,0.351,0.323,0.748,0.093,1.17        l-0.202,0.365l-0.448,0.087c-0.133,0.021-0.206,0.012-0.511-0.024c-0.606-0.071-2.227-0.263-4.198-0.237l-0.022-1.694        c1.379-0.016,2.575,0.063,3.417,0.141c-0.078-0.303-0.127-0.643-0.094-0.996c0.026-0.297,0.104-1.183,0.65-2.041        c0.141-0.508,0.089-1.31-0.144-2.128c-0.076-0.269-0.281-0.987,0.415-1.284c0.163-0.069,0.728-0.24,1.143,0.473        c0.649,1.119,1.362,1.664,2.177,1.664c3.046,0,5.128,0.731,6.188,2.175c0.431,0.587,0.623,1.2,0.695,1.739        c0.052-0.094,0.109-0.188,0.174-0.283c0.577-0.854,1.783-1.872,4.251-1.872c1.987,0,3.738-1.345,4.099-1.705        c0.504-0.506,0.98-0.377,1.165-0.297c0.648,0.282,0.629,0.941,0.599,1.774c-0.024,0.745-0.06,1.869,0.31,2.525l0.11,0.195        v0.222c0,2.39-1.344,3.892-2.543,4.662c0.156,0.225,0.332,0.499,0.524,0.829c0.602,1.046,1.397,1.684,1.404,1.689l0.113,0.107        c0.104,0.119,1.018,1.214,1.12,3.094c0.001,1.541-1.768,2.751-2.477,3.175c-1.238,2.122-2.002,3.148-2.503,3.647        c0.141,0.299,0.351,0.696,0.483,0.949c0.321,0.609,0.508,0.967,0.582,1.236c0.043,0.155,1.012,3.765-0.579,5.42l-0.245,0.255        l-0.354,0.005c-0.025,0-0.05,0-0.072,0c-2.262,0-3.775-1.416-4.505-2.1c-0.012-0.011-0.024-0.021-0.035-0.032        c-0.217,0.458-0.46,1.335-0.357,2.096l0.126,0.938l-0.945,0.022c-2.216,0.051-3.758-0.223-4.812-0.882        c-1.863,2.455-4.44,2.381-4.563,2.375l-0.513-0.021l-0.219-0.464c-0.039-0.084-0.84-1.808-0.922-3.846        c-0.33,0.017-0.616,0.003-0.862-0.024c0.016,0.991-0.355,2.325-0.778,2.752c-0.188,0.192-0.419,0.285-0.686,0.286        c-0.015-0.001-0.883-0.042-1.745-0.406C23.648,43.243,23.145,44.13,21.862,44.13z M39.954,39.297        c-0.015-0.013-0.029-0.025-0.042-0.034c0.015,0.012,0.035,0.023,0.056,0.034C40.139,39.296,39.916,39.297,39.954,39.297z"/>
					</g>
					<g>
						<path fill="#466EB5" d="M8.448,19.055c-0.073,0.058-0.126,0.122-0.16,0.179c-0.043,0.063-0.08,0.128-0.11,0.196        c-0.064,0.131-0.101,0.277-0.103,0.388c-0.008,0.081-0.029,0.181-0.021,0.238c0.001,0.063,0.007,0.127,0.013,0.195        c0.008,0.132,0.038,0.253,0.086,0.355c0.165,0.409,2.216,0.62,2.31,0.553c0.194-0.12,0.319-0.366,0.245-0.467        c-0.053-0.082-0.232-0.109-0.44-0.121l0.153,0.035c-0.072,0.032-0.154,0.041-0.21,0.072c-0.064,0.025-0.175,0.11-0.144,0.104        c0.024-0.009,0.076-0.047,0.088-0.08c0.021-0.019,0.019-0.026,0.035,0.005c0.009,0.021,0.032,0.066,0.053,0.116        c0.046,0.099,0.102,0.228,0.167,0.361l0.206,0.427l0.792,0.549l-0.326,0.375c0.081,0.155,0.16,0.329,0.255,0.464l-0.016,0.131        c-0.132,0.029-0.244,0.007-0.352-0.012c-0.105-0.026-0.21-0.054-0.306-0.094c-0.196-0.075-0.373-0.173-0.546-0.279        c-0.336-0.225-1.129-1.207-1.206-1.449c-0.04-0.12-0.069-0.25-0.08-0.408c-0.014-0.148-0.003-0.339,0.055-0.534        c0.071-0.202,0.208-0.408,0.379-0.527c0.169-0.125,0.332-0.179,0.481-0.209c0.289-0.049,0.514-0.005,0.725,0.055l0.152,0.035        c0.137,0.101,0.271,0.207,0.392,0.36c0.117,0.139,0.221,0.361,0.211,0.573c-0.006,0.104-0.024,0.207-0.064,0.286        c-0.034,0.087-0.086,0.15-0.129,0.22c-0.101,0.122-0.201,0.23-0.309,0.328c-0.104,0.1-0.21,0.195-0.317,0.295l-0.172,0.153        c-0.055,0.045-0.09,0.087-0.162,0.142c-0.261,0.205-0.586,0.349-0.912,0.375l-0.01,0.001l-0.05-0.004        c-0.205-0.018-0.413-0.051-0.62-0.124c-0.202-0.073-0.408-0.173-0.595-0.313c-0.376-0.275-0.648-0.734-0.696-1.188        c-0.025-0.227-0.009-0.446,0.038-0.649c0.019-0.1,0.056-0.201,0.096-0.301c0.039-0.109,0.08-0.167,0.121-0.247        c0.104-0.208,0.251-0.354,0.408-0.475c0.083-0.058,0.171-0.106,0.26-0.146c0.103-0.042,0.198-0.059,0.281-0.062L8.448,19.055z        "/>
					</g>
				</g>
			</g>
			<path fill="#466EB5" d="M15.733,22.647l-0.002-0.026c3.624-2.372,10.07-2.016,10.07-2.016l0.637,1.785     c0,0-5.8-0.535-10.476,1.867c0.003,0.045,0,0,0,0L15.733,22.647z"/>
			<polygon display="none" fill="#214497" stroke="#231F20" stroke-width="0.3701" stroke-miterlimit="10" points="18.77,11.372      24.626,14.463 18.449,17.026    "/>
			<polygon display="none" fill="#214497" stroke="#231F20" stroke-width="0.3701" stroke-miterlimit="10" points="22.116,7.662      26.627,9.863 21.867,11.688    "/>
			<polygon display="none" fill="#214497" stroke="#231F20" stroke-width="0.3701" stroke-miterlimit="10" points="25.616,5.534      29.302,6.978 25.414,8.175    "/>
			<polygon display="none" fill="#214497" stroke="#231F20" stroke-width="0.3701" stroke-miterlimit="10" points="26.049,6.19      28.009,6.925 25.941,7.532    "/>
			<polygon display="none" fill="#214497" stroke="#231F20" stroke-width="0.3701" stroke-miterlimit="10" points="22.593,8.423      25.414,9.779 22.439,10.904    "/>
			<polygon display="none" fill="#214497" stroke="#231F20" stroke-width="0.3701" stroke-miterlimit="10" points="19.296,12.192      23.523,14.409 19.066,16.247    "/>
			<g display="none">
				<path display="inline" fill="#214497" stroke="#231F20" stroke-width="0.0463" stroke-miterlimit="10" d="M12.692,29.328h0.335      l0.274,1.597l0.293-1.597h0.204l0.287,1.578l0.274-1.578h0.334L14.2,32.134h-0.215l-0.291-1.599l-0.296,1.599h-0.216      L12.692,29.328z"/>
				<path display="inline" fill="#214497" stroke="#231F20" stroke-width="0.0463" stroke-miterlimit="10" d="M14.738,29.328h0.333      l0.273,1.597l0.292-1.597h0.206l0.287,1.578l0.274-1.578h0.335l-0.495,2.806h-0.216l-0.29-1.599l-0.297,1.599h-0.214      L14.738,29.328z"/>
				<path display="inline" fill="#214497" stroke="#231F20" stroke-width="0.0463" stroke-miterlimit="10" d="M16.782,29.328h0.334      l0.272,1.597l0.293-1.597h0.204l0.289,1.578l0.273-1.578h0.336l-0.496,2.806h-0.216l-0.289-1.599l-0.298,1.599h-0.214      L16.782,29.328z"/>
				<path display="inline" fill="#214497" stroke="#231F20" stroke-width="0.0463" stroke-miterlimit="10" d="M19.162,31.399      c0.054,0,0.101,0.039,0.14,0.116c0.038,0.079,0.056,0.174,0.056,0.285c0,0.114-0.018,0.208-0.056,0.287      c-0.039,0.079-0.086,0.119-0.14,0.119s-0.101-0.04-0.138-0.119c-0.04-0.079-0.058-0.173-0.058-0.287      c0-0.111,0.018-0.206,0.058-0.285C19.062,31.438,19.108,31.399,19.162,31.399z"/>
				<path display="inline" fill="#214497" stroke="#231F20" stroke-width="0.0463" stroke-miterlimit="10" d="M21.021,29.896      l-0.283,0.322c-0.054-0.115-0.105-0.195-0.158-0.241c-0.052-0.044-0.113-0.066-0.183-0.066c-0.128,0-0.231,0.078-0.31,0.235      c-0.08,0.157-0.12,0.358-0.12,0.604c0,0.237,0.04,0.433,0.115,0.584c0.075,0.15,0.176,0.226,0.299,0.226      c0.153,0,0.271-0.107,0.356-0.322l0.269,0.379c-0.146,0.393-0.351,0.588-0.616,0.588c-0.239,0-0.426-0.146-0.562-0.439      c-0.134-0.292-0.203-0.633-0.203-1.026c0-0.272,0.033-0.522,0.1-0.751c0.064-0.228,0.157-0.409,0.274-0.538      c0.118-0.132,0.249-0.197,0.396-0.197c0.135,0,0.256,0.057,0.362,0.167C20.864,29.533,20.952,29.69,21.021,29.896z"/>
				<path display="inline" fill="#214497" stroke="#231F20" stroke-width="0.0463" stroke-miterlimit="10" d="M21.965,29.255      c0.128,0,0.248,0.067,0.361,0.199c0.113,0.133,0.201,0.312,0.264,0.538c0.063,0.228,0.095,0.474,0.095,0.736      c0,0.265-0.031,0.512-0.096,0.742c-0.063,0.231-0.149,0.411-0.259,0.541c-0.11,0.13-0.231,0.195-0.363,0.195      c-0.195,0-0.363-0.144-0.499-0.43c-0.139-0.287-0.206-0.634-0.206-1.043c0-0.439,0.076-0.805,0.233-1.097      C21.63,29.383,21.789,29.255,21.965,29.255z M21.969,29.918c-0.104,0-0.192,0.076-0.263,0.228      c-0.069,0.152-0.104,0.347-0.104,0.584c0,0.244,0.035,0.442,0.103,0.593c0.069,0.151,0.158,0.228,0.264,0.228      c0.109,0,0.196-0.077,0.268-0.23c0.07-0.152,0.106-0.35,0.106-0.59c0-0.24-0.035-0.436-0.105-0.586      C22.167,29.994,22.079,29.918,21.969,29.918z"/>
				<path display="inline" fill="#214497" stroke="#231F20" stroke-width="0.0463" stroke-miterlimit="10" d="M23.303,29.328v0.31      c0.06-0.128,0.128-0.223,0.199-0.287c0.072-0.063,0.148-0.095,0.229-0.095c0.176,0,0.326,0.139,0.451,0.415      c0.124,0.278,0.187,0.633,0.187,1.065c0,0.418-0.064,0.767-0.192,1.049c-0.128,0.282-0.28,0.422-0.456,0.422      c-0.077,0-0.15-0.029-0.219-0.087c-0.066-0.057-0.134-0.151-0.199-0.282v1.323h-0.338v-3.833H23.303z M23.659,29.905      c-0.106,0-0.196,0.076-0.267,0.228c-0.072,0.151-0.105,0.349-0.105,0.592c0,0.25,0.033,0.452,0.105,0.605      c0.07,0.154,0.16,0.231,0.267,0.231c0.104,0,0.192-0.079,0.264-0.235c0.072-0.156,0.106-0.355,0.106-0.598      c0-0.242-0.034-0.438-0.106-0.592C23.854,29.982,23.766,29.905,23.659,29.905z"/>
				<path display="inline" fill="#214497" stroke="#231F20" stroke-width="0.0463" stroke-miterlimit="10" d="M24.782,28.172      c0.062,0,0.112,0.045,0.154,0.134c0.043,0.089,0.065,0.197,0.065,0.326c0,0.125-0.021,0.231-0.065,0.32      c-0.042,0.089-0.093,0.133-0.149,0.133c-0.062,0-0.114-0.044-0.156-0.135c-0.042-0.091-0.063-0.201-0.063-0.329      c0-0.124,0.021-0.23,0.063-0.318C24.673,28.217,24.724,28.172,24.782,28.172z M24.613,29.328h0.34v2.806h-0.34V29.328z"/>
				<path display="inline" fill="#214497" stroke="#231F20" stroke-width="0.0463" stroke-miterlimit="10" d="M26.094,29.72      l-0.211,0.436c-0.085-0.175-0.163-0.263-0.232-0.263c-0.04,0-0.068,0.016-0.09,0.05c-0.022,0.034-0.031,0.076-0.031,0.125      c0,0.039,0.005,0.073,0.02,0.104c0.013,0.032,0.047,0.077,0.102,0.132l0.125,0.128c0.131,0.133,0.221,0.27,0.271,0.41      c0.049,0.138,0.073,0.302,0.073,0.489c0,0.25-0.044,0.458-0.133,0.625c-0.089,0.167-0.208,0.25-0.357,0.25      c-0.196,0-0.355-0.161-0.473-0.48l0.209-0.472c0.04,0.097,0.087,0.174,0.141,0.233c0.055,0.059,0.101,0.089,0.144,0.089      c0.044,0,0.08-0.023,0.107-0.068c0.028-0.043,0.043-0.096,0.043-0.154c0-0.109-0.05-0.214-0.149-0.317l-0.116-0.119      c-0.22-0.229-0.329-0.515-0.329-0.858c0-0.221,0.042-0.411,0.126-0.57c0.082-0.156,0.187-0.235,0.317-0.235      c0.088,0,0.171,0.04,0.247,0.121C25.975,29.455,26.041,29.57,26.094,29.72z"/>
				<path display="inline" fill="#214497" stroke="#231F20" stroke-width="0.0463" stroke-miterlimit="10" d="M26.428,28.293h0.342      v1.034h0.203v0.606H26.77v2.2h-0.342v-2.2h-0.174v-0.606h0.174V28.293z"/>
				<path display="inline" fill="#214497" stroke="#231F20" stroke-width="0.0463" stroke-miterlimit="10" d="M28.514,30.935H27.42      c0.015,0.2,0.058,0.358,0.127,0.476c0.067,0.117,0.156,0.176,0.263,0.176c0.125,0,0.235-0.091,0.328-0.276l0.286,0.279      c-0.072,0.209-0.156,0.365-0.258,0.465c-0.099,0.1-0.218,0.151-0.354,0.151c-0.213,0-0.387-0.139-0.521-0.417      c-0.133-0.276-0.2-0.625-0.2-1.043c0-0.429,0.066-0.783,0.2-1.066c0.133-0.283,0.301-0.424,0.503-0.424      c0.213,0,0.386,0.142,0.521,0.424c0.134,0.284,0.2,0.656,0.2,1.122L28.514,30.935z M28.174,30.381      c-0.021-0.157-0.069-0.283-0.133-0.383c-0.068-0.098-0.144-0.146-0.231-0.146c-0.097,0-0.179,0.055-0.251,0.165      c-0.043,0.068-0.086,0.19-0.124,0.364H28.174z"/>
				<path display="inline" fill="#214497" stroke="#231F20" stroke-width="0.0463" stroke-miterlimit="10" d="M28.71,29.328h0.291      v0.354c0.032-0.139,0.074-0.245,0.127-0.317c0.052-0.073,0.109-0.109,0.173-0.109c0.045,0,0.089,0.023,0.138,0.072l-0.105,0.606      c-0.041-0.041-0.074-0.061-0.1-0.061c-0.053,0-0.096,0.066-0.132,0.201c-0.036,0.133-0.056,0.396-0.056,0.789l0.002,0.136v1.135      H28.71V29.328z"/>
				<path display="inline" fill="#214497" stroke="#231F20" stroke-width="0.0463" stroke-miterlimit="10" d="M29.74,28.172      c0.06,0,0.111,0.045,0.153,0.134s0.064,0.197,0.064,0.326c0,0.125-0.022,0.231-0.063,0.32c-0.042,0.089-0.093,0.133-0.152,0.133      s-0.111-0.044-0.154-0.135c-0.042-0.091-0.064-0.201-0.064-0.329c0-0.124,0.022-0.23,0.063-0.318      C29.63,28.217,29.681,28.172,29.74,28.172z M29.569,29.328h0.342v2.806h-0.342V29.328z"/>
				<path display="inline" fill="#214497" stroke="#231F20" stroke-width="0.0463" stroke-miterlimit="10" d="M31.222,29.328h0.342      v2.806h-0.342v-0.296c-0.067,0.131-0.135,0.225-0.2,0.282c-0.066,0.058-0.139,0.087-0.217,0.087      c-0.176,0-0.327-0.14-0.455-0.422c-0.128-0.282-0.193-0.63-0.193-1.049c0-0.432,0.063-0.788,0.187-1.065      c0.124-0.276,0.273-0.415,0.451-0.415c0.082,0,0.158,0.032,0.23,0.095c0.07,0.064,0.135,0.159,0.197,0.287V29.328z       M30.862,29.905c-0.104,0-0.19,0.077-0.261,0.231c-0.07,0.153-0.105,0.35-0.105,0.592c0,0.242,0.036,0.442,0.107,0.598      c0.07,0.156,0.156,0.235,0.261,0.235c0.108,0,0.197-0.077,0.267-0.231c0.071-0.154,0.106-0.356,0.106-0.605      c0-0.243-0.035-0.441-0.106-0.592C31.062,29.981,30.97,29.905,30.862,29.905z"/>
				<path display="inline" fill="#214497" stroke="#231F20" stroke-width="0.0463" stroke-miterlimit="10" d="M31.869,28.245h0.341      v3.889h-0.341V28.245z"/>
				<path display="inline" fill="#214497" stroke="#231F20" stroke-width="0.0463" stroke-miterlimit="10" d="M33.156,29.255      c0.128,0,0.249,0.067,0.363,0.199c0.112,0.133,0.199,0.312,0.263,0.538c0.063,0.228,0.095,0.474,0.095,0.736      c0,0.265-0.032,0.512-0.095,0.742c-0.064,0.231-0.15,0.411-0.261,0.541c-0.109,0.13-0.23,0.195-0.364,0.195      c-0.192,0-0.36-0.144-0.497-0.43c-0.14-0.287-0.207-0.634-0.207-1.043c0-0.439,0.078-0.805,0.233-1.097      C32.823,29.383,32.979,29.255,33.156,29.255z M33.161,29.918c-0.104,0-0.193,0.076-0.263,0.228      c-0.07,0.152-0.106,0.347-0.106,0.584c0,0.244,0.036,0.442,0.104,0.593c0.07,0.151,0.156,0.228,0.265,0.228      c0.107,0,0.195-0.077,0.267-0.23c0.072-0.152,0.106-0.35,0.106-0.59c0-0.24-0.034-0.436-0.104-0.586      C33.36,29.994,33.271,29.918,33.161,29.918z"/>
				<path display="inline" fill="#214497" stroke="#231F20" stroke-width="0.0463" stroke-miterlimit="10" d="M34.005,29.328h0.333      l0.274,1.597l0.294-1.597h0.204l0.287,1.578l0.271-1.578h0.338l-0.495,2.806h-0.217l-0.289-1.599l-0.3,1.599h-0.211      L34.005,29.328z"/>
				<path display="inline" fill="#214497" stroke="#231F20" stroke-width="0.0463" stroke-miterlimit="10" d="M37.527,29.896      l-0.281,0.322c-0.055-0.115-0.107-0.195-0.159-0.241c-0.052-0.044-0.113-0.066-0.184-0.066c-0.127,0-0.231,0.078-0.309,0.235      c-0.08,0.157-0.118,0.358-0.118,0.604c0,0.237,0.038,0.433,0.114,0.584c0.076,0.15,0.174,0.226,0.299,0.226      c0.151,0,0.271-0.107,0.356-0.322l0.267,0.379c-0.145,0.393-0.351,0.588-0.615,0.588c-0.24,0-0.426-0.146-0.563-0.439      c-0.135-0.292-0.201-0.633-0.201-1.026c0-0.272,0.031-0.522,0.098-0.751c0.066-0.228,0.157-0.409,0.275-0.538      c0.117-0.132,0.249-0.197,0.396-0.197c0.133,0,0.255,0.057,0.362,0.167C37.373,29.533,37.46,29.69,37.527,29.896z"/>
				<path display="inline" fill="#214497" stroke="#231F20" stroke-width="0.0463" stroke-miterlimit="10" d="M38.472,29.255      c0.129,0,0.249,0.067,0.362,0.199c0.114,0.133,0.2,0.312,0.264,0.538c0.063,0.228,0.096,0.474,0.096,0.736      c0,0.265-0.033,0.512-0.097,0.742c-0.063,0.231-0.148,0.411-0.26,0.541c-0.108,0.13-0.23,0.195-0.363,0.195      c-0.195,0-0.359-0.144-0.498-0.43c-0.138-0.287-0.208-0.634-0.208-1.043c0-0.439,0.079-0.805,0.234-1.097      C38.14,29.383,38.296,29.255,38.472,29.255z M38.479,29.918c-0.106,0-0.193,0.076-0.266,0.228      c-0.069,0.152-0.103,0.347-0.103,0.584c0,0.244,0.033,0.442,0.103,0.593c0.07,0.151,0.158,0.228,0.265,0.228      s0.195-0.077,0.267-0.23c0.07-0.152,0.105-0.35,0.105-0.59c0-0.24-0.035-0.436-0.104-0.586      C38.676,29.994,38.587,29.918,38.479,29.918z"/>
				<path display="inline" fill="#214497" stroke="#231F20" stroke-width="0.0463" stroke-miterlimit="10" d="M40.303,29.72      l-0.211,0.436c-0.086-0.175-0.164-0.263-0.234-0.263c-0.038,0-0.066,0.016-0.088,0.05c-0.022,0.034-0.034,0.076-0.034,0.125      c0,0.039,0.008,0.073,0.021,0.104c0.013,0.032,0.048,0.077,0.101,0.132l0.125,0.128c0.133,0.133,0.223,0.27,0.272,0.41      c0.048,0.138,0.072,0.302,0.072,0.489c0,0.25-0.046,0.458-0.134,0.625c-0.087,0.167-0.205,0.25-0.355,0.25      c-0.198,0-0.355-0.161-0.474-0.48l0.209-0.472c0.04,0.097,0.088,0.174,0.141,0.233c0.056,0.059,0.101,0.089,0.143,0.089      c0.046,0,0.082-0.023,0.109-0.068c0.026-0.043,0.04-0.096,0.04-0.154c0-0.109-0.05-0.214-0.148-0.317l-0.114-0.119      c-0.22-0.229-0.329-0.515-0.329-0.858c0-0.221,0.042-0.411,0.125-0.57c0.083-0.156,0.189-0.235,0.317-0.235      c0.087,0,0.17,0.04,0.248,0.121C40.184,29.455,40.249,29.57,40.303,29.72z"/>
				<path display="inline" fill="#214497" stroke="#231F20" stroke-width="0.0463" stroke-miterlimit="10" d="M40.638,28.293h0.34      v1.034h0.202v0.606h-0.202v2.2h-0.34v-2.2h-0.177v-0.606h0.177V28.293z"/>
				<path display="inline" fill="#214497" stroke="#231F20" stroke-width="0.0463" stroke-miterlimit="10" d="M41.547,31.399      c0.055,0,0.101,0.039,0.14,0.116c0.038,0.079,0.059,0.174,0.059,0.285c0,0.114-0.021,0.208-0.059,0.287      c-0.039,0.079-0.085,0.119-0.14,0.119c-0.054,0-0.1-0.04-0.138-0.119c-0.039-0.079-0.06-0.173-0.06-0.287      c0-0.111,0.021-0.206,0.06-0.285C41.447,31.438,41.493,31.399,41.547,31.399z"/>
				<path display="inline" fill="#214497" stroke="#231F20" stroke-width="0.0463" stroke-miterlimit="10" d="M43.437,30.935h-1.095      c0.017,0.2,0.058,0.358,0.126,0.476c0.069,0.117,0.156,0.176,0.265,0.176c0.126,0,0.235-0.091,0.328-0.276l0.285,0.279      c-0.07,0.209-0.156,0.365-0.257,0.465c-0.098,0.1-0.218,0.151-0.355,0.151c-0.212,0-0.386-0.139-0.519-0.417      c-0.136-0.276-0.201-0.625-0.201-1.043c0-0.429,0.065-0.783,0.201-1.066c0.133-0.283,0.3-0.424,0.501-0.424      c0.215,0,0.387,0.142,0.521,0.424c0.134,0.284,0.199,0.656,0.199,1.122V30.935z M43.096,30.381      c-0.021-0.157-0.066-0.283-0.133-0.383c-0.066-0.098-0.144-0.146-0.23-0.146c-0.095,0-0.178,0.055-0.25,0.165      c-0.046,0.068-0.088,0.19-0.125,0.364H43.096z"/>
				<path display="inline" fill="#214497" stroke="#231F20" stroke-width="0.0463" stroke-miterlimit="10" d="M44.544,29.72      l-0.212,0.436c-0.084-0.175-0.162-0.263-0.232-0.263c-0.038,0-0.068,0.016-0.091,0.05c-0.021,0.034-0.033,0.076-0.033,0.125      c0,0.039,0.008,0.073,0.021,0.104c0.013,0.032,0.049,0.077,0.103,0.132l0.124,0.128c0.131,0.133,0.223,0.27,0.271,0.41      c0.049,0.138,0.072,0.302,0.072,0.489c0,0.25-0.042,0.458-0.132,0.625c-0.089,0.167-0.207,0.25-0.356,0.25      c-0.197,0-0.355-0.161-0.473-0.48l0.208-0.472c0.041,0.097,0.087,0.174,0.141,0.233c0.053,0.059,0.103,0.089,0.144,0.089      c0.045,0,0.081-0.023,0.108-0.068c0.028-0.043,0.043-0.096,0.043-0.154c0-0.109-0.053-0.214-0.15-0.317l-0.116-0.119      c-0.217-0.229-0.33-0.515-0.33-0.858c0-0.221,0.043-0.411,0.126-0.57c0.083-0.156,0.188-0.235,0.317-0.235      c0.089,0,0.17,0.04,0.249,0.121C44.424,29.455,44.49,29.57,44.544,29.72z"/>
			</g>
			<g display="none">
				<path display="inline" fill="#214497" stroke="#231F20" stroke-width="0.0463" stroke-miterlimit="10" d="M13.23,26.65      l-0.24,0.358h-0.343l-0.128,1.016h-0.299l0.125-1.016h-0.455l0.24-0.358H13.23z"/>
				<path display="inline" fill="#214497" stroke="#231F20" stroke-width="0.0463" stroke-miterlimit="10" d="M13.453,28.023h-0.299      l0.172-1.374h0.299L13.453,28.023z"/>
				<path display="inline" fill="#214497" stroke="#231F20" stroke-width="0.0463" stroke-miterlimit="10" d="M14.809,27.671      l-0.237,0.353H13.64l0.172-1.374h1.119l-0.237,0.358h-0.627l-0.021,0.165h0.765l-0.208,0.311h-0.597l-0.021,0.188H14.809z"/>
				<path display="inline" fill="#214497" stroke="#231F20" stroke-width="0.0463" stroke-miterlimit="10" d="M15.844,28.046      c-0.021,0-0.038-0.005-0.057-0.013c-0.016-0.009-0.035-0.029-0.054-0.061l-0.5-0.755l-0.099,0.807h-0.273l0.14-1.14      c0.006-0.045,0.017-0.083,0.028-0.117c0.014-0.033,0.027-0.06,0.045-0.08c0.02-0.021,0.038-0.035,0.061-0.045      c0.021-0.009,0.041-0.014,0.065-0.014c0.018,0,0.036,0.005,0.054,0.013c0.019,0.009,0.036,0.03,0.056,0.06l0.501,0.755      l0.099-0.807h0.272l-0.143,1.138c-0.006,0.045-0.015,0.084-0.029,0.117c-0.013,0.033-0.026,0.059-0.045,0.081      c-0.017,0.021-0.037,0.037-0.057,0.046C15.887,28.041,15.864,28.046,15.844,28.046z"/>
				<path display="inline" fill="#214497" stroke="#231F20" stroke-width="0.0463" stroke-miterlimit="10" d="M17.511,27.232      c0,0.112-0.017,0.215-0.052,0.31c-0.035,0.096-0.084,0.181-0.146,0.251c-0.063,0.071-0.133,0.127-0.216,0.168      c-0.084,0.041-0.17,0.062-0.262,0.062h-0.647l0.107-0.855h0.3l-0.063,0.503h0.349c0.046,0,0.089-0.009,0.129-0.027      s0.073-0.043,0.104-0.076c0.03-0.033,0.054-0.072,0.07-0.119c0.017-0.045,0.025-0.095,0.025-0.15      c0-0.042-0.005-0.082-0.018-0.117c-0.012-0.036-0.029-0.066-0.051-0.092c-0.021-0.027-0.048-0.046-0.078-0.061      s-0.063-0.021-0.101-0.021h-0.647l0.234-0.358h0.459c0.075,0,0.146,0.016,0.206,0.044c0.063,0.028,0.115,0.069,0.161,0.12      c0.044,0.052,0.078,0.112,0.102,0.184C17.499,27.069,17.511,27.147,17.511,27.232z"/>
				<path display="inline" fill="#214497" stroke="#231F20" stroke-width="0.0463" stroke-miterlimit="10" d="M17.979,28.023      l0.227-0.353h0.24c0.028,0,0.061,0,0.092,0c0.03,0,0.057,0.001,0.08,0.003c-0.011-0.024-0.021-0.056-0.037-0.094      c-0.013-0.039-0.025-0.072-0.036-0.105l-0.128-0.364l-0.567,0.912h-0.355l0.777-1.241c0.023-0.04,0.054-0.075,0.088-0.108      c0.035-0.031,0.075-0.046,0.123-0.046c0.045,0,0.082,0.014,0.107,0.044c0.025,0.029,0.048,0.066,0.063,0.11l0.451,1.241H17.979z      "/>
				<path display="inline" fill="#214497" stroke="#231F20" stroke-width="0.0463" stroke-miterlimit="10" d="M20.615,26.628      c0.21,0,0.369,0.046,0.473,0.14c0.104,0.093,0.156,0.241,0.156,0.44c0,0.282-0.066,0.491-0.2,0.629      c-0.132,0.139-0.334,0.208-0.605,0.208c-0.21,0-0.367-0.048-0.472-0.142c-0.105-0.095-0.156-0.242-0.156-0.441      c0-0.281,0.065-0.491,0.198-0.628C20.142,26.696,20.345,26.628,20.615,26.628z M20.483,27.689c0.097,0,0.175-0.006,0.234-0.018      c0.062-0.012,0.109-0.035,0.141-0.068c0.034-0.033,0.057-0.079,0.067-0.135c0.012-0.056,0.019-0.129,0.019-0.216      c0-0.054-0.008-0.1-0.021-0.135c-0.015-0.035-0.037-0.063-0.067-0.082c-0.028-0.021-0.069-0.034-0.116-0.04      c-0.048-0.007-0.103-0.01-0.169-0.01c-0.098,0-0.176,0.007-0.236,0.019c-0.058,0.011-0.106,0.035-0.141,0.067      c-0.032,0.033-0.054,0.077-0.066,0.134c-0.012,0.057-0.017,0.129-0.017,0.216c0,0.056,0.007,0.101,0.021,0.134      c0.016,0.036,0.038,0.063,0.068,0.082c0.029,0.021,0.067,0.034,0.114,0.04C20.36,27.685,20.416,27.689,20.483,27.689z"/>
				<path display="inline" fill="#214497" stroke="#231F20" stroke-width="0.0463" stroke-miterlimit="10" d="M22.278,28.046      c-0.021,0-0.04-0.005-0.056-0.013c-0.018-0.009-0.036-0.029-0.056-0.061l-0.499-0.755l-0.1,0.807h-0.271l0.14-1.14      c0.005-0.045,0.015-0.083,0.028-0.117c0.012-0.033,0.026-0.06,0.045-0.08c0.018-0.021,0.036-0.035,0.059-0.045      c0.021-0.009,0.042-0.014,0.064-0.014c0.018,0,0.038,0.005,0.056,0.013c0.018,0.009,0.036,0.03,0.056,0.06l0.498,0.755      l0.102-0.807h0.273l-0.144,1.138c-0.006,0.045-0.016,0.084-0.028,0.117c-0.014,0.033-0.027,0.059-0.047,0.081      c-0.017,0.021-0.035,0.037-0.058,0.046C22.319,28.041,22.3,28.046,22.278,28.046z"/>
				<path display="inline" fill="#214497" stroke="#231F20" stroke-width="0.0463" stroke-miterlimit="10" d="M23.717,27.671      l-0.24,0.353h-0.854l0.172-1.374h0.296l-0.126,1.021H23.717z"/>
				<path display="inline" fill="#214497" stroke="#231F20" stroke-width="0.0463" stroke-miterlimit="10" d="M24.073,28.023h-0.299      l0.172-1.374h0.298L24.073,28.023z"/>
				<path display="inline" fill="#214497" stroke="#231F20" stroke-width="0.0463" stroke-miterlimit="10" d="M25.237,28.046      c-0.02,0-0.039-0.005-0.055-0.013c-0.018-0.009-0.036-0.029-0.056-0.061l-0.499-0.755l-0.101,0.807h-0.271l0.141-1.14      c0.006-0.045,0.015-0.083,0.027-0.117c0.013-0.033,0.027-0.06,0.046-0.08c0.017-0.021,0.036-0.035,0.058-0.045      c0.021-0.009,0.044-0.014,0.065-0.014c0.018,0,0.037,0.005,0.056,0.013c0.017,0.009,0.037,0.03,0.055,0.06l0.5,0.755      l0.101-0.807h0.272l-0.144,1.138c-0.004,0.045-0.016,0.084-0.028,0.117c-0.014,0.033-0.028,0.059-0.045,0.081      c-0.019,0.021-0.038,0.037-0.06,0.046C25.28,28.041,25.259,28.046,25.237,28.046z"/>
				<path display="inline" fill="#214497" stroke="#231F20" stroke-width="0.0463" stroke-miterlimit="10" d="M26.751,27.671      l-0.238,0.353h-0.931l0.172-1.374h1.119l-0.238,0.358h-0.626l-0.021,0.165h0.765l-0.209,0.311h-0.595l-0.022,0.188H26.751z"/>
			</g>
			<g display="none">
				<path display="inline" fill="#214497" stroke="#231F20" stroke-width="0.0463" stroke-miterlimit="10" d="M19.866,34.184      l-0.227,0.267h-0.466c-0.072,0-0.14-0.012-0.198-0.035s-0.11-0.055-0.152-0.096s-0.075-0.09-0.096-0.146      c-0.025-0.056-0.036-0.116-0.036-0.182c0-0.084,0.017-0.162,0.051-0.233c0.033-0.072,0.08-0.133,0.141-0.185      c0.056-0.052,0.125-0.091,0.203-0.119c0.078-0.028,0.163-0.043,0.251-0.043h0.65l-0.227,0.27h-0.466      c-0.044,0-0.084,0.008-0.121,0.023c-0.039,0.014-0.073,0.034-0.102,0.06s-0.052,0.056-0.068,0.092      c-0.016,0.034-0.025,0.071-0.025,0.113c0,0.032,0.006,0.062,0.019,0.088c0.011,0.027,0.027,0.048,0.048,0.067      c0.021,0.018,0.045,0.032,0.075,0.043c0.027,0.011,0.059,0.015,0.095,0.015H19.866z"/>
				<path display="inline" fill="#214497" stroke="#231F20" stroke-width="0.0463" stroke-miterlimit="10" d="M20.739,33.396      c0.203,0,0.353,0.036,0.454,0.107c0.101,0.07,0.152,0.181,0.152,0.332c0,0.213-0.064,0.374-0.192,0.477      c-0.129,0.105-0.322,0.158-0.581,0.158c-0.203,0-0.354-0.036-0.455-0.107c-0.1-0.072-0.15-0.183-0.15-0.333      c0-0.213,0.064-0.373,0.19-0.477C20.286,33.447,20.479,33.396,20.739,33.396z M20.612,34.198c0.093,0,0.17-0.005,0.229-0.014      c0.057-0.009,0.102-0.027,0.133-0.051c0.033-0.025,0.053-0.059,0.065-0.101c0.011-0.043,0.017-0.099,0.017-0.165      c0-0.041-0.007-0.075-0.02-0.101c-0.014-0.027-0.035-0.047-0.064-0.063c-0.029-0.015-0.066-0.024-0.112-0.029      c-0.044-0.005-0.099-0.009-0.162-0.009c-0.093,0-0.168,0.005-0.225,0.015c-0.059,0.008-0.104,0.026-0.137,0.051      c-0.031,0.025-0.053,0.058-0.063,0.102c-0.011,0.042-0.016,0.098-0.016,0.164c0,0.042,0.007,0.076,0.021,0.102      c0.013,0.026,0.034,0.046,0.062,0.061c0.029,0.015,0.067,0.025,0.112,0.03C20.496,34.196,20.551,34.198,20.612,34.198z"/>
				<path display="inline" fill="#214497" stroke="#231F20" stroke-width="0.0463" stroke-miterlimit="10" d="M22.732,33.747      c0,0.063-0.012,0.124-0.039,0.177c-0.022,0.054-0.056,0.1-0.103,0.139c-0.045,0.039-0.099,0.069-0.164,0.091      c-0.064,0.021-0.138,0.031-0.218,0.031h-0.485l-0.043,0.266h-0.286l0.084-0.531h0.8c0.05,0,0.089-0.012,0.117-0.038      c0.029-0.027,0.044-0.061,0.044-0.101c0-0.029-0.01-0.053-0.032-0.071c-0.021-0.019-0.051-0.028-0.093-0.028h-0.798l0.234-0.27      h0.581c0.064,0,0.122,0.008,0.173,0.024c0.048,0.016,0.091,0.039,0.123,0.069c0.034,0.028,0.06,0.064,0.077,0.104      C22.723,33.652,22.732,33.696,22.732,33.747z"/>
				<path display="inline" fill="#214497" stroke="#231F20" stroke-width="0.0463" stroke-miterlimit="10" d="M23.062,34.451h-0.287      l0.164-1.039h0.287L23.062,34.451z"/>
				<path display="inline" fill="#214497" stroke="#231F20" stroke-width="0.0463" stroke-miterlimit="10" d="M24.199,33.827      c0.101,0,0.176,0.021,0.23,0.06c0.05,0.04,0.077,0.099,0.077,0.178c0,0.055-0.007,0.107-0.025,0.153      c-0.018,0.049-0.043,0.09-0.079,0.124c-0.038,0.036-0.082,0.063-0.143,0.082c-0.058,0.018-0.127,0.028-0.21,0.028h-0.864      l0.227-0.267h0.704c0.038,0,0.066-0.007,0.084-0.022c0.018-0.015,0.026-0.037,0.026-0.067c0-0.042-0.028-0.062-0.088-0.062      h-0.505c-0.107,0-0.185-0.023-0.233-0.067c-0.049-0.046-0.073-0.107-0.073-0.182c0-0.054,0.009-0.103,0.024-0.148      c0.018-0.045,0.045-0.084,0.081-0.118s0.083-0.06,0.142-0.079c0.057-0.018,0.125-0.027,0.205-0.027h0.808l-0.227,0.27h-0.644      c-0.04,0-0.066,0.006-0.085,0.021c-0.018,0.012-0.027,0.034-0.027,0.065c0,0.039,0.029,0.059,0.089,0.059H24.199z"/>
				<path display="inline" fill="#214497" stroke="#231F20" stroke-width="0.0463" stroke-miterlimit="10" d="M25.811,33.413      l-0.229,0.27h-0.33l-0.122,0.769h-0.287l0.12-0.769h-0.435l0.23-0.27H25.811z"/>
				<path display="inline" fill="#214497" stroke="#231F20" stroke-width="0.0463" stroke-miterlimit="10" d="M26.855,34.184      l-0.229,0.267h-0.892l0.162-1.039h1.075l-0.229,0.27h-0.599l-0.021,0.125h0.735l-0.201,0.236h-0.569l-0.023,0.141H26.855z"/>
				<path display="inline" fill="#214497" stroke="#231F20" stroke-width="0.0463" stroke-miterlimit="10" d="M28.228,34.451h-0.385      l-0.163-0.274h-0.441l-0.043,0.274h-0.287l0.082-0.531h0.81c0.023,0,0.047-0.003,0.067-0.009      c0.022-0.006,0.041-0.016,0.058-0.026c0.017-0.012,0.029-0.026,0.038-0.043c0.01-0.016,0.016-0.036,0.016-0.056      c0-0.035-0.013-0.06-0.037-0.077c-0.026-0.017-0.061-0.026-0.104-0.026h-0.809l0.231-0.27h0.596      c0.048,0,0.099,0.004,0.149,0.014c0.051,0.01,0.095,0.026,0.135,0.05c0.042,0.024,0.076,0.057,0.102,0.098      c0.026,0.041,0.039,0.091,0.039,0.153c0,0.046-0.007,0.091-0.021,0.133c-0.015,0.042-0.035,0.082-0.062,0.116      c-0.026,0.033-0.059,0.063-0.096,0.087c-0.037,0.023-0.077,0.04-0.12,0.049c0.012,0.014,0.024,0.031,0.042,0.051      c0.019,0.02,0.037,0.05,0.063,0.084L28.228,34.451z"/>
				<path display="inline" fill="#214497" stroke="#231F20" stroke-width="0.0463" stroke-miterlimit="10" d="M28.622,34.451h-0.287      l0.164-1.039h0.286L28.622,34.451z"/>
				<path display="inline" fill="#214497" stroke="#231F20" stroke-width="0.0463" stroke-miterlimit="10" d="M29.194,34.451      l0.217-0.267h0.23c0.029,0,0.059,0,0.086,0c0.029,0,0.057,0.001,0.08,0.002c-0.011-0.018-0.023-0.042-0.034-0.07      c-0.015-0.028-0.025-0.056-0.036-0.08l-0.125-0.274l-0.544,0.689h-0.34l0.743-0.939c0.024-0.03,0.053-0.056,0.087-0.081      s0.074-0.036,0.117-0.036c0.044,0,0.078,0.011,0.104,0.033c0.024,0.022,0.046,0.05,0.063,0.083l0.432,0.939H29.194z"/>
				<path display="inline" fill="#214497" stroke="#231F20" stroke-width="0.0463" stroke-miterlimit="10" d="M31.301,34.451      l0.217-0.267h0.231c0.028,0,0.059,0,0.086,0c0.03,0,0.057,0.001,0.078,0.002c-0.01-0.018-0.021-0.042-0.032-0.07      c-0.016-0.028-0.027-0.056-0.038-0.08l-0.124-0.274l-0.543,0.689h-0.34l0.743-0.939c0.025-0.03,0.054-0.056,0.087-0.081      c0.031-0.024,0.071-0.036,0.118-0.036c0.041,0,0.077,0.011,0.103,0.033c0.024,0.022,0.046,0.05,0.063,0.083l0.431,0.939H31.301z      "/>
				<path display="inline" fill="#214497" stroke="#231F20" stroke-width="0.0463" stroke-miterlimit="10" d="M34.286,33.853      c0,0.084-0.018,0.163-0.051,0.234c-0.036,0.072-0.081,0.135-0.142,0.19c-0.059,0.055-0.129,0.097-0.206,0.127      c-0.079,0.03-0.162,0.046-0.251,0.046h-0.622l0.103-0.647h0.288l-0.061,0.38h0.333c0.046,0,0.087-0.006,0.124-0.02      c0.038-0.014,0.072-0.033,0.1-0.058c0.03-0.024,0.051-0.054,0.068-0.088c0.015-0.035,0.026-0.073,0.026-0.114      c0-0.032-0.008-0.062-0.02-0.088c-0.012-0.027-0.026-0.05-0.048-0.07c-0.021-0.02-0.046-0.035-0.075-0.047      c-0.028-0.01-0.062-0.016-0.098-0.016h-0.619l0.225-0.27h0.439c0.071,0,0.138,0.01,0.198,0.033      c0.062,0.021,0.112,0.052,0.153,0.09c0.043,0.039,0.074,0.086,0.099,0.139C34.273,33.729,34.286,33.788,34.286,33.853z"/>
				<path display="inline" fill="#214497" stroke="#231F20" stroke-width="0.0463" stroke-miterlimit="10" d="M35.157,33.396      c0.201,0,0.354,0.036,0.454,0.107c0.1,0.07,0.149,0.181,0.149,0.332c0,0.213-0.064,0.374-0.19,0.477      c-0.127,0.105-0.321,0.158-0.583,0.158c-0.201,0-0.353-0.036-0.453-0.107c-0.101-0.072-0.148-0.183-0.148-0.333      c0-0.213,0.062-0.373,0.189-0.477C34.704,33.447,34.896,33.396,35.157,33.396z M35.029,34.198c0.094,0,0.17-0.005,0.229-0.014      c0.057-0.009,0.101-0.027,0.135-0.051c0.029-0.025,0.052-0.059,0.063-0.101c0.011-0.043,0.017-0.099,0.017-0.165      c0-0.041-0.007-0.075-0.019-0.101c-0.016-0.027-0.036-0.047-0.065-0.063c-0.03-0.015-0.067-0.024-0.112-0.029      s-0.1-0.009-0.161-0.009c-0.096,0-0.17,0.005-0.228,0.015c-0.056,0.008-0.102,0.026-0.134,0.051      c-0.032,0.025-0.052,0.058-0.065,0.102c-0.011,0.042-0.016,0.098-0.016,0.164c0,0.042,0.007,0.076,0.021,0.102      c0.013,0.026,0.035,0.046,0.063,0.061c0.029,0.015,0.066,0.025,0.111,0.03C34.913,34.196,34.968,34.198,35.029,34.198z"/>
				<path display="inline" fill="#214497" stroke="#231F20" stroke-width="0.0463" stroke-miterlimit="10" d="M36.519,33.799      c0.025,0.071,0.044,0.132,0.062,0.181c0.016,0.051,0.03,0.094,0.04,0.129c0.011-0.019,0.021-0.038,0.034-0.057      c0.012-0.019,0.024-0.042,0.04-0.065s0.033-0.051,0.054-0.08c0.019-0.031,0.041-0.066,0.069-0.106l0.195-0.295      c0.022-0.033,0.047-0.059,0.074-0.08c0.028-0.02,0.063-0.03,0.102-0.03c0.036,0,0.067,0.011,0.092,0.036      c0.025,0.023,0.04,0.059,0.046,0.107l0.09,0.913H37.13l-0.031-0.362c-0.004-0.059-0.008-0.111-0.012-0.155      c-0.001-0.044-0.004-0.088-0.005-0.13c-0.009,0.017-0.021,0.037-0.032,0.057c-0.012,0.019-0.024,0.039-0.04,0.063      c-0.013,0.023-0.029,0.047-0.047,0.075c-0.018,0.026-0.035,0.057-0.058,0.092l-0.165,0.261      c-0.017,0.025-0.032,0.047-0.046,0.061c-0.013,0.015-0.028,0.027-0.042,0.036c-0.017,0.008-0.031,0.014-0.046,0.016      c-0.015,0.003-0.03,0.004-0.049,0.004c-0.018,0-0.033-0.001-0.047-0.004c-0.016-0.002-0.028-0.007-0.039-0.016      c-0.013-0.008-0.023-0.021-0.034-0.036c-0.011-0.014-0.019-0.036-0.027-0.061l-0.081-0.262      c-0.012-0.036-0.023-0.067-0.031-0.095c-0.009-0.028-0.017-0.053-0.022-0.075c-0.008-0.022-0.013-0.043-0.018-0.062      c-0.006-0.019-0.01-0.038-0.015-0.054c-0.014,0.037-0.031,0.081-0.05,0.129c-0.018,0.047-0.037,0.101-0.06,0.156l-0.144,0.362      h-0.283l0.385-0.913c0.021-0.048,0.048-0.084,0.082-0.107c0.033-0.024,0.069-0.036,0.104-0.036c0.038,0,0.065,0.011,0.089,0.029      c0.022,0.021,0.04,0.045,0.051,0.081L36.519,33.799z"/>
				<path display="inline" fill="#214497" stroke="#231F20" stroke-width="0.0463" stroke-miterlimit="10" d="M37.813,34.451h-0.287      l0.164-1.039h0.286L37.813,34.451z"/>
				<path display="inline" fill="#214497" stroke="#231F20" stroke-width="0.0463" stroke-miterlimit="10" d="M39.216,34.184      l-0.227,0.267h-0.468c-0.069,0-0.136-0.012-0.196-0.035c-0.059-0.023-0.109-0.055-0.153-0.096      c-0.041-0.041-0.074-0.09-0.098-0.146c-0.022-0.056-0.034-0.116-0.034-0.182c0-0.084,0.016-0.162,0.052-0.233      c0.033-0.072,0.079-0.133,0.138-0.185c0.058-0.052,0.127-0.091,0.207-0.119c0.078-0.028,0.161-0.043,0.25-0.043h0.651      l-0.228,0.27h-0.466c-0.044,0-0.085,0.008-0.123,0.023c-0.038,0.014-0.071,0.034-0.101,0.06      c-0.028,0.026-0.05,0.056-0.068,0.092c-0.016,0.034-0.023,0.071-0.023,0.113c0,0.032,0.007,0.062,0.018,0.088      c0.013,0.027,0.027,0.048,0.048,0.067c0.021,0.018,0.046,0.032,0.074,0.043c0.029,0.011,0.061,0.015,0.096,0.015H39.216z"/>
				<path display="inline" fill="#214497" stroke="#231F20" stroke-width="0.0463" stroke-miterlimit="10" d="M39.564,34.451h-0.285      l0.164-1.039h0.286L39.564,34.451z"/>
				<path display="inline" fill="#214497" stroke="#231F20" stroke-width="0.0463" stroke-miterlimit="10" d="M40.794,34.184      l-0.229,0.267h-0.821l0.167-1.039h0.283l-0.12,0.771H40.794z"/>
				<path display="inline" fill="#214497" stroke="#231F20" stroke-width="0.0463" stroke-miterlimit="10" d="M41.138,34.451H40.85      l0.167-1.039h0.286L41.138,34.451z"/>
				<path display="inline" fill="#214497" stroke="#231F20" stroke-width="0.0463" stroke-miterlimit="10" d="M42.133,33.396      c0.202,0,0.354,0.036,0.453,0.107c0.101,0.07,0.151,0.181,0.151,0.332c0,0.213-0.064,0.374-0.193,0.477      c-0.128,0.105-0.321,0.158-0.581,0.158c-0.202,0-0.353-0.036-0.454-0.107c-0.099-0.072-0.149-0.183-0.149-0.333      c0-0.213,0.064-0.373,0.192-0.477C41.678,33.447,41.872,33.396,42.133,33.396z M42.004,34.198c0.095,0,0.169-0.005,0.229-0.014      c0.058-0.009,0.103-0.027,0.134-0.051c0.032-0.025,0.053-0.059,0.064-0.101c0.012-0.043,0.017-0.099,0.017-0.165      c0-0.041-0.007-0.075-0.02-0.101c-0.013-0.027-0.034-0.047-0.064-0.063c-0.028-0.015-0.066-0.024-0.112-0.029      c-0.045-0.005-0.098-0.009-0.161-0.009c-0.094,0-0.17,0.005-0.227,0.015c-0.058,0.008-0.103,0.026-0.134,0.051      c-0.031,0.025-0.054,0.058-0.065,0.102c-0.009,0.042-0.014,0.098-0.014,0.164c0,0.042,0.005,0.076,0.019,0.102      c0.014,0.026,0.034,0.046,0.064,0.061c0.027,0.015,0.063,0.025,0.111,0.03C41.889,34.196,41.942,34.198,42.004,34.198z"/>
			</g>
		</g>
		
			<ellipse fill="none" stroke="#EE314B" stroke-width="1.1837" stroke-miterlimit="10" cx="19.801" cy="14.179" rx="5.472" ry="4.741"/>
		
			<ellipse fill="none" stroke="#EE314B" stroke-width="1.1837" stroke-miterlimit="10" cx="26.186" cy="5.767" rx="3.742" ry="3.232"/>
	</g>
</g>
<g id="logo_clc_1_" display="none">
</g>
<g id="LOGO_ONLINE_LARGO">
	<g>
		<path fill="#466EB5" d="M58.187,22.807c0.013-2.277,0.623-4.038,1.833-5.287c1.209-1.246,2.879-1.87,5.008-1.87h1.287v1.8h-1.525    c-1.467,0-2.595,0.5-3.381,1.502c-0.786,1.003-1.193,2.288-1.219,3.855c0.025,1.568,0.433,2.852,1.219,3.854    c0.786,1.002,1.914,1.502,3.381,1.502h1.525v1.8h-1.287c-2.129,0-3.799-0.624-5.008-1.871    C58.81,26.845,58.199,25.084,58.187,22.807z"/>
		<path fill="#466EB5" d="M68.594,22.868c0.014-1.131,0.18-2.154,0.497-3.067c0.316-0.913,0.759-1.694,1.329-2.341    c0.567-0.647,1.248-1.146,2.041-1.492c0.792-0.348,1.679-0.521,2.656-0.521c0.965,0,1.847,0.174,2.646,0.521    c0.799,0.347,1.483,0.845,2.053,1.492c0.568,0.647,1.011,1.428,1.328,2.341c0.318,0.913,0.483,1.936,0.496,3.067    c-0.013,1.132-0.177,2.147-0.486,3.046c-0.311,0.9-0.751,1.663-1.318,2.291c-0.568,0.627-1.251,1.111-2.052,1.452    c-0.798,0.341-1.688,0.511-2.667,0.511c-0.978,0-1.865-0.17-2.666-0.511c-0.8-0.341-1.483-0.825-2.052-1.452    c-0.569-0.627-1.007-1.391-1.318-2.291C68.77,25.015,68.607,24,68.594,22.868z M79.638,22.868    c-0.015-0.764-0.122-1.485-0.326-2.167c-0.206-0.682-0.503-1.277-0.892-1.789c-0.392-0.511-0.863-0.917-1.419-1.216    c-0.556-0.3-1.184-0.45-1.884-0.45s-1.327,0.15-1.884,0.45c-0.554,0.299-1.025,0.705-1.417,1.216    c-0.39,0.512-0.687,1.107-0.892,1.789c-0.205,0.683-0.314,1.404-0.328,2.167c0.014,0.777,0.123,1.5,0.328,2.167    c0.205,0.669,0.502,1.248,0.892,1.738c0.392,0.491,0.863,0.879,1.417,1.166c0.557,0.286,1.184,0.429,1.884,0.429    s1.328-0.143,1.884-0.429s1.027-0.675,1.419-1.166c0.389-0.491,0.686-1.069,0.892-1.738    C79.516,24.368,79.623,23.646,79.638,22.868z"/>
		<path fill="#466EB5" d="M85.982,29.963h-1.863v-9.406c0-1.607,0.418-2.862,1.258-3.762c0.84-0.899,1.953-1.349,3.34-1.349    c1.48,0,2.627,0.437,3.441,1.309c0.813,0.872,1.218,1.983,1.218,3.333c0,0.845-0.147,1.581-0.444,2.208    c-0.299,0.626-0.698,1.111-1.2,1.452c-0.503,0.341-1.038,0.593-1.604,0.757c-0.569,0.164-1.164,0.245-1.785,0.245h-1.488V22.95    h1.707c0.884,0,1.582-0.276,2.09-0.828c0.51-0.552,0.764-1.244,0.764-2.076c0-0.817-0.234-1.489-0.703-2.015    c-0.471-0.524-1.141-0.787-2.012-0.787c-0.846,0-1.51,0.297-1.993,0.89s-0.724,1.373-0.724,2.341V29.963z"/>
		<path fill="#466EB5" d="M97.322,29.963h-1.864V15.65h1.864V29.963z"/>
		<path fill="#466EB5" d="M107.096,15.65v1.8h-3.508c-1.336,0-2.003,0.559-2.003,1.676c0,0.601,0.294,1.108,0.883,1.524    c0.587,0.416,1.384,0.815,2.387,1.196c0.449,0.177,0.833,0.358,1.151,0.542c0.316,0.184,0.635,0.426,0.951,0.726    c0.318,0.3,0.555,0.685,0.713,1.155c0.16,0.47,0.238,1.012,0.238,1.626c0,0.681-0.138,1.292-0.415,1.83    c-0.279,0.539-0.635,0.96-1.071,1.268c-0.436,0.307-0.883,0.538-1.34,0.694c-0.455,0.157-0.9,0.243-1.336,0.256    c-0.187,0.014-0.451,0.021-0.793,0.021h-3.094v-1.8h3.034c0.897,0,1.632-0.194,2.201-0.582c0.567-0.389,0.851-0.958,0.851-1.707    c0-0.369-0.078-0.692-0.236-0.972c-0.159-0.279-0.388-0.521-0.684-0.726c-0.3-0.205-0.603-0.381-0.913-0.531    c-0.31-0.15-0.686-0.307-1.12-0.47c-0.118-0.041-0.213-0.075-0.277-0.103c-2.075-0.818-3.113-2.153-3.113-4.008    c0-1.145,0.357-2,1.071-2.565s1.646-0.849,2.796-0.849H107.096z"/>
		<path fill="#466EB5" d="M109.197,17.45v-1.8h8.724v1.8h-3.431v12.513h-1.863V17.45H109.197z"/>
		<path fill="#466EB5" d="M127.597,29.963h-7.89V19.064c0-1.008,0.308-1.819,0.93-2.432c0.422-0.409,0.898-0.675,1.428-0.798    c0.527-0.122,1.176-0.184,1.943-0.184h3.589v1.8h-3.847c-1.455,0-2.18,0.626-2.18,1.881v2.33h4.578v1.8h-4.578v4.702h6.026V29.963    z"/>
		<path fill="#466EB5" d="M129.776,29.963V20.66c0-1.649,0.392-2.93,1.18-3.844c0.787-0.914,1.907-1.37,3.36-1.37    c1.469,0,2.594,0.368,3.382,1.104c0.784,0.737,1.179,1.772,1.179,3.108c0,0.859-0.198,1.561-0.594,2.106    c-0.398,0.546-1.072,0.975-2.023,1.289v0.082c0.99,0.395,1.656,0.957,1.991,1.687c0.339,0.729,0.506,1.933,0.506,3.609v1.534    h-1.862v-2.617c0-1.036-0.285-1.843-0.854-2.423c-0.568-0.579-1.388-0.868-2.459-0.868h-1.07v-1.8h1.131    c1.27,0,2.147-0.266,2.638-0.797c0.488-0.532,0.733-1.165,0.733-1.901c0-0.695-0.242-1.254-0.725-1.677    c-0.481-0.422-1.12-0.634-1.914-0.634c-0.91,0-1.595,0.267-2.051,0.798c-0.457,0.532-0.686,1.404-0.686,2.617v9.303H129.776z"/>
		<path fill="#466EB5" d="M143.118,29.963h-1.863V15.65h1.863V29.963z"/>
		<path fill="#466EB5" d="M147.461,29.963h-1.764v-8.997c0-1.473,0.457-2.726,1.377-3.762c0.919-1.036,2.105-1.554,3.559-1.554h4.54    v14.313h-1.862V17.45h-2.678c-0.965,0-1.734,0.293-2.31,0.879c-0.574,0.586-0.862,1.52-0.862,2.801v1.738    c0.738-0.804,1.797-1.207,3.172-1.207h1.805v1.8h-1.805c-0.768,0-1.391,0.095-1.873,0.286c-0.482,0.191-0.916,0.518-1.299,0.982    V29.963z"/>
	</g>
	<g>
		<path fill="#EE314B" d="M162.129,25.839l1.717-10.493h1.465l-1.716,10.493c-0.08,0.495-0.101,0.894-0.06,1.203    c0.044,0.309,0.15,0.529,0.324,0.659c0.174,0.131,0.352,0.216,0.527,0.257c0.179,0.041,0.42,0.062,0.724,0.062l-0.282,1.728    c-1.217,0-2.029-0.295-2.438-0.884C161.982,28.274,161.896,27.266,162.129,25.839z"/>
		<path fill="#EE314B" d="M168.186,21.168c0.925-1,1.956-1.502,3.097-1.502c0.553,0,1.048,0.134,1.487,0.401    c0.439,0.268,0.805,0.635,1.092,1.101c0.287,0.467,0.484,1.012,0.588,1.636c0.104,0.625,0.098,1.293-0.02,2.006    c-0.117,0.715-0.326,1.382-0.63,2.007c-0.302,0.624-0.671,1.169-1.105,1.635c-0.436,0.466-0.919,0.834-1.452,1.101    c-0.53,0.267-1.08,0.401-1.645,0.401c-0.575,0-1.082-0.134-1.521-0.401c-0.44-0.267-0.802-0.635-1.083-1.101    c-0.282-0.466-0.473-1.012-0.572-1.635c-0.098-0.625-0.088-1.292,0.028-2.007C166.688,23.357,167.266,22.143,168.186,21.168z     M170.998,21.395c-0.759,0-1.422,0.316-1.985,0.946c-0.565,0.631-0.932,1.455-1.099,2.469c-0.166,1.016-0.069,1.839,0.289,2.469    c0.357,0.631,0.918,0.947,1.678,0.947c0.771,0,1.436-0.319,1.998-0.957c0.559-0.637,0.922-1.457,1.085-2.459    c0.165-1,0.07-1.82-0.282-2.458C172.33,21.715,171.771,21.395,170.998,21.395z"/>
		<path fill="#EE314B" d="M182.155,29.954c-0.677-0.782-1.084-1.57-1.228-2.366c-0.141-0.796-0.147-1.968-0.023-3.519h-0.164    c-0.384,1.55-0.776,2.722-1.178,3.519c-0.402,0.795-1.07,1.584-2.001,2.366c-0.671-0.465-1.128-1.31-1.369-2.53    c-0.239-1.221-0.25-2.729-0.033-4.527l0.38-3.024h1.451l-0.351,2.942c-0.271,2.25-0.185,3.882,0.256,4.896    c0.202-0.233,0.396-0.494,0.585-0.782c0.189-0.288,0.359-0.607,0.516-0.956c0.154-0.351,0.289-0.658,0.402-0.927    c0.115-0.267,0.235-0.609,0.365-1.028c0.127-0.418,0.219-0.723,0.27-0.915c0.055-0.191,0.135-0.5,0.242-0.926    c0.107-0.425,0.172-0.666,0.191-0.72h1.564c0.001,0.055-0.014,0.295-0.046,0.72c-0.029,0.426-0.052,0.735-0.062,0.926    c-0.01,0.192-0.019,0.497-0.026,0.915c-0.011,0.419,0,0.762,0.026,1.028c0.025,0.269,0.06,0.577,0.102,0.927    c0.039,0.349,0.106,0.668,0.201,0.956c0.094,0.288,0.202,0.549,0.326,0.782c0.775-1.014,1.395-2.647,1.861-4.896l0.611-2.942    h1.449l-0.607,3.024c-0.37,1.797-0.875,3.306-1.515,4.527C183.713,28.645,182.979,29.489,182.155,29.954z"/>
		<path fill="#EE314B" d="M195.896,27.588l0.779,1.214c-0.877,0.769-1.798,1.152-2.763,1.152c-1.205,0-2.091-0.49-2.658-1.471    c-0.567-0.98-0.729-2.204-0.49-3.673c0.235-1.439,0.817-2.657,1.745-3.651c0.93-0.994,1.957-1.492,3.087-1.492    c0.966,0,1.76,0.385,2.384,1.153l-1.161,1.234c-0.386-0.439-0.887-0.658-1.505-0.658c-0.749,0-1.395,0.312-1.937,0.937    c-0.544,0.625-0.898,1.45-1.067,2.479c-0.166,1.029-0.082,1.855,0.255,2.48c0.339,0.624,0.882,0.936,1.63,0.936    C194.826,28.226,195.394,28.014,195.896,27.588z"/>
		<path fill="#EE314B" d="M200.205,21.168c0.923-1,1.955-1.502,3.096-1.502c0.552,0,1.049,0.134,1.488,0.401    c0.439,0.268,0.803,0.635,1.09,1.101c0.287,0.467,0.484,1.012,0.588,1.636c0.104,0.625,0.098,1.293-0.018,2.006    c-0.117,0.715-0.327,1.382-0.63,2.007c-0.305,0.624-0.673,1.169-1.106,1.635c-0.435,0.466-0.919,0.834-1.451,1.101    c-0.533,0.267-1.08,0.401-1.646,0.401c-0.575,0-1.083-0.134-1.522-0.401c-0.439-0.267-0.799-0.635-1.081-1.101    s-0.474-1.012-0.571-1.635c-0.1-0.625-0.091-1.292,0.027-2.007C198.705,23.357,199.284,22.143,200.205,21.168z M203.018,21.395    c-0.76,0-1.422,0.316-1.988,0.946c-0.563,0.631-0.929,1.455-1.096,2.469c-0.168,1.016-0.07,1.839,0.289,2.469    c0.357,0.631,0.916,0.947,1.678,0.947c0.769,0,1.436-0.319,1.996-0.957c0.561-0.637,0.922-1.457,1.086-2.459    c0.164-1,0.069-1.82-0.281-2.458C204.348,21.715,203.788,21.395,203.018,21.395z"/>
		<path fill="#EE314B" d="M214.391,19.873l-0.283,1.728h-2.883c-0.314,0-0.599,0.076-0.852,0.226    c-0.253,0.151-0.403,0.363-0.447,0.638c-0.027,0.164-0.023,0.312,0.01,0.442c0.033,0.13,0.078,0.237,0.134,0.319    c0.058,0.083,0.151,0.168,0.284,0.257c0.133,0.09,0.236,0.152,0.313,0.186c0.076,0.034,0.397,0.175,0.965,0.422    c0.567,0.247,0.984,0.452,1.25,0.617c0.268,0.164,0.455,0.387,0.567,0.668c0.11,0.282,0.167,0.557,0.167,0.824    c-0.002,0.267-0.023,0.532-0.066,0.792c-0.3,1.838-1.448,2.757-3.445,2.757h-2.818l0.283-1.728h2.816    c1.021,0,1.588-0.343,1.701-1.029c0.053-0.329-0.053-0.604-0.314-0.823c-0.264-0.219-0.596-0.405-1.001-0.556    c-0.403-0.151-0.804-0.325-1.2-0.524c-0.396-0.199-0.708-0.521-0.932-0.967c-0.227-0.446-0.285-0.998-0.178-1.656    c0.137-0.836,0.496-1.478,1.078-1.924c0.585-0.446,1.239-0.668,1.966-0.668H214.391z"/>
		<path fill="#EE314B" d="M215.246,21.601l3.519-3.683l-0.321,1.955h2.2l-0.284,1.728h-2.198l-0.692,4.238    c-0.078,0.48-0.082,0.877-0.007,1.193c0.071,0.315,0.216,0.539,0.435,0.668c0.218,0.131,0.429,0.216,0.633,0.257    c0.205,0.041,0.466,0.062,0.779,0.062l-0.282,1.728c-1.249,0-2.122-0.301-2.619-0.905c-0.499-0.604-0.634-1.604-0.405-3.004    l0.694-4.238H215.246z"/>
	</g>
</g>
</svg>
