<?xml version="1.0" encoding="UTF-8"?>
<!DOCTYPE svg PUBLIC "-//W3C//DTD SVG 1.1//EN" "http://www.w3.org/Graphics/SVG/1.1/DTD/svg11.dtd">
<!-- Creator: CorelDRAW -->
<svg xmlns="http://www.w3.org/2000/svg" xml:space="preserve" width="187.881mm" height="99.4634mm" version="1.1" style="shape-rendering:geometricPrecision; text-rendering:geometricPrecision; image-rendering:optimizeQuality; fill-rule:evenodd; clip-rule:evenodd"
viewBox="0 0 2908.45 1539.72"
 xmlns:xlink="http://www.w3.org/1999/xlink"
 xmlns:xodm="http://www.corel.com/coreldraw/odm/2003">
 <defs>
  <style type="text/css">
   <![CDATA[
    .str0 {stroke:white;stroke-width:3.1;stroke-miterlimit:10}
    .fil1 {fill:black;fill-rule:nonzero}
    .fil0 {fill:fuchsia;fill-rule:nonzero}
    .fil2 {fill:white;fill-rule:nonzero}
   ]]>
  </style>
 </defs>
 <g id="Capa_x0020_1">
  <metadata id="CorelCorpID_0Corel-Layer"/>
  <g id="_105553159150912">
   <path class="fil0" d="M2237.45 33.66c136.02,0 254.51,22.44 355.48,67.31 100.97,44.88 178.79,109.38 233.48,193.52 54.69,84.14 82.03,182.3 82.03,294.48 0,112.18 -27.35,210.34 -82.03,294.48 -54.69,84.14 -132.52,148.64 -233.48,193.52 -100.97,44.87 -219.46,67.31 -355.48,67.31l-212.45 0 0 361.79 -496.41 0 0 -1472.4 708.86 0z"/>
   <path class="fil1" d="M2205.9 761.44c67.31,0 117.79,-15.07 151.45,-45.22 33.66,-30.15 50.48,-72.57 50.48,-127.26 0,-54.69 -16.83,-97.11 -50.48,-127.26 -33.66,-30.15 -84.14,-45.22 -151.45,-45.22l-180.9 0 0 344.96 180.9 0z"/>
   <path class="fil0" d="M830.86 1539.72c-158.46,0 -300.79,-32.95 -427,-98.86 -126.2,-65.91 -225.07,-157.41 -296.58,-274.5 -71.52,-117.09 -107.27,-249.26 -107.27,-396.5 0,-147.24 35.76,-279.41 107.27,-396.5 71.52,-117.09 170.38,-208.59 296.58,-274.5 126.21,-65.91 268.54,-98.86 427,-98.86 158.46,0 300.79,32.95 427,98.86 126.2,65.91 225.07,157.41 296.58,274.5 71.52,117.09 107.27,249.26 107.27,396.5 0,147.24 -35.76,279.41 -107.27,396.5 -71.52,117.09 -170.38,208.59 -296.58,274.5 -126.21,65.91 -268.54,98.86 -427,98.86z"/>
   <path class="fil1" d="M830.86 1137.96c61.7,0 117.44,-15.08 167.22,-45.23 49.78,-30.15 89.4,-72.92 118.84,-128.31 29.45,-55.39 44.17,-120.25 44.17,-194.57 0,-74.32 -14.73,-139.18 -44.17,-194.57 -29.45,-55.39 -69.06,-98.16 -118.84,-128.31 -49.78,-30.15 -105.52,-45.22 -167.22,-45.22 -61.7,0 -117.45,15.07 -167.23,45.22 -49.78,30.15 -89.4,72.92 -118.84,128.31 -29.45,55.39 -44.17,120.25 -44.17,194.57 0,74.32 14.73,139.17 44.17,194.57 29.45,55.39 69.06,98.16 118.84,128.31 49.78,30.15 105.52,45.23 167.23,45.23z"/>
   <g>
    <path class="fil2" d="M1884.53 1356.35c-0.1,0.02 -0.2,0.05 -0.3,0.09 -0.22,0.09 -0.44,0.17 -0.66,0.25 -2.74,1.02 -5.6,1.76 -8.49,2.2 -1.33,0.21 -2.18,1.6 -1.9,3.13 0.29,1.53 1.6,2.61 2.93,2.4 3.18,-0.48 6.33,-1.29 9.34,-2.42 0.24,-0.09 0.48,-0.18 0.73,-0.28 1.25,-0.49 1.83,-2.08 1.3,-3.54 -0.5,-1.35 -1.77,-2.12 -2.95,-1.85zm-44.35 -4.16c-0.74,0.17 -1.36,0.73 -1.64,1.58 -0.47,1.4 0.2,3.06 1.48,3.7 3.34,1.67 6.71,3.08 10,4.2 1.33,0.45 2.65,-0.38 2.95,-1.85 0.29,-1.47 -0.55,-3.04 -1.88,-3.49 -3.08,-1.04 -6.24,-2.37 -9.38,-3.94 -0.51,-0.25 -1.04,-0.31 -1.52,-0.2zm70.36 -19.5c-0.56,0.13 -1.07,0.49 -1.41,1.06 -1.78,3.02 -3.72,5.81 -5.76,8.31 -0.89,1.09 -0.77,2.85 0.27,3.95 1.04,1.09 2.6,1.1 3.48,0.01 2.2,-2.69 4.28,-5.69 6.19,-8.93 0.73,-1.23 0.38,-2.98 -0.77,-3.91 -0.62,-0.5 -1.35,-0.65 -2,-0.5zm-100.77 -3.23c-0.47,0.11 -0.9,0.38 -1.23,0.8 -0.86,1.11 -0.71,2.88 0.35,3.95 2.67,2.71 5.45,5.3 8.24,7.72 1.12,0.97 2.66,0.79 3.44,-0.41 0.77,-1.2 0.49,-2.96 -0.64,-3.93 -2.68,-2.32 -5.34,-4.81 -7.91,-7.41 -0.65,-0.66 -1.5,-0.9 -2.25,-0.72zm113.57 -32.52c-0.84,0.2 -1.53,0.91 -1.74,1.92 -0.72,3.64 -1.56,7.19 -2.5,10.57 -0.4,1.43 0.34,3.06 1.64,3.62 1.31,0.57 2.69,-0.14 3.08,-1.57 0.98,-3.51 1.85,-7.21 2.6,-10.99 0.29,-1.48 -0.55,-3.04 -1.89,-3.49 -0.41,-0.14 -0.83,-0.15 -1.21,-0.07zm-137.93 1.58c-0.29,0.07 -0.58,0.2 -0.83,0.4 -1.08,0.84 -1.28,2.57 -0.44,3.86 2.08,3.22 4.27,6.42 6.49,9.5 0.9,1.24 2.46,1.51 3.49,0.59 1.03,-0.91 1.14,-2.66 0.25,-3.9 -2.16,-3 -4.29,-6.11 -6.31,-9.24 -0.64,-0.99 -1.69,-1.43 -2.64,-1.21zm141.71 -40.77c-1.02,0.24 -1.77,1.21 -1.79,2.46 -0.06,3.74 -0.2,7.51 -0.42,11.2 -0.09,1.52 0.94,2.94 2.3,3.17 1.36,0.22 2.54,-0.83 2.63,-2.36 0.22,-3.77 0.37,-7.63 0.43,-11.46 0.02,-1.53 -1.06,-2.9 -2.42,-3.05 -0.25,-0.03 -0.5,-0.01 -0.73,0.04zm-160.52 5.43c-0.15,0.03 -0.29,0.09 -0.43,0.15 -1.22,0.58 -1.71,2.21 -1.1,3.64 1.53,3.56 3.16,7.12 4.85,10.59 0.68,1.39 2.19,2 3.37,1.33 1.18,-0.66 1.59,-2.32 0.91,-3.72 -1.64,-3.37 -3.23,-6.84 -4.72,-10.31 -0.54,-1.26 -1.77,-1.95 -2.89,-1.69zm158.32 -45.32c-1.16,0.27 -1.94,1.5 -1.76,2.91 0.47,3.76 0.87,7.55 1.18,11.28 0.13,1.54 1.34,2.77 2.7,2.74 1.34,-0.02 2.35,-1.29 2.22,-2.84 -0.32,-3.81 -0.74,-7.69 -1.21,-11.53 -0.19,-1.54 -1.45,-2.71 -2.8,-2.61 -0.11,0.01 -0.23,0.03 -0.34,0.05zm488.8 -117.95c-0.74,0.17 -1.38,0.75 -1.65,1.61 -0.45,1.41 0.23,3.06 1.52,3.68 3.17,1.54 6.34,3.08 9.51,4.64 1.28,0.63 2.7,0 3.15,-1.4 0.46,-1.41 -0.21,-3.06 -1.5,-3.69 -3.17,-1.56 -6.35,-3.11 -9.54,-4.65 -0.5,-0.24 -1.02,-0.29 -1.5,-0.18zm-33.5 -15.74c-0.76,0.18 -1.41,0.77 -1.67,1.67 -0.42,1.42 0.29,3.06 1.59,3.65 3.19,1.46 6.39,2.93 9.58,4.41 1.3,0.6 2.69,-0.06 3.12,-1.48 0.43,-1.42 -0.28,-3.06 -1.57,-3.66 -3.19,-1.49 -6.4,-2.96 -9.61,-4.42 -0.48,-0.22 -0.98,-0.27 -1.44,-0.16zm-626.49 140.83c0,0 0,0 -0,0 -1.31,0.31 -2.07,1.78 -1.69,3.29 0.94,3.76 1.98,7.55 3.08,11.26 0.45,1.49 1.87,2.39 3.14,2 1.29,-0.39 1.97,-1.91 1.53,-3.4 -1.08,-3.62 -2.09,-7.31 -3.01,-10.97 -0.38,-1.51 -1.74,-2.49 -3.06,-2.18zm163.5 -46.65c-0.02,0 -0.02,0.01 -0.04,0.01 -1.31,0.33 -2.04,1.82 -1.64,3.33 0.38,1.43 0.75,2.86 1.11,4.3 0.56,2.24 1.1,4.52 1.6,6.77 0.34,1.52 1.7,2.54 3.01,2.27 1.35,-0.25 2.12,-1.71 1.78,-3.23 -0.51,-2.3 -1.07,-4.63 -1.64,-6.92 -0.37,-1.47 -0.74,-2.93 -1.13,-4.4 -0.4,-1.49 -1.75,-2.44 -3.04,-2.14zm429.25 -109.1c-0.78,0.18 -1.43,0.8 -1.69,1.72 -0.39,1.44 0.35,3.06 1.65,3.62 3.23,1.38 6.44,2.77 9.65,4.17 1.3,0.57 2.69,-0.13 3.09,-1.56 0.4,-1.44 -0.33,-3.06 -1.63,-3.63 -3.22,-1.41 -6.45,-2.8 -9.68,-4.19 -0.47,-0.2 -0.96,-0.24 -1.39,-0.14zm-33.97 -14.11c-0.8,0.19 -1.47,0.83 -1.71,1.78 -0.36,1.45 0.41,3.05 1.73,3.58 3.24,1.3 6.47,2.62 9.71,3.94 1.31,0.54 2.67,-0.2 3.05,-1.64 0.37,-1.44 -0.39,-3.05 -1.71,-3.59 -3.25,-1.33 -6.49,-2.65 -9.74,-3.95 -0.46,-0.18 -0.91,-0.21 -1.34,-0.12zm-565.32 130.2c-1.12,0.26 -1.89,1.41 -1.78,2.77 0.31,3.84 0.72,7.72 1.21,11.55 0.2,1.54 1.46,2.7 2.81,2.6 1.36,-0.11 2.28,-1.43 2.09,-2.97 -0.48,-3.73 -0.88,-7.51 -1.18,-11.25 -0.13,-1.54 -1.33,-2.78 -2.69,-2.76 -0.16,0 -0.31,0.02 -0.46,0.06zm157.2 -45.21c-0.13,0.03 -0.27,0.08 -0.39,0.13 -1.23,0.55 -1.75,2.17 -1.16,3.61 1.44,3.49 2.83,7.07 4.13,10.63 0.54,1.46 1.99,2.24 3.24,1.76 1.26,-0.49 1.84,-2.07 1.3,-3.54 -1.33,-3.63 -2.75,-7.28 -4.21,-10.85 -0.53,-1.29 -1.77,-2 -2.9,-1.74zm-505.53 116.37c-1.2,0.28 -1.97,1.57 -1.75,3 0.24,1.54 1.52,2.66 2.87,2.51 3.34,-0.37 6.71,-0.83 10.01,-1.37 1.33,-0.23 2.17,-1.63 1.87,-3.16 -0.3,-1.53 -1.62,-2.59 -2.96,-2.37 -3.23,0.53 -6.52,0.98 -9.79,1.34 -0.09,0.01 -0.17,0.02 -0.25,0.04zm43.61 -10.19c-0.08,0.02 -0.17,0.04 -0.25,0.07 -3.07,1.12 -6.21,2.17 -9.34,3.13 -1.29,0.39 -1.96,1.92 -1.51,3.41 0.45,1.49 1.86,2.36 3.15,1.99 3.2,-0.98 6.42,-2.05 9.56,-3.2 1.27,-0.46 1.88,-2.03 1.36,-3.5 -0.48,-1.38 -1.77,-2.18 -2.97,-1.9zm-78.77 10.72c-1.04,0.24 -1.8,1.26 -1.79,2.54 0.01,1.54 1.13,2.87 2.5,2.98 3.38,0.27 6.82,0.45 10.21,0.53 1.36,0.04 2.4,-1.19 2.32,-2.73 -0.08,-1.54 -1.25,-2.82 -2.61,-2.85 -3.32,-0.08 -6.67,-0.26 -9.98,-0.52 -0.23,-0.02 -0.45,-0 -0.66,0.05zm110.31 -25.76c-0.21,0.05 -0.42,0.13 -0.61,0.25 -2.81,1.69 -5.71,3.33 -8.63,4.87 -1.2,0.63 -1.63,2.28 -0.98,3.69 0.66,1.41 2.16,2.04 3.35,1.4 2.99,-1.57 5.96,-3.25 8.84,-4.98 1.16,-0.7 1.53,-2.38 0.81,-3.76 -0.59,-1.14 -1.75,-1.71 -2.79,-1.47zm804.31 -189.41c-0.82,0.19 -1.49,0.86 -1.71,1.84 -0.34,1.46 0.46,3.05 1.79,3.54 3.25,1.22 6.51,2.46 9.77,3.7 1.32,0.51 2.67,-0.26 3.01,-1.72 0.34,-1.46 -0.46,-3.05 -1.77,-3.55 -3.27,-1.25 -6.53,-2.49 -9.8,-3.71 -0.44,-0.17 -0.89,-0.19 -1.29,-0.1zm-949.82 209.06c-0.89,0.21 -1.61,0.99 -1.76,2.08 -0.21,1.5 0.71,3.01 2.05,3.37 3.35,0.9 6.76,1.72 10.13,2.44 1.36,0.29 2.58,-0.7 2.73,-2.22 0.15,-1.51 -0.83,-2.98 -2.19,-3.27 -3.29,-0.7 -6.62,-1.51 -9.89,-2.39 -0.37,-0.1 -0.73,-0.1 -1.07,-0.02zm173.79 -40.9c-0.35,0.08 -0.69,0.26 -0.98,0.53 -2.42,2.26 -4.96,4.49 -7.56,6.62 -1.06,0.87 -1.22,2.61 -0.37,3.88 0.86,1.27 2.41,1.59 3.48,0.72 2.67,-2.19 5.28,-4.49 7.77,-6.81 1.01,-0.94 1.08,-2.7 0.16,-3.92 -0.65,-0.87 -1.64,-1.23 -2.51,-1.03zm245.04 -64.43c-0.94,0.22 -1.67,1.08 -1.78,2.23 -0.34,3.78 -0.6,7.63 -0.75,11.43 -0.06,1.53 0.99,2.93 2.36,3.12 1.37,0.19 2.52,-0.89 2.58,-2.42 0.15,-3.7 0.39,-7.44 0.73,-11.12 0.14,-1.52 -0.85,-2.97 -2.21,-3.25 -0.32,-0.07 -0.64,-0.06 -0.93,0.01zm496.63 -116.19c-0.84,0.2 -1.52,0.89 -1.73,1.9 -0.3,1.47 0.53,3.04 1.86,3.5 3.28,1.15 6.55,2.3 9.82,3.47 1.33,0.48 2.66,-0.33 2.97,-1.8 0.31,-1.47 -0.51,-3.04 -1.83,-3.52 -3.28,-1.17 -6.57,-2.33 -9.85,-3.48 -0.42,-0.15 -0.85,-0.17 -1.23,-0.08zm-357.19 74.65c-0.24,0.06 -0.48,0.16 -0.71,0.31 -1.13,0.76 -1.42,2.46 -0.65,3.81 1.86,3.25 3.69,6.6 5.44,9.93 0.72,1.37 2.24,1.91 3.4,1.21 1.16,-0.71 1.52,-2.39 0.8,-3.76 -1.78,-3.41 -3.65,-6.82 -5.55,-10.14 -0.62,-1.07 -1.73,-1.59 -2.73,-1.36zm-592.57 134.34c-0.76,0.17 -1.4,0.76 -1.66,1.65 -0.43,1.42 0.27,3.06 1.56,3.66 3.23,1.5 6.51,2.94 9.76,4.26 1.31,0.54 2.68,-0.2 3.05,-1.65 0.37,-1.45 -0.39,-3.05 -1.71,-3.59 -3.17,-1.3 -6.39,-2.7 -9.54,-4.17 -0.49,-0.23 -1,-0.27 -1.46,-0.17zm231.58 -55.91c-0.5,0.12 -0.95,0.41 -1.29,0.88 -2.05,2.86 -4.12,5.65 -6.18,8.31 -0.86,1.11 -0.7,2.88 0.35,3.95 1.06,1.07 2.61,1.03 3.48,-0.08 2.09,-2.7 4.21,-5.55 6.29,-8.46 0.82,-1.15 0.61,-2.92 -0.48,-3.94 -0.64,-0.61 -1.45,-0.82 -2.17,-0.65zm683.64 -164.69c-0.86,0.2 -1.55,0.92 -1.74,1.96 -0.28,1.48 0.58,3.03 1.92,3.46 3.29,1.07 6.58,2.14 9.87,3.23 1.33,0.44 2.65,-0.4 2.93,-1.88 0.29,-1.48 -0.56,-3.03 -1.9,-3.48 -3.3,-1.09 -6.6,-2.17 -9.9,-3.24 -0.41,-0.13 -0.81,-0.14 -1.18,-0.06zm-455.05 89.49c-0.78,0.18 -1.43,0.79 -1.68,1.7 -1.01,3.58 -1.93,7.24 -2.75,10.86 -0.33,1.46 0.48,3.04 1.8,3.54 1.32,0.49 2.67,-0.3 2.99,-1.76 0.8,-3.52 1.7,-7.08 2.68,-10.57 0.4,-1.43 -0.33,-3.06 -1.63,-3.63 -0.48,-0.21 -0.96,-0.25 -1.41,-0.14zm-492.69 112.71c-0.63,0.15 -1.19,0.58 -1.52,1.26 -0.63,1.31 -0.15,3.03 1.07,3.85 3.03,2.03 6.11,4 9.17,5.87 1.24,0.76 2.71,0.28 3.28,-1.06 0.57,-1.34 0.03,-3.05 -1.21,-3.8 -2.99,-1.83 -6.01,-3.76 -8.98,-5.75 -0.58,-0.39 -1.23,-0.5 -1.81,-0.36zm913.05 -212.98c-0.87,0.2 -1.57,0.96 -1.75,2.01 -0.25,1.49 0.64,3.02 1.98,3.42 3.3,0.99 6.61,1.98 9.91,2.99 1.34,0.41 2.64,-0.46 2.89,-1.95 0.26,-1.49 -0.62,-3.03 -1.96,-3.44 -3.31,-1.01 -6.62,-2.01 -9.94,-3 -0.39,-0.12 -0.77,-0.13 -1.13,-0.04zm-629.08 144.35c-0.57,0.13 -1.08,0.5 -1.42,1.08 -1.83,3.14 -3.64,6.19 -5.39,9.07 -0.74,1.22 -0.42,2.98 0.73,3.92 1.15,0.94 2.68,0.71 3.42,-0.51 1.77,-2.9 3.6,-5.99 5.44,-9.16 0.72,-1.24 0.36,-2.99 -0.8,-3.9 -0.62,-0.49 -1.34,-0.64 -1.99,-0.49zm319.11 -80.4c-0.36,0.09 -0.71,0.27 -1,0.55 -1,0.96 -1.06,2.71 -0.13,3.92 2.25,2.94 4.49,5.97 6.64,9.01 0.88,1.25 2.44,1.53 3.48,0.63 1.04,-0.9 1.16,-2.65 0.28,-3.9 -2.2,-3.11 -4.48,-6.2 -6.79,-9.2 -0.66,-0.85 -1.63,-1.21 -2.49,-1.01zm275.14 -73.9c-0.89,0.21 -1.6,0.99 -1.76,2.07 -0.22,1.5 0.7,3.01 2.04,3.38 3.32,0.91 6.63,1.82 9.95,2.75 1.35,0.38 2.62,-0.53 2.85,-2.03 0.22,-1.49 -0.68,-3.01 -2.03,-3.39 -3.32,-0.93 -6.65,-1.85 -9.98,-2.76 -0.37,-0.1 -0.74,-0.11 -1.07,-0.03zm-371.97 74.73c-0.62,0.15 -1.18,0.57 -1.5,1.24 -1.59,3.25 -3.12,6.59 -4.54,9.91 -0.58,1.34 -0.04,3.05 1.2,3.81 1.24,0.76 2.71,0.29 3.28,-1.06 1.39,-3.24 2.88,-6.5 4.43,-9.66 0.64,-1.3 0.18,-3.03 -1.03,-3.85 -0.59,-0.4 -1.24,-0.52 -1.84,-0.38zm-536.41 124.8c-0.52,0.12 -1,0.44 -1.34,0.95 -0.79,1.18 -0.52,2.94 0.59,3.93 2.77,2.46 5.61,4.88 8.44,7.2 1.14,0.94 2.67,0.72 3.42,-0.51 0.74,-1.22 0.42,-2.98 -0.72,-3.92 -2.77,-2.28 -5.56,-4.66 -8.28,-7.07 -0.64,-0.57 -1.41,-0.75 -2.11,-0.59zm332.16 -77.86c-0.59,0.14 -1.13,0.53 -1.46,1.15 -1.68,3.13 -3.37,6.26 -5.06,9.38 -0.69,1.27 -0.29,3.01 0.89,3.89 1.18,0.88 2.69,0.56 3.38,-0.7 1.69,-3.13 3.38,-6.26 5.07,-9.39 0.68,-1.27 0.28,-3.01 -0.9,-3.88 -0.61,-0.45 -1.3,-0.58 -1.92,-0.44zm541.26 -130.78c-0.91,0.21 -1.62,1.02 -1.76,2.13 -0.19,1.5 0.75,3 2.1,3.33 3.33,0.83 6.66,1.66 9.98,2.51 1.36,0.35 2.61,-0.59 2.8,-2.1 0.2,-1.51 -0.73,-3 -2.08,-3.35 -3.34,-0.85 -6.68,-1.69 -10.02,-2.52 -0.36,-0.09 -0.7,-0.09 -1.02,-0.01zm-266.17 53.72c-0.48,0.11 -0.93,0.4 -1.26,0.84 -0.84,1.13 -0.65,2.9 0.42,3.95 2.59,2.53 5.19,5.16 7.72,7.84 1.04,1.1 2.59,1.1 3.48,0.02 0.89,-1.08 0.77,-2.85 -0.26,-3.95 -2.58,-2.74 -5.24,-5.43 -7.89,-8.02 -0.65,-0.63 -1.47,-0.85 -2.21,-0.68zm231.1 -61.98c-0.93,0.22 -1.65,1.05 -1.78,2.19 -0.16,1.51 0.81,2.99 2.17,3.29 3.34,0.74 6.67,1.5 10.01,2.26 1.36,0.32 2.59,-0.66 2.75,-2.17 0.17,-1.51 -0.79,-2.99 -2.15,-3.3 -3.34,-0.77 -6.69,-1.52 -10.04,-2.28 -0.33,-0.07 -0.66,-0.07 -0.97,0zm-282.77 60.42c-0.49,0.11 -0.93,0.4 -1.27,0.86 -2.09,2.83 -4.13,5.76 -6.08,8.71 -0.78,1.19 -0.51,2.95 0.6,3.93 1.12,0.99 2.66,0.82 3.44,-0.37 1.9,-2.88 3.9,-5.74 5.93,-8.5 0.84,-1.14 0.64,-2.91 -0.43,-3.94 -0.65,-0.63 -1.47,-0.86 -2.2,-0.69zm-205.48 45.93c-0.57,0.13 -1.09,0.5 -1.42,1.09 -1.68,2.93 -3.4,5.97 -5.24,9.29 -0.7,1.26 -0.31,3.01 0.86,3.9 1.17,0.89 2.69,0.59 3.39,-0.66 1.83,-3.3 3.54,-6.33 5.21,-9.23 0.71,-1.25 0.35,-2.99 -0.81,-3.9 -0.61,-0.48 -1.33,-0.63 -1.98,-0.48zm-377.64 83.12c-0.43,0.1 -0.83,0.33 -1.15,0.7 -0.92,1.05 -0.84,2.82 0.17,3.95 2.52,2.8 5.1,5.58 7.65,8.25 1.04,1.09 2.6,1.09 3.48,0 0.88,-1.09 0.76,-2.86 -0.28,-3.95 -2.51,-2.63 -5.04,-5.36 -7.53,-8.12 -0.66,-0.74 -1.55,-1.01 -2.34,-0.83zm830.72 -196.82c-0.95,0.22 -1.69,1.1 -1.78,2.27 -0.12,1.52 0.89,2.97 2.24,3.22 3.35,0.64 6.7,1.3 10.03,1.98 1.36,0.27 2.57,-0.73 2.71,-2.25 0.13,-1.52 -0.86,-2.98 -2.22,-3.25 -3.35,-0.68 -6.72,-1.34 -10.09,-1.98 -0.31,-0.06 -0.62,-0.06 -0.9,0.01zm-223.63 40.74c-0.35,0.08 -0.69,0.26 -0.98,0.53 -2.51,2.35 -4.99,4.8 -7.38,7.3 -0.96,1 -0.96,2.76 0.01,3.94 0.97,1.17 2.53,1.31 3.5,0.31 0.92,-0.96 1.85,-1.91 2.79,-2.85 2.84,2.01 5.68,4.11 8.44,6.26 1.16,0.91 2.69,0.64 3.4,-0.61 0.71,-1.25 0.34,-3 -0.82,-3.9 -2.37,-1.85 -4.8,-3.67 -7.24,-5.42 0.21,-0.2 0.43,-0.41 0.64,-0.6 1.01,-0.95 1.08,-2.7 0.16,-3.92 -0.65,-0.87 -1.63,-1.23 -2.51,-1.03zm188.35 -46.5c-1,0.23 -1.74,1.18 -1.79,2.41 -0.05,1.53 1.01,2.92 2.38,3.09 3.26,0.43 6.64,0.92 10.05,1.43 1.37,0.21 2.53,-0.86 2.6,-2.39 0.07,-1.52 -0.97,-2.93 -2.33,-3.14 -3.44,-0.51 -6.85,-1 -10.13,-1.43 -0.27,-0.03 -0.53,-0.02 -0.78,0.04zm-398.08 88.21c-0.5,0.12 -0.96,0.41 -1.29,0.89 -1.99,2.81 -4,5.76 -5.97,8.74 -0.78,1.19 -0.51,2.95 0.61,3.93 1.12,0.98 2.66,0.82 3.44,-0.37 1.94,-2.95 3.92,-5.85 5.88,-8.62 0.82,-1.15 0.59,-2.93 -0.5,-3.95 -0.64,-0.59 -1.45,-0.8 -2.16,-0.64zm362.73 -91.43c-1.07,0.25 -1.83,1.31 -1.78,2.63 0.06,1.54 1.2,2.84 2.56,2.9 3.26,0.15 6.64,0.36 10.04,0.61 1.36,0.1 2.46,-1.07 2.43,-2.6 -0.02,-1.54 -1.14,-2.87 -2.51,-2.97 -3.44,-0.26 -6.86,-0.46 -10.15,-0.61 -0.2,-0.01 -0.4,0.01 -0.59,0.05zm-124.96 28.08c-0.22,0.05 -0.44,0.14 -0.65,0.28 -2.86,1.78 -5.71,3.69 -8.49,5.65 -1.11,0.79 -1.38,2.5 -0.59,3.83 0.79,1.32 2.33,1.75 3.45,0.97 2.71,-1.92 5.49,-3.78 8.28,-5.53 1.15,-0.72 1.49,-2.41 0.76,-3.78 -0.6,-1.11 -1.74,-1.67 -2.76,-1.43zm-659.98 147.21c-0.35,0.08 -0.67,0.25 -0.96,0.51 -1.02,0.93 -1.1,2.69 -0.2,3.92 2.26,3.05 4.57,6.1 6.88,9.05 0.94,1.2 2.5,1.39 3.49,0.42 0.99,-0.96 1.04,-2.72 0.1,-3.92 -2.27,-2.91 -4.56,-5.92 -6.79,-8.93 -0.65,-0.88 -1.64,-1.26 -2.53,-1.05zm749.73 -174.92c-1.17,0.27 -1.94,1.5 -1.76,2.91 0.2,1.55 1.46,2.71 2.8,2.61 3.25,-0.24 6.59,-0.41 9.94,-0.53 1.36,-0.06 2.34,-1.35 2.18,-2.88 -0.15,-1.54 -1.37,-2.75 -2.73,-2.7 -3.4,0.13 -6.8,0.3 -10.1,0.55 -0.12,0.01 -0.22,0.02 -0.33,0.05zm-151.92 34.54c-0.76,0.18 -1.4,0.76 -1.67,1.64 -0.43,1.42 0.27,3.06 1.57,3.66 3.12,1.44 6.28,3.02 9.38,4.67 1.27,0.67 2.7,0.09 3.2,-1.29 0.5,-1.39 -0.13,-3.06 -1.4,-3.74 -3.19,-1.69 -6.42,-3.3 -9.63,-4.79 -0.49,-0.22 -0.99,-0.27 -1.46,-0.16zm93.52 -22.29c-0.09,0.02 -0.18,0.04 -0.26,0.08 -1.86,0.7 -3.75,1.43 -5.59,2.19 -1.26,0.52 -2.52,1.05 -3.76,1.6 -1.24,0.54 -1.76,2.16 -1.18,3.6 0.58,1.45 2.05,2.17 3.29,1.63 1.22,-0.53 2.44,-1.05 3.67,-1.56 1.81,-0.74 3.65,-1.47 5.46,-2.14 1.27,-0.47 1.87,-2.05 1.35,-3.51 -0.48,-1.38 -1.76,-2.17 -2.96,-1.89zm23.85 -7.13c-1.31,0.3 -2.07,1.78 -1.7,3.28 0.38,1.51 1.74,2.49 3.05,2.2 3.17,-0.74 6.42,-1.41 9.67,-1.99 1.31,-0.24 2.14,-1.67 1.82,-3.19 -0.31,-1.53 -1.65,-2.57 -2.98,-2.33 -3.31,0.61 -6.63,1.28 -9.86,2.04zm-270.01 57.8c-0.39,0.09 -0.76,0.29 -1.07,0.62 -2.36,2.46 -4.72,5.06 -7.02,7.72 -0.92,1.05 -0.84,2.82 0.17,3.95 1.01,1.12 2.57,1.18 3.49,0.12 2.25,-2.6 4.57,-5.14 6.87,-7.55 0.96,-1.01 0.95,-2.77 -0.02,-3.94 -0.66,-0.79 -1.59,-1.11 -2.42,-0.91zm118.18 -40.11c-0.93,0.22 -1.66,1.06 -1.78,2.2 -0.15,1.51 0.83,2.98 2.18,3.28 3.25,0.7 6.57,1.54 9.84,2.49 1.35,0.39 2.63,-0.51 2.86,-2 0.24,-1.49 -0.66,-3.01 -2,-3.4 -3.38,-0.98 -6.8,-1.84 -10.15,-2.57 -0.33,-0.07 -0.65,-0.06 -0.96,0.01zm-91.13 17.01c-0.24,0.06 -0.48,0.16 -0.7,0.31 -2.78,1.87 -5.58,3.9 -8.3,6.02 -1.08,0.84 -1.28,2.58 -0.44,3.87 0.83,1.29 2.38,1.65 3.47,0.81 2.64,-2.06 5.35,-4.04 8.05,-5.85 1.13,-0.76 1.43,-2.46 0.66,-3.8 -0.61,-1.07 -1.73,-1.59 -2.73,-1.36zm55.88 -19.77c-1.17,0.27 -1.94,1.49 -1.76,2.9 0.19,1.54 1.44,2.72 2.79,2.62 3.23,-0.22 6.55,-0.3 9.85,-0.24 1.36,0.02 2.39,-1.2 2.31,-2.75 -0.09,-1.54 -1.26,-2.81 -2.62,-2.84 -3.44,-0.07 -6.88,0.02 -10.23,0.25 -0.11,0.01 -0.23,0.02 -0.34,0.05zm-24.49 4.53c-0.05,0.01 -0.1,0.02 -0.15,0.03 -3.2,1 -6.41,2.15 -9.56,3.44 -1.25,0.51 -1.81,2.11 -1.25,3.56 0.56,1.45 2.01,2.22 3.26,1.7 3.03,-1.24 6.12,-2.35 9.2,-3.31 1.29,-0.4 1.96,-1.92 1.5,-3.42 -0.44,-1.43 -1.76,-2.3 -3.01,-2.01zm-524.41 119.88c-0.28,0.07 -0.56,0.19 -0.8,0.38 -1.09,0.82 -1.31,2.55 -0.49,3.85 1.53,2.43 3.1,4.87 4.65,7.25 0.84,1.29 2.39,1.63 3.47,0.79 1.07,-0.86 1.26,-2.58 0.42,-3.87 -1.54,-2.35 -3.09,-4.76 -4.59,-7.15 -0.64,-1.01 -1.7,-1.47 -2.66,-1.24z"/>
    <path class="fil2 str0" d="M461.48 461.37l256.48 732.96c2.95,8.47 9.93,14.82 18.64,16.97 8.71,2.16 17.84,-0.21 24.42,-6.32l251.12 -233.64 -450.18 -441.66c-1.87,-1.83 -2.04,-4.77 -0.42,-6.81 1.63,-2.04 4.55,-2.52 6.74,-1.11l548.56 352.18 199.98 -186.05c7.16,-6.67 10.03,-16.32 7.66,-25.82 -2.38,-9.5 -9.44,-16.67 -18.9,-19.19l-812.27 -215.87c-9.64,-2.57 -19.46,0.28 -26.25,7.6 -6.79,7.33 -8.86,17.33 -5.57,26.76zm644.74 612.6l-87 -95.3 -36.3 33.77 123.3 61.53zm2.92 -192.87l-504.72 -324.03 415.19 407.32 89.53 -83.29zm29.73 206.09c2.14,-1.08 4.24,-3.53 3.68,-7.16l-28.78 -189.33 -87.1 81.03 104.3 114.24c2.58,2.53 5.76,2.3 7.9,1.22zm-679.29 -659.5c9.39,-10.15 22.97,-14.08 36.34,-10.53l812.27 215.87c13.09,3.48 22.89,13.41 26.16,26.57 3.29,13.15 -0.68,26.52 -10.59,35.75l-200.96 186.95 29.85 196.2c1.12,7.43 -2.48,14.41 -9.19,17.79 -2.5,1.26 -5.16,1.88 -7.78,1.88 -2.92,0 -5.81,-0.79 -8.39,-2.3 0,-0.01 -0.02,-0.01 -0.03,-0.01l-152.3 -76 -207.01 192.58c-6.87,6.4 -15.77,9.84 -24.94,9.84 -2.94,0 -5.91,-0.35 -8.85,-1.08 -12.07,-2.98 -21.72,-11.76 -25.83,-23.49l-256.47 -732.97c-4.57,-13.05 -1.68,-26.9 7.71,-37.04z"/>
   </g>
  </g>
 </g>
</svg>
