<?xml version="1.0" encoding="UTF-8"?>
<!DOCTYPE svg PUBLIC "-//W3C//DTD SVG 1.1//EN" "http://www.w3.org/Graphics/SVG/1.1/DTD/svg11.dtd">
<!-- Creator: CorelDRAW -->
<svg xmlns="http://www.w3.org/2000/svg" xml:space="preserve" width="80.2641mm" height="74.5296mm" version="1.1" style="shape-rendering:geometricPrecision; text-rendering:geometricPrecision; image-rendering:optimizeQuality; fill-rule:evenodd; clip-rule:evenodd"
viewBox="0 0 7992.7 7421.66"
 xmlns:xlink="http://www.w3.org/1999/xlink"
 xmlns:xodm="http://www.corel.com/coreldraw/odm/2003">
 <defs>
  <style type="text/css">
   <![CDATA[
    .fil0 {fill:lime}
   ]]>
  </style>
 </defs>
 <g id="Capa_x0020_1">
  <metadata id="CorelCorpID_0Corel-Layer"/>
  <path class="fil0" d="M2992.17 1671.96l2601.23 0 -272.38 -532.03 -2328.85 532.03zm2873.96 0l768.16 0 -92.58 -405.26c-48.45,-212.04 -261.53,-345.89 -473.53,-297.45l-502.98 114.9 300.93 587.81zm-5518.96 436.48l3981.8 -2038.53c312.85,-160.17 698.7,-35.64 858.9,277.24l263.17 514.04 563.06 -128.62c342.66,-78.26 686.06,137.4 764.32,480.04l104.93 459.35 471.14 0c351.48,0 638.23,286.72 638.23,638.23l0 4473.27c0,351.5 -286.75,638.2 -638.23,638.2l-4473.27 0c-164.92,0 -315.57,-63.11 -429.04,-166.44 -143.68,-53.9 -268.54,-159.26 -343.71,-306.06l-2038.53 -3981.8c-160.19,-312.85 -35.63,-698.73 277.25,-858.93zm5643.26 -193.72l1236 2414.21c11.95,23.36 22.27,47.1 31.1,71.17l-567.78 -2485.38 -699.32 0zm1302.93 2642.22c24.6,253.23 -104.61,508.27 -344.17,630.92l-3456.27 1769.51 3747.62 -856.17c212.06,-48.42 345.88,-261.53 297.44,-473.56l-244.61 -1070.69zm-6835.57 -2232.41l977.89 -500.64c-210.02,143.84 -322.52,406.74 -262.55,669.27l864.76 3785.4 -1751.89 -3421.83c-99.07,-193.58 -21.81,-433.07 171.8,-532.2zm1120.7 -573.77l2861.1 -1464.76c193.6,-99.12 433.06,-21.81 532.19,171.78l235.11 459.19 -3553.73 811.88c-25.62,5.86 -50.52,13.19 -74.67,21.92zm4139.21 163.96l1292.64 2524.88c99.1,193.55 21.81,433.06 -171.81,532.2l-3981.77 2038.52c-87.74,44.93 -184.97,53.61 -274.21,31.64 -60.21,-69.42 -96.81,-159.9 -96.81,-258.49l0 -4473.27c0,-217.54 177.95,-395.47 395.46,-395.47l2836.5 0zm-3474.7 4171.71l0 -3776.23c0,-222.16 114.55,-418.44 287.59,-532.78l-823.38 188.1c-212.09,48.46 -345.89,261.56 -297.44,473.57l833.23 3647.35zm4695.79 -4171.71l811.16 3550.7 0 -3155.22c0,-217.54 -177.96,-395.47 -395.47,-395.47l-415.69 0zm811.16 4024.18c-72.97,194.15 -238.76,349.52 -455.33,398.99l-3681.46 841.01 3741.32 0c217.51,0 395.47,-177.95 395.47,-395.43l0 -844.57z"/>
 </g>
</svg>
