<?xml version="1.0" encoding="UTF-8"?>
<!DOCTYPE svg PUBLIC "-//W3C//DTD SVG 1.1//EN" "http://www.w3.org/Graphics/SVG/1.1/DTD/svg11.dtd">
<!-- Creator: CorelDRAW -->
<svg xmlns="http://www.w3.org/2000/svg" xml:space="preserve" width="123.984mm" height="62.4878mm" version="1.1" style="shape-rendering:geometricPrecision; text-rendering:geometricPrecision; image-rendering:optimizeQuality; fill-rule:evenodd; clip-rule:evenodd"
viewBox="0 0 5237.83 2639.85"
 xmlns:xlink="http://www.w3.org/1999/xlink"
 xmlns:xodm="http://www.corel.com/coreldraw/odm/2003">
 <defs>
  <style type="text/css">
   <![CDATA[
    .fil0 {fill:#3F3F40;fill-rule:nonzero}
    .fil1 {fill:fuchsia;fill-rule:nonzero}
   ]]>
  </style>
 </defs>
 <g id="Capa_x0020_1">
  <metadata id="CorelCorpID_0Corel-Layer"/>
  <g id="_105553219466528">
   <path class="fil0" d="M26.39 102.25l576.53 1647.6c6.64,19.04 22.33,33.3 41.91,38.15 19.58,4.85 40.11,-0.47 54.88,-14.21l564.48 -525.2 -1011.94 -992.78c-4.2,-4.11 -4.58,-10.73 -0.95,-15.31 3.66,-4.59 10.23,-5.67 15.15,-2.5l1233.07 791.66 449.52 -418.21c16.1,-14.99 22.56,-36.69 17.21,-58.05 -5.34,-21.36 -21.22,-37.48 -42.48,-43.13l-1825.86 -485.25c-21.68,-5.77 -43.74,0.62 -59,17.09 -15.27,16.47 -19.92,38.95 -12.52,60.15zm1449.28 1377.05l-195.56 -214.23 -81.6 75.92 277.16 138.31zm6.57 -433.54l-1134.53 -728.37 933.28 915.59 201.25 -187.22zm66.83 463.26c4.81,-2.43 9.54,-7.94 8.28,-16.09l-64.69 -425.59 -195.79 182.14 234.46 256.8c5.8,5.69 12.94,5.16 17.75,2.74zm-1526.95 -1482.46c21.11,-22.8 51.64,-31.65 81.67,-23.67l1825.86 485.25c29.43,7.83 51.45,30.15 58.81,59.71 7.41,29.56 -1.53,59.6 -23.81,80.36l-451.74 420.25 67.09 441.02c2.52,16.69 -5.57,32.38 -20.65,39.98 -5.61,2.84 -11.6,4.23 -17.48,4.22 -6.57,0 -13.05,-1.78 -18.85,-5.17 0,-0.02 -0.04,-0.02 -0.08,-0.03l-342.35 -170.84 -465.32 432.9c-15.46,14.39 -35.46,22.11 -56.06,22.11 -6.6,0 -13.28,-0.8 -19.89,-2.43 -27.14,-6.71 -48.82,-26.45 -58.05,-52.82l-576.5 -1647.6c-10.27,-29.34 -3.78,-60.46 17.33,-83.26z"/>
   <path class="fil1" d="M3394.07 1332.19c0.3,0.02 0.6,0.01 0.91,-0.01 0.68,-0.06 1.37,-0.11 2.07,-0.16 8.58,-0.59 17.24,-0.27 25.75,0.93 3.93,0.53 7.49,-2.68 7.97,-7.22 0.48,-4.55 -2.32,-8.68 -6.24,-9.23 -9.37,-1.32 -18.9,-1.66 -28.33,-1.02 -0.76,0.05 -1.52,0.11 -2.28,0.17 -3.94,0.34 -6.9,4.31 -6.62,8.88 0.27,4.21 3.21,7.45 6.76,7.67zm121.36 48.9c2.21,0.13 4.45,-0.92 5.95,-3.07 2.49,-3.56 2.02,-8.77 -1.06,-11.65 -8.01,-7.51 -16.31,-14.31 -24.64,-20.21 -3.38,-2.39 -7.79,-1.16 -9.85,2.75 -2.06,3.9 -1,9.01 2.37,11.39 7.8,5.53 15.58,11.9 23.1,18.96 1.22,1.14 2.67,1.74 4.12,1.83zm-214.44 -4.11c1.7,0.1 3.43,-0.49 4.86,-1.81 7.54,-7 15.34,-13.24 23.18,-18.57 3.41,-2.32 4.56,-7.39 2.56,-11.34 -2,-3.95 -6.39,-5.27 -9.8,-2.96 -8.44,5.73 -16.82,12.44 -24.9,19.94 -3.08,2.86 -3.58,8.08 -1.1,11.65 1.33,1.92 3.24,2.97 5.21,3.09zm280.97 93.6c1.4,0.09 2.84,-0.3 4.13,-1.23 3.36,-2.4 4.41,-7.51 2.33,-11.4 -5.26,-9.87 -10.89,-19.5 -16.73,-28.63 -2.35,-3.68 -6.83,-4.46 -10.02,-1.73 -3.18,2.72 -3.85,7.91 -1.5,11.59 5.6,8.76 11.01,18.01 16.06,27.48 1.28,2.4 3.46,3.79 5.72,3.92zm-347.01 -3.68c2.54,0.15 5.08,-1.27 6.5,-3.96 5.08,-9.64 10.43,-18.94 15.9,-27.66 2.32,-3.7 1.61,-8.88 -1.59,-11.57 -3.21,-2.69 -7.68,-1.87 -10,1.83 -5.69,9.07 -11.26,18.75 -16.54,28.76 -2.06,3.91 -0.99,9.01 2.38,11.39 1.05,0.74 2.2,1.13 3.35,1.2zm389.65 111.23c0.88,0.05 1.79,-0.08 2.67,-0.43 3.75,-1.47 5.75,-6.17 4.49,-10.51 -3.16,-10.81 -6.63,-21.64 -10.3,-32.19 -1.48,-4.25 -5.64,-6.3 -9.32,-4.6 -3.67,1.71 -5.45,6.54 -3.97,10.79 3.57,10.27 6.95,20.8 10.02,31.32 0.97,3.31 3.57,5.45 6.41,5.62zm-433.15 -4.07c3.06,0.19 5.99,-1.93 7.1,-5.43 3.32,-10.49 6.87,-20.97 10.58,-31.16 1.53,-4.22 -0.18,-9.08 -3.83,-10.85 -3.64,-1.77 -7.84,0.21 -9.37,4.43 -3.79,10.43 -7.43,21.17 -10.82,31.89 -1.36,4.3 0.55,9.06 4.26,10.63 0.69,0.3 1.39,0.46 2.09,0.5zm456.46 119.33c0.44,0.03 0.9,0.01 1.35,-0.06 3.92,-0.62 6.67,-4.79 6.13,-9.32 -1.33,-11.31 -2.93,-22.7 -4.78,-33.87 -0.74,-4.49 -4.48,-7.45 -8.38,-6.58 -3.89,0.86 -6.43,5.2 -5.69,9.7 1.8,10.87 3.36,21.98 4.66,32.99 0.47,4.01 3.34,6.96 6.71,7.16zm-483.73 -5.18c3.51,0.21 6.72,-2.6 7.38,-6.71 1.84,-10.96 3.89,-21.98 6.12,-32.74 0.93,-4.45 -1.45,-8.92 -5.3,-10 -3.8,-1.07 -7.7,1.68 -8.62,6.13 -2.29,11 -4.38,22.26 -6.25,33.47 -0.75,4.49 1.8,8.84 5.68,9.71 0.33,0.07 0.66,0.12 1,0.14zm-1475 -77.86c2.24,0.14 4.51,-0.95 6,-3.14 2.46,-3.59 1.93,-8.8 -1.19,-11.64 -7.64,-6.98 -15.26,-14 -22.88,-21.03 -3.08,-2.86 -7.59,-2.28 -10.05,1.3 -2.48,3.57 -1.98,8.79 1.12,11.65 7.61,7.06 15.28,14.09 22.94,21.1 1.22,1.1 2.62,1.69 4.06,1.77zm81.11 72.41c2.29,0.14 4.61,-1 6.1,-3.29 2.39,-3.65 1.74,-8.85 -1.41,-11.61 -7.77,-6.78 -15.54,-13.59 -23.28,-20.44 -3.15,-2.77 -7.63,-2.07 -10.04,1.56 -2.39,3.64 -1.79,8.84 1.36,11.62 7.74,6.86 15.53,13.7 23.35,20.51 1.17,1.03 2.53,1.57 3.92,1.66zm1881.82 128.92c0,0 0,0 0,0 3.95,0.24 7.32,-3.27 7.52,-7.85 0.52,-11.37 0.77,-22.91 0.76,-34.3 -0,-4.58 -3.27,-8.28 -7.17,-8.28 -3.95,0 -7.16,3.72 -7.16,8.3 0.01,11.09 -0.24,22.34 -0.74,33.42 -0.21,4.57 2.83,8.47 6.78,8.71zm-499.42 -5.78c0.05,0 0.07,0 0.12,0 3.96,0.16 7.27,-3.41 7.41,-7.99 0.12,-4.34 0.3,-8.69 0.49,-13.04 0.31,-6.78 0.69,-13.65 1.17,-20.41 0.3,-4.56 -2.64,-8.56 -6.57,-8.92 -4.02,-0.44 -7.41,3.05 -7.71,7.6 -0.48,6.91 -0.87,13.93 -1.19,20.86 -0.2,4.44 -0.38,8.88 -0.51,13.32 -0.14,4.52 2.87,8.33 6.78,8.57zm-1299.93 -52.83c2.36,0.14 4.71,-1.06 6.21,-3.43 2.29,-3.72 1.57,-8.9 -1.63,-11.57 -7.93,-6.59 -15.8,-13.2 -23.67,-19.84 -3.2,-2.7 -7.68,-1.88 -10,1.82 -2.34,3.7 -1.65,8.88 1.55,11.58 7.9,6.67 15.82,13.3 23.74,19.91 1.15,0.96 2.49,1.47 3.8,1.55zm83.79 68.19c2.41,0.14 4.83,-1.12 6.3,-3.58 2.23,-3.78 1.41,-8.94 -1.86,-11.53 -8.03,-6.38 -16.03,-12.79 -24.03,-19.23 -3.23,-2.61 -7.69,-1.68 -9.97,2.07 -2.25,3.76 -1.46,8.92 1.79,11.54 8.03,6.46 16.05,12.89 24.11,19.29 1.13,0.9 2.4,1.37 3.66,1.45zm1700.69 107.55c3.37,0.2 6.49,-2.38 7.33,-6.31 2.34,-11.06 4.44,-22.35 6.27,-33.54 0.73,-4.5 -1.83,-8.83 -5.71,-9.68 -3.91,-0.82 -7.63,2.12 -8.36,6.61 -1.77,10.9 -3.83,21.89 -6.1,32.67 -0.94,4.45 1.41,8.93 5.26,10.02 0.44,0.13 0.89,0.2 1.33,0.23zm-480.49 -4.55c0.41,0.03 0.82,0.01 1.22,-0.05 3.92,-0.52 6.74,-4.64 6.3,-9.18 -1.12,-11.04 -2.02,-22.27 -2.71,-33.37 -0.3,-4.56 -3.73,-7.98 -7.66,-7.66 -3.96,0.33 -6.92,4.3 -6.62,8.86 0.71,11.34 1.64,22.8 2.75,34.08 0.41,4.08 3.31,7.12 6.72,7.33zm1520.79 96.32c3.62,0.22 6.86,-2.75 7.44,-6.99 0.62,-4.52 -2.05,-8.76 -5.96,-9.48 -9.71,-1.77 -19.58,-3.3 -29.34,-4.54 -3.93,-0.48 -7.47,2.78 -7.9,7.33 -0.44,4.55 2.4,8.64 6.33,9.15 9.54,1.22 19.19,2.71 28.68,4.44 0.25,0.04 0.5,0.07 0.75,0.08zm-131.33 -7.88c0.25,0.01 0.51,0.02 0.76,-0 9.59,-0.58 19.32,-0.91 28.93,-0.97 3.95,-0.03 7.14,-3.76 7.12,-8.34 -0.03,-4.58 -3.27,-8.21 -7.2,-8.24 -9.83,0.07 -19.78,0.4 -29.59,1 -3.95,0.24 -6.98,4.14 -6.78,8.71 0.19,4.28 3.15,7.63 6.76,7.85zm230.74 35.88c3.13,0.19 6.13,-2.04 7.16,-5.66 1.25,-4.34 -0.77,-9.04 -4.53,-10.49 -9.29,-3.58 -18.81,-6.97 -28.3,-10.06 -3.8,-1.24 -7.76,1.33 -8.83,5.74 -1.07,4.41 1.14,8.98 4.95,10.22 9.27,3.02 18.57,6.32 27.65,9.83 0.63,0.25 1.26,0.38 1.89,0.42zm-332.14 -19.99c0.63,0.04 1.28,-0.02 1.93,-0.19 9.33,-2.4 18.88,-4.58 28.38,-6.46 3.9,-0.77 6.52,-5.06 5.85,-9.57 -0.67,-4.51 -4.36,-7.55 -8.26,-6.77 -9.73,1.93 -19.51,4.16 -29.07,6.61 -3.86,1 -6.29,5.42 -5.44,9.89 0.71,3.72 3.48,6.29 6.61,6.48zm-2423.18 -141.28c2.45,0.15 4.93,-1.18 6.36,-3.73 2.18,-3.83 1.27,-8.96 -2.06,-11.47 -8.13,-6.18 -16.26,-12.39 -24.39,-18.62 -3.28,-2.53 -7.73,-1.49 -9.93,2.32 -2.18,3.81 -1.27,8.96 2.01,11.49 8.16,6.25 16.31,12.48 24.47,18.67 1.11,0.84 2.33,1.27 3.54,1.35zm2849.32 207.96c2.7,0.16 5.35,-1.45 6.7,-4.39 1.86,-4.04 0.53,-9.06 -2.96,-11.21 -8.68,-5.34 -17.58,-10.52 -26.45,-15.37 -3.58,-1.95 -7.85,-0.18 -9.53,3.95 -1.69,4.14 -0.16,9.08 3.42,11.03 8.67,4.74 17.37,9.79 25.84,15.01 0.95,0.59 1.97,0.9 2.98,0.97zm-523.57 -30.6c1.07,0.06 2.16,-0.15 3.21,-0.67 8.71,-4.34 17.73,-8.48 26.82,-12.31 3.72,-1.56 5.64,-6.32 4.28,-10.62 -1.35,-4.3 -5.46,-6.51 -9.18,-4.96 -9.35,3.94 -18.63,8.2 -27.6,12.67 -3.63,1.81 -5.31,6.69 -3.74,10.89 1.12,2.99 3.57,4.84 6.21,5zm-743.87 -24.1c2.84,0.17 5.61,-1.63 6.87,-4.8 4.14,-10.36 8.08,-20.98 11.7,-31.56 1.46,-4.25 -0.35,-9.07 -4.02,-10.76 -3.69,-1.69 -7.84,0.4 -9.29,4.66 -3.52,10.3 -7.35,20.62 -11.38,30.7 -1.66,4.16 -0.1,9.08 3.49,11 0.85,0.46 1.74,0.7 2.63,0.76zm-1495.57 -89.39c2.53,0.15 5.03,-1.24 6.46,-3.89 2.09,-3.88 1.06,-8.99 -2.3,-11.42 -8.26,-5.97 -16.5,-11.97 -24.73,-18 -3.33,-2.46 -7.76,-1.3 -9.87,2.56 -2.11,3.87 -1.12,8.99 2.21,11.44 8.26,6.05 16.54,12.07 24.83,18.06 1.06,0.77 2.24,1.18 3.41,1.25zm1068.17 89.4c0.74,0.04 1.5,-0.05 2.25,-0.28 3.81,-1.2 6.07,-5.75 5.04,-10.17 -2.51,-10.72 -4.86,-21.66 -6.98,-32.53 -0.87,-4.46 -4.7,-7.26 -8.56,-6.26 -3.86,1.01 -6.28,5.45 -5.41,9.91 2.17,11.09 4.57,22.27 7.13,33.22 0.83,3.54 3.53,5.92 6.54,6.11zm1780.88 118.74c2.28,0.14 4.58,-0.98 6.07,-3.24 2.4,-3.64 1.81,-8.84 -1.33,-11.62 -7.83,-6.93 -15.87,-13.73 -23.9,-20.19 -3.24,-2.61 -7.71,-1.68 -9.97,2.08 -2.26,3.76 -1.45,8.92 1.8,11.54 7.85,6.31 15.72,12.95 23.37,19.73 1.19,1.05 2.58,1.61 3.97,1.69zm-698.85 -36.81c1.5,0.09 3.02,-0.36 4.36,-1.4 8.16,-6.34 16.35,-12.46 24.36,-18.2 3.36,-2.41 4.4,-7.52 2.32,-11.41 -2.08,-3.89 -6.49,-5.09 -9.86,-2.68 -8.16,5.84 -16.5,12.08 -24.81,18.53 -3.28,2.55 -4.16,7.7 -1.95,11.5 1.31,2.25 3.4,3.53 5.57,3.66zm-2062.72 -109.65c2.58,0.16 5.13,-1.31 6.54,-4.04 2.02,-3.94 0.91,-9.02 -2.5,-11.36 -8.36,-5.76 -16.73,-11.55 -25.07,-17.37 -3.38,-2.36 -7.79,-1.09 -9.83,2.82 -2.04,3.92 -0.96,9.02 2.45,11.38 8.36,5.84 16.75,11.65 25.14,17.42 1.04,0.71 2.15,1.09 3.27,1.15zm1356.13 129.68c2.34,0.14 4.68,-1.04 6.16,-3.38 5.84,-9.24 11.51,-18.75 16.85,-28.26 2.15,-3.84 1.21,-8.97 -2.11,-11.47 -3.32,-2.49 -7.75,-1.4 -9.91,2.44 -5.19,9.26 -10.71,18.51 -16.39,27.5 -2.34,3.69 -1.64,8.88 1.55,11.58 1.16,0.99 2.5,1.5 3.84,1.59zm1481.57 95.87c1.9,0.11 3.84,-0.65 5.33,-2.29 2.86,-3.16 2.96,-8.41 0.22,-11.72 -6.82,-8.25 -13.85,-16.4 -20.88,-24.21 -2.86,-3.17 -7.38,-3.05 -10.13,0.24 -2.74,3.3 -2.64,8.55 0.21,11.72 6.89,7.65 13.77,15.64 20.45,23.71 1.31,1.59 3.04,2.44 4.8,2.55zm-2749.07 -166.09c2.62,0.16 5.22,-1.37 6.62,-4.2 1.95,-3.98 0.72,-9.04 -2.72,-11.29 -8.47,-5.55 -16.94,-11.12 -25.39,-16.73 -3.43,-2.28 -7.82,-0.91 -9.77,3.06 -1.97,3.97 -0.79,9.04 2.64,11.31 8.47,5.62 16.97,11.22 25.48,16.78 1,0.65 2.06,1 3.13,1.06zm1892.06 121.16c1.71,0.11 3.46,-0.5 4.89,-1.85 7.77,-7.32 15.44,-14.38 22.77,-21.01 3.12,-2.81 3.67,-8.03 1.24,-11.63 -2.43,-3.61 -6.94,-4.25 -10.05,-1.43 -7.41,6.69 -15.15,13.84 -23,21.22 -3.07,2.89 -3.53,8.11 -1.04,11.66 1.33,1.89 3.23,2.93 5.18,3.05zm-965.8 -41.26c1.09,0.07 2.21,-0.16 3.27,-0.7 3.61,-1.85 5.25,-6.75 3.65,-10.94 -3.89,-10.16 -7.64,-20.56 -11.14,-30.92 -1.44,-4.26 -5.59,-6.37 -9.28,-4.69 -3.68,1.67 -5.5,6.48 -4.06,10.73 3.58,10.59 7.41,21.22 11.39,31.6 1.13,2.95 3.57,4.77 6.18,4.92zm-836.55 -22.69c2.69,0.16 5.35,-1.44 6.7,-4.36 1.88,-4.03 0.56,-9.05 -2.91,-11.22 -8.6,-5.33 -17.16,-10.7 -25.71,-16.09 -3.49,-2.19 -7.83,-0.71 -9.73,3.31 -1.88,4.02 -0.6,9.05 2.88,11.24 8.58,5.41 17.18,10.79 25.77,16.14 0.95,0.6 1.99,0.92 3,0.98zm1109.87 101.55c1.88,0.11 3.79,-0.63 5.27,-2.23 7.21,-7.82 14.31,-15.92 21.1,-24.1 2.75,-3.3 2.66,-8.54 -0.19,-11.71 -2.85,-3.17 -7.38,-3.08 -10.12,0.22 -6.63,7.97 -13.55,15.87 -20.57,23.49 -2.89,3.13 -3.03,8.37 -0.33,11.71 1.31,1.63 3.06,2.5 4.85,2.61zm1614.79 98.49c1.57,0.09 3.18,-0.41 4.55,-1.55 3.21,-2.67 3.94,-7.85 1.63,-11.57 -5.75,-9.23 -11.7,-18.44 -17.7,-27.35 -2.43,-3.61 -6.93,-4.26 -10.05,-1.44 -3.12,2.81 -3.68,8.02 -1.25,11.63 5.89,8.74 11.74,17.78 17.37,26.84 1.32,2.12 3.35,3.31 5.44,3.44zm-1000.41 -59.37c1.79,0.11 3.61,-0.55 5.07,-2.02 7.37,-7.4 14.73,-14.79 22.11,-22.16 3,-2.99 3.33,-8.23 0.75,-11.69 -2.59,-3.46 -7.11,-3.84 -10.1,-0.86 -7.39,7.38 -14.77,14.79 -22.15,22.2 -2.99,3 -3.3,8.24 -0.71,11.69 1.33,1.77 3.16,2.73 5.03,2.84zm-1633.45 -85.74c2.74,0.17 5.42,-1.5 6.76,-4.52 1.79,-4.08 0.39,-9.07 -3.13,-11.14 -8.69,-5.12 -17.37,-10.27 -26,-15.44 -3.54,-2.11 -7.84,-0.51 -9.65,3.55 -1.83,4.07 -0.46,9.07 3.05,11.17 8.68,5.2 17.39,10.35 26.09,15.49 0.93,0.54 1.9,0.83 2.88,0.89zm794.37 71.97c1.45,0.09 2.94,-0.35 4.26,-1.32 3.32,-2.48 4.27,-7.62 2.12,-11.46 -5.18,-9.29 -10.28,-18.88 -15.15,-28.54 -1.99,-3.95 -6.37,-5.28 -9.79,-2.98 -3.42,2.31 -4.57,7.38 -2.57,11.33 4.98,9.86 10.19,19.69 15.49,29.19 1.3,2.32 3.43,3.64 5.64,3.77zm-702.58 -19.32c2.79,0.17 5.52,-1.57 6.83,-4.67 1.72,-4.13 0.22,-9.09 -3.35,-11.08 -8.79,-4.88 -17.53,-9.81 -26.29,-14.77 -3.57,-2.04 -7.85,-0.31 -9.56,3.79 -1.74,4.1 -0.3,9.08 3.27,11.1 8.76,4.96 17.55,9.89 26.36,14.83 0.89,0.47 1.81,0.75 2.74,0.8zm846.74 67.02c1.47,0.09 2.97,-0.35 4.28,-1.35 8.25,-6.22 16.46,-12.75 24.41,-19.43 3.2,-2.68 3.92,-7.87 1.6,-11.58 -2.32,-3.71 -6.8,-4.53 -10,-1.85 -7.77,6.53 -15.78,12.9 -23.83,18.97 -3.31,2.51 -4.25,7.65 -2.09,11.47 1.3,2.32 3.42,3.64 5.62,3.77zm616.98 42.99c1.72,0.11 3.48,-0.51 4.92,-1.86 7.2,-6.84 14.58,-13.97 22.56,-21.75 3.02,-2.97 3.4,-8.2 0.85,-11.71 -2.55,-3.47 -7.07,-3.92 -10.09,-0.97 -7.93,7.76 -15.26,14.84 -22.41,21.63 -3.05,2.91 -3.5,8.11 -0.99,11.67 1.33,1.85 3.22,2.88 5.16,3zm1132.85 82.69c1.28,0.08 2.6,-0.23 3.81,-1.01 3.47,-2.2 4.74,-7.24 2.83,-11.25 -4.75,-10 -9.67,-19.98 -14.61,-29.63 -2.02,-3.94 -6.41,-5.26 -9.81,-2.92 -3.41,2.34 -4.53,7.42 -2.51,11.36 4.86,9.51 9.7,19.32 14.38,29.18 1.23,2.62 3.51,4.14 5.91,4.29zm-2503.74 -142.55c2.86,0.17 5.67,-1.68 6.91,-4.89 1.6,-4.19 -0.01,-9.1 -3.61,-10.95 -8.9,-4.61 -17.77,-9.27 -26.59,-13.98 -3.6,-1.91 -7.84,-0.09 -9.51,4.07 -1.65,4.16 -0.08,9.1 3.51,11.01 8.87,4.71 17.79,9.41 26.73,14.02 0.82,0.44 1.69,0.68 2.55,0.74zm663.73 72.84c1.06,0.07 2.16,-0.14 3.21,-0.66 9.04,-4.51 18.09,-9.33 26.91,-14.35 3.55,-2 5.01,-6.97 3.27,-11.09 -1.74,-4.09 -6.03,-5.81 -9.59,-3.79 -3.39,1.92 -6.81,3.82 -10.26,5.68 -6.31,-8.05 -12.53,-16.34 -18.5,-24.7 -2.52,-3.53 -7.03,-4.05 -10.08,-1.14 -3.05,2.91 -3.49,8.14 -0.97,11.67 5.13,7.2 10.44,14.36 15.84,21.33 -0.77,0.4 -1.54,0.79 -2.31,1.16 -3.63,1.83 -5.31,6.7 -3.74,10.89 1.12,3 3.57,4.84 6.2,5zm-569.25 -27.03c3,0.18 5.89,-1.85 7.05,-5.3 1.41,-4.26 -0.4,-9.07 -4.1,-10.71 -8.81,-3.94 -17.92,-8.15 -27.09,-12.44 -3.67,-1.74 -7.85,0.3 -9.34,4.55 -1.48,4.23 0.28,9.07 3.93,10.81 9.27,4.33 18.45,8.56 27.33,12.53 0.73,0.32 1.48,0.5 2.22,0.55zm1194.68 85.51c1.5,0.09 3.05,-0.34 4.39,-1.42 7.96,-6.24 16.08,-12.85 24.15,-19.61 3.2,-2.68 3.91,-7.87 1.59,-11.58 -2.32,-3.71 -6.8,-4.54 -10,-1.85 -7.94,6.68 -15.94,13.19 -23.78,19.33 -3.27,2.57 -4.13,7.74 -1.91,11.53 1.31,2.21 3.4,3.47 5.56,3.6zm-1097.87 -46.78c3.22,0.19 6.27,-2.17 7.22,-5.9 1.13,-4.39 -1,-8.99 -4.79,-10.3 -9.06,-3.15 -18.39,-6.57 -27.75,-10.13 -3.76,-1.42 -7.81,0.96 -9.04,5.28 -1.25,4.35 0.81,9.04 4.57,10.46 9.47,3.62 18.92,7.04 28.07,10.23 0.57,0.2 1.14,0.32 1.71,0.35zm375.34 25.74c0.67,0.04 1.36,-0.03 2.05,-0.24 9.54,-2.63 19.18,-5.61 28.63,-8.8 3.8,-1.29 5.97,-5.89 4.86,-10.3 -1.11,-4.39 -5.09,-6.89 -8.88,-5.63 -9.23,3.14 -18.63,6.03 -27.95,8.62 -3.84,1.06 -6.22,5.54 -5.29,10 0.76,3.64 3.5,6.16 6.58,6.35zm1981.45 139.04c1.04,0.06 2.12,-0.15 3.14,-0.64 3.65,-1.77 5.36,-6.64 3.83,-10.86 -3.8,-10.49 -7.76,-21 -11.77,-31.26 -1.63,-4.17 -5.88,-6 -9.48,-4.12 -3.6,1.88 -5.2,6.79 -3.57,10.96 3.95,10.12 7.86,20.48 11.61,30.84 1.1,3.02 3.57,4.92 6.23,5.08zm-2257.38 -136.3c3.53,0.22 6.72,-2.61 7.41,-6.71 0.73,-4.52 -1.82,-8.85 -5.7,-9.7 -9.35,-2.06 -18.9,-4.36 -28.42,-6.84 -3.87,-0.98 -7.71,1.83 -8.55,6.28 -0.87,4.46 1.55,8.89 5.41,9.9 9.69,2.5 19.4,4.86 28.89,6.93 0.33,0.08 0.64,0.12 0.98,0.14zm456.67 30.17c2.28,0.14 4.58,-0.97 6.07,-3.23 2.4,-3.64 1.8,-8.85 -1.35,-11.62 -7.57,-6.68 -15.14,-13.76 -22.49,-21.01 -3.01,-2.95 -7.53,-2.53 -10.09,0.93 -2.57,3.49 -2.21,8.72 0.81,11.69 7.55,7.43 15.31,14.68 23.08,21.55 1.19,1.04 2.57,1.6 3.96,1.68zm-281.98 -15.66c0.26,0.01 0.55,0.03 0.82,-0.01 5.83,-0.39 11.75,-0.89 17.59,-1.47 3.99,-0.39 7.98,-0.84 11.94,-1.35 3.93,-0.48 6.77,-4.6 6.35,-9.13 -0.43,-4.56 -3.96,-7.85 -7.9,-7.34 -3.87,0.49 -7.76,0.91 -11.63,1.31 -5.72,0.56 -11.5,1.07 -17.18,1.44 -3.95,0.26 -6.98,4.2 -6.73,8.75 0.19,4.27 3.14,7.58 6.74,7.8zm-73.12 0.08c3.95,0.24 7.32,-3.26 7.52,-7.81 0.21,-4.58 -2.82,-8.47 -6.75,-8.74 -9.53,-0.58 -19.25,-1.42 -28.9,-2.51 -3.87,-0.43 -7.42,2.92 -7.79,7.46 -0.4,4.57 2.5,8.62 6.45,9.05 9.82,1.07 19.75,1.95 29.48,2.54zm808.6 63.71c1.18,0.07 2.4,-0.19 3.54,-0.84 8.7,-4.95 17.53,-10.28 26.24,-15.83 3.47,-2.2 4.73,-7.24 2.83,-11.25 -1.91,-3.99 -6.26,-5.47 -9.73,-3.27 -8.52,5.43 -17.16,10.63 -25.67,15.48 -3.55,2.02 -5.01,7 -3.26,11.11 1.19,2.78 3.55,4.45 6.05,4.6zm-366.34 13.81c2.81,0.17 5.56,-1.6 6.84,-4.7 1.7,-4.13 0.18,-9.09 -3.4,-11.05 -8.56,-4.7 -17.19,-9.84 -25.62,-15.25 -3.46,-2.23 -7.82,-0.78 -9.74,3.22 -1.92,4 -0.67,9.03 2.79,11.26 8.69,5.59 17.58,10.89 26.42,15.75 0.87,0.47 1.79,0.72 2.7,0.77zm270.83 28.54c0.74,0.05 1.49,-0.05 2.24,-0.28 9.41,-2.94 18.97,-6.31 28.42,-10 3.74,-1.46 5.76,-6.18 4.49,-10.52 -1.27,-4.33 -5.33,-6.66 -9.08,-5.2 -9.17,3.59 -18.44,6.87 -27.57,9.72 -3.81,1.18 -6.07,5.72 -5.05,10.15 0.83,3.54 3.53,5.94 6.54,6.12zm-173.88 8.81c3.51,0.21 6.7,-2.58 7.4,-6.69 0.76,-4.49 -1.78,-8.85 -5.67,-9.72 -9.27,-2.09 -18.67,-4.65 -27.94,-7.6 -3.82,-1.2 -7.76,1.38 -8.81,5.8 -1.04,4.42 1.2,8.98 5.01,10.18 9.62,3.08 19.38,5.72 29.01,7.88 0.33,0.08 0.67,0.12 1,0.14zm72.73 7.77c0.15,0.01 0.3,0.02 0.44,0.03 9.83,-0.12 19.86,-0.67 29.79,-1.67 3.94,-0.39 6.86,-4.42 6.51,-8.98 -0.34,-4.56 -3.81,-7.92 -7.76,-7.52 -9.56,0.94 -19.21,1.49 -28.67,1.6 -3.95,0.04 -7.13,3.77 -7.1,8.36 0.03,4.4 3.03,7.96 6.78,8.19zm1576.88 102.3c0.85,0.05 1.72,-0.06 2.58,-0.4 3.76,-1.4 5.83,-6.09 4.6,-10.43 -2.27,-8.13 -4.63,-16.3 -7.02,-24.3 -1.29,-4.34 -5.37,-6.61 -9.1,-5.15 -3.74,1.51 -5.72,6.21 -4.44,10.54 2.36,7.92 4.69,16 6.94,23.99 0.94,3.38 3.56,5.56 6.44,5.73z"/>
  </g>
 </g>
</svg>
