<?xml version="1.0" encoding="UTF-8"?>
<!DOCTYPE svg PUBLIC "-//W3C//DTD SVG 1.1//EN" "http://www.w3.org/Graphics/SVG/1.1/DTD/svg11.dtd">
<!-- Creator: CorelDRAW -->
<svg xmlns="http://www.w3.org/2000/svg" xml:space="preserve" width="8.3646mm" height="7.6332mm" version="1.1" style="shape-rendering:geometricPrecision; text-rendering:geometricPrecision; image-rendering:optimizeQuality; fill-rule:evenodd; clip-rule:evenodd"
viewBox="0 0 29.3 26.74"
 xmlns:xlink="http://www.w3.org/1999/xlink"
 xmlns:xodm="http://www.corel.com/coreldraw/odm/2003">
 <defs>
  <style type="text/css">
   <![CDATA[
    .str0 {stroke:white;stroke-width:0.7;stroke-miterlimit:10}
    .fil0 {fill:white;fill-rule:nonzero}
   ]]>
  </style>
 </defs>
 <g id="Capa_x0020_1">
  <metadata id="CorelCorpID_0Corel-Layer"/>
  <path class="fil0 str0" d="M0.73 1.82l8.28 23.66c0.1,0.27 0.32,0.48 0.6,0.55 0.28,0.07 0.58,-0.01 0.79,-0.2l8.11 -7.54 -14.53 -14.26c-0.06,-0.06 -0.07,-0.15 -0.01,-0.22 0.05,-0.07 0.15,-0.08 0.22,-0.04l17.71 11.37 6.46 -6.01c0.23,-0.22 0.32,-0.53 0.25,-0.83 -0.08,-0.31 -0.3,-0.54 -0.61,-0.62l-26.23 -6.97c-0.31,-0.08 -0.63,0.01 -0.85,0.25 -0.22,0.24 -0.29,0.56 -0.18,0.86zm20.82 19.78l-2.81 -3.08 -1.17 1.09 3.98 1.99zm0.09 -6.23l-16.3 -10.46 13.4 13.15 2.89 -2.69zm0.96 6.65c0.07,-0.03 0.14,-0.11 0.12,-0.23l-0.93 -6.11 -2.81 2.62 3.37 3.69c0.08,0.08 0.19,0.07 0.25,0.04zm-21.93 -21.29c0.3,-0.33 0.74,-0.45 1.17,-0.34l26.23 6.97c0.42,0.11 0.74,0.43 0.84,0.86 0.11,0.42 -0.02,0.86 -0.34,1.15l-6.49 6.04 0.96 6.33c0.04,0.24 -0.08,0.47 -0.3,0.57 -0.08,0.04 -0.17,0.06 -0.25,0.06 -0.09,0 -0.19,-0.03 -0.27,-0.07 0,0 -0,-0 -0,-0l-4.92 -2.45 -6.68 6.22c-0.22,0.21 -0.51,0.32 -0.81,0.32 -0.09,0 -0.19,-0.01 -0.29,-0.04 -0.39,-0.1 -0.7,-0.38 -0.83,-0.76l-8.28 -23.67c-0.15,-0.42 -0.05,-0.87 0.25,-1.2z"/>
 </g>
</svg>
